<svg xmlns="http://www.w3.org/2000/svg" width="219.434" height="147.006" viewBox="0 0 219.434 147.006">
  <g id="Grupo_392" data-name="Grupo 392" transform="translate(-121.372 -151.335)">
    <g id="Grupo_388" data-name="Grupo 388" transform="translate(229.709 191.405)">
      <path id="Caminho_2377" data-name="Caminho 2377" d="M359.128,269.891c-3.389,17.2-9.187,47.2-12.321,63.488a12.53,12.53,0,0,0,8.914,14.439l65.478,18.4a12.53,12.53,0,0,0,15.3-8.178l20.545-62.625a12.521,12.521,0,0,0-8.741-16.038l-73.711-19.218a12.53,12.53,0,0,0-15.465,9.732Z" transform="translate(-346.578 -259.753)" fill="#215273"/>
      <path id="Caminho_2378" data-name="Caminho 2378" d="M394.37,276.562c.236.309,6.888,13.221,6.888,13.221s9.15-3.117,18.5,4.78l13.684-8.178s-5.625-8.541-20.281-11.522C401.3,272.418,394.37,276.562,394.37,276.562Z" transform="translate(-350.943 -261.062)" fill="#fff"/>
      <path id="Caminho_2379" data-name="Caminho 2379" d="M419.64,295.09l-.227-.236c-9.032-7.642-17.946-4.725-18.037-4.689l-.391.127-.182-.363c-2.617-5.079-6.606-12.776-6.86-13.176l-.264-.409.409-.263c.291-.173,7.2-4.216,19.082-1.817,14.684,2.98,20.354,11.367,20.581,11.731l.273.409Zm-13.857-6.424a21.808,21.808,0,0,1,13.957,5.279l12.939-7.769c-1.327-1.708-7.215-8.387-19.682-10.9-10-2.026-16.41.663-18.037,1.463,1.072,1.99,4.952,9.5,6.479,12.467A17.417,17.417,0,0,1,405.783,288.666Z" transform="translate(-350.88 -261.009)" fill="#263238"/>
      <path id="Caminho_2380" data-name="Caminho 2380" d="M401.861,274.49a8.451,8.451,0,0,1,.691,2.272,4.471,4.471,0,0,1,.2,2.39,8.5,8.5,0,0,1-.681-2.272A4.535,4.535,0,0,1,401.861,274.49Z" transform="translate(-351.62 -261.099)" fill="#263238"/>
      <path id="Caminho_2381" data-name="Caminho 2381" d="M404.379,276.741c-.127.045-.427-.491-.554-1.227s0-1.354.109-1.354.254.572.382,1.263S404.515,276.741,404.379,276.741Z" transform="translate(-351.802 -261.069)" fill="#263238"/>
      <path id="Caminho_2382" data-name="Caminho 2382" d="M406.294,276.61c-.136,0-.345-.582-.472-1.345s-.109-1.408,0-1.436.345.582.472,1.354S406.43,276.592,406.294,276.61Z" transform="translate(-351.981 -261.038)" fill="#263238"/>
      <path id="Caminho_2383" data-name="Caminho 2383" d="M407.962,276.638c-.136,0-.291-.609-.354-1.381s0-1.408.127-1.427.3.609.363,1.39S408.107,276.629,407.962,276.638Z" transform="translate(-352.15 -261.038)" fill="#263238"/>
      <path id="Caminho_2384" data-name="Caminho 2384" d="M409.846,276.571c-.136,0-.245-.582-.236-1.3s.127-1.29.264-1.281.236.572.236,1.29S409.964,276.571,409.846,276.571Z" transform="translate(-352.335 -261.053)" fill="#263238"/>
      <path id="Caminho_2385" data-name="Caminho 2385" d="M411.746,276.9c-.136,0-.164-.636-.127-1.4s.118-1.372.254-1.381.273.627.236,1.408S411.882,276.919,411.746,276.9Z" transform="translate(-352.517 -261.065)" fill="#263238"/>
      <path id="Caminho_2386" data-name="Caminho 2386" d="M413.616,277.275c-.136,0-.182-.609-.1-1.3s.254-1.245.391-1.236.182.582.1,1.29S413.752,277.293,413.616,277.275Z" transform="translate(-352.688 -261.122)" fill="#263238"/>
      <path id="Caminho_2387" data-name="Caminho 2387" d="M416.06,280.171a11.876,11.876,0,0,1,1.354-4.671,6.18,6.18,0,0,1-.445,2.408,6.36,6.36,0,0,1-.909,2.263Z" transform="translate(-352.924 -261.191)" fill="#263238"/>
      <path id="Caminho_2388" data-name="Caminho 2388" d="M415.237,277.43c-.136,0-.155-.563-.1-1.208s.145-1.172.282-1.181.263.545.209,1.218S415.364,277.448,415.237,277.43Z" transform="translate(-352.837 -261.149)" fill="#263238"/>
      <path id="Caminho_2389" data-name="Caminho 2389" d="M428.389,285.919c-.109-.082.4-.972,1.236-1.917s1.654-1.563,1.745-1.463-.554.909-1.372,1.817S428.5,286,428.389,285.919Z" transform="translate(-354.049 -261.833)" fill="#263238"/>
      <path id="Caminho_2390" data-name="Caminho 2390" d="M397.948,278.231c-.127.055-.509-.491-.863-1.227s-.536-1.381-.418-1.445.509.491.863,1.227S398.066,278.167,397.948,278.231Z" transform="translate(-351.15 -261.196)" fill="#263238"/>
      <path id="Caminho_2391" data-name="Caminho 2391" d="M400.253,277.533c-.118.055-.491-.427-.736-1.118s-.291-1.3-.154-1.336.373.5.618,1.163S400.38,277.47,400.253,277.533Z" transform="translate(-351.392 -261.152)" fill="#263238"/>
      <path id="Caminho_2392" data-name="Caminho 2392" d="M427.709,283.482c-.082-.1.409-.663,1.027-1.336s1.154-1.2,1.263-1.127-.254.772-.909,1.463S427.791,283.6,427.709,283.482Z" transform="translate(-353.987 -261.694)" fill="#263238"/>
      <path id="Caminho_2393" data-name="Caminho 2393" d="M426.178,282.376c-.109-.091.236-.627.754-1.209s1.027-.972,1.136-.909-.245.636-.763,1.218S426.278,282.476,426.178,282.376Z" transform="translate(-353.847 -261.625)" fill="#263238"/>
      <path id="Caminho_2394" data-name="Caminho 2394" d="M424.758,281.485c-.109-.082.191-.645.663-1.263s.954-1.045,1.063-.963-.191.645-.672,1.263S424.867,281.567,424.758,281.485Z" transform="translate(-353.717 -261.533)" fill="#263238"/>
      <path id="Caminho_2395" data-name="Caminho 2395" d="M423.257,280.4c-.118-.073.1-.618.482-1.218s.781-1.036.909-.963-.1.627-.482,1.227S423.366,280.473,423.257,280.4Z" transform="translate(-353.579 -261.439)" fill="#263238"/>
      <path id="Caminho_2396" data-name="Caminho 2396" d="M421.466,279.648c-.118-.055.055-.681.445-1.354s.854-1.127.972-1.045-.155.645-.545,1.3S421.594,279.748,421.466,279.648Z" transform="translate(-353.415 -261.35)" fill="#263238"/>
      <path id="Caminho_2397" data-name="Caminho 2397" d="M419.725,278.93c-.127-.045,0-.609.336-1.254s.672-1.1.791-1.027,0,.627-.345,1.254S419.843,278.984,419.725,278.93Z" transform="translate(-353.255 -261.295)" fill="#263238"/>
      <path id="Caminho_2398" data-name="Caminho 2398" d="M418.53,278.279c-.127,0-.145-.591.055-1.236s.509-1.109.636-1.063,0,.582-.164,1.209S418.667,278.3,418.53,278.279Z" transform="translate(-353.141 -261.235)" fill="#263238"/>
      <path id="Caminho_2399" data-name="Caminho 2399" d="M431.229,285.6c-.073-.118.373-.5.909-.909s1.054-.736,1.154-.636-.264.591-.854,1.036S431.293,285.721,431.229,285.6Z" transform="translate(-354.309 -261.971)" fill="#263238"/>
      <path id="Caminho_2400" data-name="Caminho 2400" d="M433,287.2c-.073-.118.363-.5.909-.909s1.054-.736,1.154-.636-.263.591-.854,1.027S433.081,287.321,433,287.2Z" transform="translate(-354.471 -262.117)" fill="#263238"/>
      <path id="Caminho_2401" data-name="Caminho 2401" d="M414.559,284.72c-.209.182-4.389,5.643-4.389,5.643l5.761,1.754Z" transform="translate(-352.386 -262.033)" fill="#00da84"/>
      <g id="Grupo_358" data-name="Grupo 358" transform="translate(2.854 3.732)" opacity="0.3">
        <path id="Caminho_2402" data-name="Caminho 2402" d="M381.35,266.023l20.99,38.464L443.1,282.015l6.7,1.763a8.305,8.305,0,0,1,5.716,10.8l-20.972,59.154a12.785,12.785,0,0,1-15.684,8.441c-16.647-4.725-46.451-13.112-61.289-16.783-5.17-1.281-8.714-8.087-7.669-13.312l11.667-58.554a11.276,11.276,0,0,1,14.539-9.15Z" transform="translate(-349.718 -263.86)"/>
      </g>
    </g>
    <g id="Grupo_391" data-name="Grupo 391" transform="translate(148.651 151.335)">
      <path id="Caminho_2405" data-name="Caminho 2405" d="M332.94,86.471s8.957,1.018,13.89,6.762,6.239,9.989,6.239,9.989,3,.115,7.042-2.409a14.916,14.916,0,0,0,5.479-5.629s-2.5-2.194-6.655-8.856-.445-15.819-.445-15.819l-4.525-.588s-1.951,7.171-1.843,11.99l-5.515-8.835-5.988,3.736,5.8,9.279c-4.683-3.356-11.258-3.98-11.258-3.98Z" transform="translate(-308.036 -41.996)" fill="#455a64"/>
      <g id="Grupo_359" data-name="Grupo 359" transform="translate(24.904 27.924)" opacity="0.3">
        <path id="Caminho_2406" data-name="Caminho 2406" d="M332.94,86.471s8.957,1.018,13.89,6.762,6.239,9.989,6.239,9.989,3,.115,7.042-2.409a14.916,14.916,0,0,0,5.479-5.629s-2.5-2.194-6.655-8.856-.445-15.819-.445-15.819l-4.525-.588s-1.951,7.171-1.843,11.99l-5.515-8.835-5.988,3.736,5.8,9.279c-4.683-3.356-11.258-3.98-11.258-3.98Z" transform="translate(-332.94 -69.92)" fill="#55c595"/>
      </g>
      <path id="Caminho_2407" data-name="Caminho 2407" d="M323.373,81.636c-5.328,4.2-11.6,2.266-13.8-2.8-2.058.925-8.878.351-10.943-5.737-1.75-5.156,2.237-10.039,6.454-11.552a10.57,10.57,0,0,1-.717-12.019,10.986,10.986,0,0,1,11.251-4.769,13.4,13.4,0,0,1,8.541-12.248A13.137,13.137,0,0,1,338.5,36.265a8.665,8.665,0,0,1,10.864-4.747A8.282,8.282,0,0,1,353.506,42.4a8.8,8.8,0,0,1,8.605,5.414,8.95,8.95,0,0,1-2.66,9.867c-2.868,2.331-6.411,3.055-9.48,1.14-.774,2.323-3.793,3.686-6.232,3.923a6.325,6.325,0,0,1-6.074-3.227c.33,3.105-1.642,5.959-4.123,7.945s-4.532,1.764-8.333.868C328.178,74.02,327.934,78.05,323.373,81.636Z" transform="translate(-298.211 -30.98)" fill="#55c595"/>
      <g id="Grupo_360" data-name="Grupo 360" transform="translate(22.79 12.95)" opacity="0.3">
        <path id="Caminho_2408" data-name="Caminho 2408" d="M349.022,51.75c-.05,0-.308-.308-.9-.789a6.805,6.805,0,0,0-2.868-1.312,6.174,6.174,0,0,0-7.537,5.407,5.98,5.98,0,0,0,.423,3.205l.409.932-.846-.567a4.9,4.9,0,0,0-4.3-.466,4.74,4.74,0,0,0-2.625,2.366,6.159,6.159,0,0,0-.538,3.22,1.829,1.829,0,0,1-.229-.875,4.969,4.969,0,0,1,.423-2.5,5.02,5.02,0,0,1,2.8-2.682,5.393,5.393,0,0,1,4.812.452l-.437.373a6.454,6.454,0,0,1-.488-3.521,7.035,7.035,0,0,1,3.3-5.1,6.863,6.863,0,0,1,4.941-.66,6.454,6.454,0,0,1,2.94,1.556,2.868,2.868,0,0,1,.724.961Z" transform="translate(-329.991 -49.038)"/>
      </g>
      <g id="Grupo_361" data-name="Grupo 361" transform="translate(10.178 38.911)" opacity="0.3">
        <path id="Caminho_2409" data-name="Caminho 2409" d="M313.025,91.522c-.057,0-.38-.33-.545-1.083a4.367,4.367,0,0,1,.466-2.919A4.532,4.532,0,0,1,315.1,85.47c.717-.294,1.219-.244,1.219-.179s-.43.2-1.025.559a5.077,5.077,0,0,0-1.829,1.943,4.934,4.934,0,0,0-.574,2.582C312.946,91.027,313.111,91.443,313.025,91.522Z" transform="translate(-312.404 -85.241)"/>
      </g>
    </g>
    <g id="Grupo_389" data-name="Grupo 389" transform="translate(118.315 224.618) rotate(-7)">
      <path id="Caminho_2415" data-name="Caminho 2415" d="M6.363,24.722c2.726-2.917,4.216-8.378,4.807-12.349A19.882,19.882,0,0,0,9.289.642,1.118,1.118,0,0,0,8.744.025,1.154,1.154,0,0,0,7.89.179,14.175,14.175,0,0,0,6.363,24.713" transform="translate(48.129 0.698)" fill="#215273"/>
      <path id="Caminho_2416" data-name="Caminho 2416" d="M.9,15.079c2.944-.736,6.088-3.635,8.078-5.924A15.057,15.057,0,0,0,12.543.922a.909.909,0,0,0-.1-.618.909.909,0,0,0-.609-.245A10.713,10.713,0,0,0,.93,15.079" transform="translate(62.304 0)" fill="#215273"/>
      <path id="Caminho_2417" data-name="Caminho 2417" d="M15.927,7.536A5.788,5.788,0,0,0,14.019,2,8.632,8.632,0,0,0,8.331,0,9.423,9.423,0,0,0,3.17,1.376a6.424,6.424,0,0,0-.909,10.431,9.087,9.087,0,0,0,6.224,2.281A7.46,7.46,0,0,0,13.71,12.18c1.363-1.327,2.4-3.144,2.244-4.643" transform="translate(45.771 17.583)" fill="#00da84"/>
      <path id="Caminho_2418" data-name="Caminho 2418" d="M0,15.085c7.715,1.39,15.393-7.169,17.265-12.721A1.5,1.5,0,0,0,15.375.156,18.046,18.046,0,0,0,.009,15.112" transform="translate(81.389 15.678)" fill="#215273"/>
      <path id="Caminho_2419" data-name="Caminho 2419" d="M15.921,7.536a5.779,5.779,0,0,0-1.908-5.543A8.678,8.678,0,0,0,8.324,0,9.423,9.423,0,0,0,3.163,1.376a6.433,6.433,0,0,0-.909,10.431,9.087,9.087,0,0,0,6.224,2.281A7.46,7.46,0,0,0,13.7,12.18c1.363-1.336,2.4-3.144,2.244-4.643" transform="translate(74.155 18.974)" fill="#00da84"/>
      <path id="Caminho_2420" data-name="Caminho 2420" d="M15.921,7.536a5.779,5.779,0,0,0-1.908-5.543A8.678,8.678,0,0,0,8.324,0,9.423,9.423,0,0,0,3.163,1.376a6.433,6.433,0,0,0-.909,10.431,9.087,9.087,0,0,0,6.224,2.281A7.451,7.451,0,0,0,13.7,12.18c1.363-1.336,2.4-3.144,2.244-4.643" transform="translate(17.645 6.87)" fill="#00da84"/>
      <path id="Caminho_2421" data-name="Caminho 2421" d="M16.857,19.382c-.064-4.025-2.835-8.941-5.188-12.194A19.863,19.863,0,0,0,2.127.11,1.19,1.19,0,0,0,1.3.046,1.163,1.163,0,0,0,.8.755,14.184,14.184,0,0,0,16.857,19.382" transform="translate(33.347 8.781)" fill="#215273"/>
      <path id="Caminho_2422" data-name="Caminho 2422" d="M15.02,13.5A37.252,37.252,0,0,1,10.949,7.82,12.622,12.622,0,0,1,9.223,1.133a.909.909,0,0,1,1.354-1A21.354,21.354,0,0,1,27.151,18.779l.218,1.154A16.528,16.528,0,0,1,15.157,21.75a25.669,25.669,0,0,1-9.423-3.726A13.5,13.5,0,0,1,0,9.847,18.255,18.255,0,0,1,15.02,13.5Z" transform="translate(7.015 7.731)" fill="#215273"/>
      <path id="Caminho_2423" data-name="Caminho 2423" d="M4.509,6.915C8.144,3.208,13.151,1.181,18.194,0a19.454,19.454,0,0,1-4.084,14.471A19.454,19.454,0,0,1,.929,21.708l-.3-.554C-1.088,16.274.875,10.622,4.509,6.915Z" transform="translate(65.685 7.555)" fill="#215273"/>
      <path id="Caminho_2424" data-name="Caminho 2424" d="M96.464,0a85.029,85.029,0,0,1-15.52,31.3C63.8,52.366,25.2,46.46,14.7,29.959,10.668,23.6,0,.109,0,.109Z" transform="translate(0.409 25.256)" fill="#cff4d2"/>
      <path id="Caminho_2425" data-name="Caminho 2425" d="M96.873.173H89.494L69.186.282.436.491.7.091c3.126,6.842,6.424,13.921,10,21.072q1.372,2.726,2.826,5.452a27.85,27.85,0,0,0,3.262,5.061,28.168,28.168,0,0,0,9.087,7.269,49.258,49.258,0,0,0,21.444,5.6,47.987,47.987,0,0,0,19.809-3.135A36.074,36.074,0,0,0,81.271,31.231,84.233,84.233,0,0,0,93.91,9.068c1.1-2.826,1.817-5.061,2.281-6.588L96.873.145a61.343,61.343,0,0,1-2.726,9,82.86,82.86,0,0,1-12.53,22.344A36.4,36.4,0,0,1,67.332,41.853,48.214,48.214,0,0,1,47.341,45.17a49.713,49.713,0,0,1-21.7-5.634,28.832,28.832,0,0,1-9.3-7.433,28.451,28.451,0,0,1-3.317-5.152q-1.458-2.726-2.835-5.452C6.624,14.339,3.335,7.26.191.409L0,0H.445L69.413.064,89.649.118H95.1Z" transform="translate(0 25.083)" fill="#263238"/>
      <path id="Caminho_2426" data-name="Caminho 2426" d="M82.725.34c0,.164-18.519.273-41.362.245S0,.413,0,.25,18.519-.023,41.362,0,82.725.177,82.725.34Z" transform="translate(7.805 40.654)" fill="#00da84"/>
      <path id="Caminho_2427" data-name="Caminho 2427" d="M85.669.34c0,.164-19.182.273-42.834.245S0,.413,0,.25,19.182-.023,42.834,0,85.669.186,85.669.34Z" transform="translate(6.533 38.273)" fill="#00da84"/>
    </g>
    <g id="Grupo_390" data-name="Grupo 390" transform="translate(218.363 151.335)">
      <path id="Caminho_2410" data-name="Caminho 2410" d="M408.351,81.96a13.681,13.681,0,0,0,1-10.5,14.148,14.148,0,0,0-6.882-8.177,1.451,1.451,0,0,0-.983-.228c-.468.12-.672.659-.791,1.127a16.57,16.57,0,0,0,.767,10.239,17.05,17.05,0,0,0,6.75,7.9" transform="translate(-381.186 -63.04)" fill="#215273"/>
      <path id="Caminho_2411" data-name="Caminho 2411" d="M384.567,97.051c.947,7.889,4.125,14.112,9.976,16.414,1.2.456,2.326,0,3.489.348a7.578,7.578,0,0,1,1.643,1.367,3,3,0,0,0,.911.564c6.235,1.834,12.949-.552,18.968-6.367,8.393-8.165,10.647-19.316,5.036-24.927a17.872,17.872,0,0,0-2.4-2.026,12.4,12.4,0,0,0-3.225-1.571,27.074,27.074,0,0,0-8.285-1.007h-.372c-4.64-4.316-9.029-5.875-13.992-5.36C388.44,75.349,383.176,85.445,384.567,97.051Z" transform="translate(-384.344 -60.781)" fill="#00da84"/>
      <path id="Caminho_2412" data-name="Caminho 2412" d="M387.6,86.769a5.131,5.131,0,0,1,.144-2.182,11.151,11.151,0,0,1,2.4-4.8,11.391,11.391,0,0,1,4.292-3.141,5.517,5.517,0,0,1,2.158-.54c0,.084-.8.276-2.014.851a12.4,12.4,0,0,0-4.089,3.177,12.182,12.182,0,0,0-2.4,4.5C387.719,85.906,387.683,86.769,387.6,86.769Z" transform="translate(-383.708 -60.439)" fill="#fafafa"/>
      <path id="Caminho_2413" data-name="Caminho 2413" d="M387.253,89.658c-.132,0-.18-.564-.108-1.2s.24-1.2.372-1.2.192.564.12,1.2S387.4,89.67,387.253,89.658Z" transform="translate(-383.793 -58.22)" fill="#fafafa"/>
      <path id="Caminho_2414" data-name="Caminho 2414" d="M426.956,69.432c0,.1-1.463.12-3.765.564a28.192,28.192,0,0,0-3.945,1.091,29.814,29.814,0,0,0-4.508,2.134,28.645,28.645,0,0,0-4.029,2.89,27.141,27.141,0,0,0-2.818,2.914c-1.463,1.882-2.158,3.081-2.242,3.081a4.8,4.8,0,0,1,.444-.911,10.8,10.8,0,0,1,.612-1.019c.264-.384.54-.839.911-1.295a23.986,23.986,0,0,1,2.794-3.033,26.52,26.52,0,0,1,4.053-3.045,27.58,27.58,0,0,1,4.616-2.134,24.146,24.146,0,0,1,4.041-1.007c.576-.12,1.115-.144,1.583-.2a11.765,11.765,0,0,1,1.2,0A5.732,5.732,0,0,1,426.956,69.432Z" transform="translate(-380.104 -61.771)" fill="#263238"/>
    </g>
  </g>
</svg>
