<svg xmlns="http://www.w3.org/2000/svg" width="318.608" height="134.728" viewBox="0 0 318.608 134.728">
  <g id="Grupo_407" data-name="Grupo 407" transform="translate(-64.783 -454.609)">
    <g id="Grupo_401" data-name="Grupo 401" transform="translate(189.376 454.609)">
      <path id="Caminho_2578" data-name="Caminho 2578" d="M0,0V.007H.022Z" transform="translate(43.182 44.331)" fill="none"/>
      <path id="Caminho_2579" data-name="Caminho 2579" d="M0,.014.058.022.014,0Z" transform="translate(43.117 44.316)" fill="none"/>
      <path id="Caminho_2580" data-name="Caminho 2580" d="M.043,0,0,.051H.1Z" transform="translate(43.008 44.287)" fill="none"/>
      <path id="Caminho_2581" data-name="Caminho 2581" d="M.007.014.022,0H0Z" transform="translate(42.957 44.265)" fill="none"/>
      <path id="Caminho_2582" data-name="Caminho 2582" d="M0,0V.007L.014.022Z" transform="translate(42.95 44.149)" fill="none"/>
      <path id="Caminho_2583" data-name="Caminho 2583" d="M.007,0,0,.014.014.029Z" transform="translate(43.153 44.273)" fill="none"/>
      <path id="Caminho_2584" data-name="Caminho 2584" d="M.275.13.268.08,0,0,.239.152Z" transform="translate(42.653 44.171)" fill="none"/>
      <path id="Caminho_2585" data-name="Caminho 2585" d="M.007,0,0,.043.036.022Z" transform="translate(42.928 44.258)" fill="none"/>
      <path id="Caminho_2586" data-name="Caminho 2586" d="M.036,0,0,.007.022.022Z" transform="translate(43.109 44.258)" fill="none"/>
      <path id="Caminho_2587" data-name="Caminho 2587" d="M.014.007,0,0,.007.022Z" transform="translate(43.102 44.301)" fill="none"/>
      <path id="Caminho_2588" data-name="Caminho 2588" d="M.015.007,0,0,.007.015Z" transform="translate(43.145 44.49)" fill="#f5f5f5"/>
      <path id="Caminho_2589" data-name="Caminho 2589" d="M.036.014.029.036,0,.014.007.072.014.065V.072L.065.058.036.043.058.022H.072L.065.007.072,0H0Z" transform="translate(42.936 44.338)" fill="#f5f5f5"/>
      <path id="Caminho_2590" data-name="Caminho 2590" d="M.311.087.318.007.3,0,0,.174Z" transform="translate(42.603 44.338)" fill="#f5f5f5"/>
      <path id="Caminho_2591" data-name="Caminho 2591" d="M.022,0,0,.015.014.029Z" transform="translate(43.153 44.374)" fill="#f5f5f5"/>
      <path id="Caminho_2592" data-name="Caminho 2592" d="M0,.166.087.746.166.188.08,0Z" transform="translate(42.971 44.461)" fill="#f5f5f5"/>
      <path id="Caminho_2593" data-name="Caminho 2593" d="M.014,0H0L.014.007Z" transform="translate(43.131 44.396)" fill="#f5f5f5"/>
      <path id="Caminho_2594" data-name="Caminho 2594" d="M4.719.391a1.757,1.757,0,0,1,.347.246,2.9,2.9,0,0,1,.724.89,2.064,2.064,0,0,1,.3.789,1.932,1.932,0,0,1-.159.97,1.151,1.151,0,0,1-.9.68A1.708,1.708,0,0,1,3.879,3.7,14.362,14.362,0,0,1,2.287,2.323c-.427-.42-.84-.811-1.223-1.173A6.552,6.552,0,0,1,0,0,6.446,6.446,0,0,1,1.245.955L2.526,2.063A18.714,18.714,0,0,0,4.075,3.38c.557.376,1.332.282,1.534-.246a1.635,1.635,0,0,0,.167-.789,1.825,1.825,0,0,0-.224-.724A3.338,3.338,0,0,0,4.929.709C4.784.521,4.7.405,4.719.391Z" transform="translate(58.344 38.431)" fill="#7c5142"/>
      <path id="Caminho_2595" data-name="Caminho 2595" d="M3.894,0a11.274,11.274,0,0,1,1.6,1.353c.232.224.507.449.767.724A3.372,3.372,0,0,1,6.984,3.1,1.628,1.628,0,0,1,5.436,5.269a2.5,2.5,0,0,1-1.346-.724l-.984-.9L1.448,2.1A11.248,11.248,0,0,1,0,.6,12.155,12.155,0,0,1,1.643,1.9L3.351,3.387l1,.883a2.171,2.171,0,0,0,1.136.63A1.274,1.274,0,0,0,6.68,3.235,6.413,6.413,0,0,0,5.3,1.542,11.957,11.957,0,0,1,3.894,0Z" transform="translate(58.699 31.172)" fill="#7c5142"/>
      <path id="Caminho_2596" data-name="Caminho 2596" d="M5.616,1.732a.7.7,0,0,1,.441.087,1.491,1.491,0,0,1,.775.97A1.52,1.52,0,0,1,4.922,4.562a3.068,3.068,0,0,1-1.028-.579A23.464,23.464,0,0,1,1,1.291,5.79,5.79,0,0,1,0,0c.087-.08,1.715,1.8,4.111,3.684A2.7,2.7,0,0,0,5,4.207a1.108,1.108,0,0,0,.876-.08A1.187,1.187,0,0,0,6.55,2.847a1.4,1.4,0,0,0-.586-.9C5.768,1.8,5.609,1.761,5.616,1.732Z" transform="translate(58.409 34.716)" fill="#7c5142"/>
      <path id="Caminho_2597" data-name="Caminho 2597" d="M.017,12.37a.846.846,0,0,1,0-.333,3.718,3.718,0,0,1,.2-.926,3.937,3.937,0,0,1,2.236-2.4l.051.347h0V8.708h.043v.355H2.419l-.051-.087A7.536,7.536,0,0,1,1.507,6.66a8.178,8.178,0,0,1,.557-4.951,6.352,6.352,0,0,1,.782-1.3c.232-.275.362-.42.384-.405a11.3,11.3,0,0,0-.919,1.817,8.5,8.5,0,0,0-.434,4.77,7.527,7.527,0,0,0,.8,2.171l-.152-.087h0v.355H2.492V8.672h0l.847.036-.8.311A3.879,3.879,0,0,0,.371,11.154C.111,11.907.074,12.385.017,12.37Z" transform="translate(65.435 32.742)" fill="#7c5142"/>
      <path id="Caminho_2598" data-name="Caminho 2598" d="M1.383.384a2.269,2.269,0,0,1-.239.34,3.351,3.351,0,0,0-.608.9,1.715,1.715,0,0,0-.217.673,1.6,1.6,0,0,0,.159.782c.2.507.955.6,1.5.232A15.807,15.807,0,0,0,3.5,2.019L4.756.934A6.334,6.334,0,0,1,5.972,0,6.344,6.344,0,0,1,4.937,1.129L3.736,2.28A14.623,14.623,0,0,1,2.172,3.633a1.643,1.643,0,0,1-1.129.253A1.107,1.107,0,0,1,.16,3.221a1.925,1.925,0,0,1-.152-.948A1.991,1.991,0,0,1,.3,1.5,2.707,2.707,0,0,1,1.022.622C1.246.449,1.362.362,1.383.384Z" transform="translate(5.596 36.13)" fill="#eb996e"/>
      <path id="Caminho_2599" data-name="Caminho 2599" d="M3.162,0A10.919,10.919,0,0,1,1.786,1.513,6.376,6.376,0,0,0,.433,3.17,1.252,1.252,0,0,0,1.605,4.8a2.128,2.128,0,0,0,1.107-.615l.977-.869L5.369,1.867A11.156,11.156,0,0,1,6.976.6,11.226,11.226,0,0,1,5.528,2.048L3.9,3.568l-.963.883a2.461,2.461,0,0,1-1.324.724A1.592,1.592,0,0,1,.093,3.047,3.3,3.3,0,0,1,.817,2.041c.253-.275.528-.5.724-.724A11.4,11.4,0,0,1,3.162,0Z" transform="translate(4.273 29.016)" fill="#eb996e"/>
      <path id="Caminho_2600" data-name="Caminho 2600" d="M1.338,1.7c0,.036-.145.065-.362.217A1.448,1.448,0,0,0,.4,2.8a1.18,1.18,0,0,0,.666,1.259,1.086,1.086,0,0,0,.854.072,2.8,2.8,0,0,0,.876-.507C5.137,1.775,6.737-.063,6.817,0a5.146,5.146,0,0,1-.97,1.267A22.644,22.644,0,0,1,3.024,3.9a3.024,3.024,0,0,1-1.006.579A1.46,1.46,0,1,1,.9,1.782.629.629,0,0,1,1.338,1.7Z" transform="translate(4.694 32.481)" fill="#eb996e"/>
      <path id="Caminho_2601" data-name="Caminho 2601" d="M3.279,12.115c-.058,0-.1-.456-.384-1.158A3.843,3.843,0,0,0,.8,8.866l-.8-.3.84-.036h0V8.88H.8V8.533h0l-.145.094A7.568,7.568,0,0,0,1.44,6.456a8.424,8.424,0,0,0-.427-4.668C.565.637.051.05.109.007S.268.13.492.4a6.711,6.711,0,0,1,.767,1.281,8.034,8.034,0,0,1,.55,4.849A7.236,7.236,0,0,1,.955,8.8L.9,8.887H.789V8.54H.825v.355h0l.051-.34A3.836,3.836,0,0,1,3.047,10.9a3.618,3.618,0,0,1,.2.9A.846.846,0,0,1,3.279,12.115Z" transform="translate(1.355 30.565)" fill="#eb996e"/>
      <path id="Caminho_2602" data-name="Caminho 2602" d="M17.833,0C17.833.724,0,60.564,0,60.564L15.329,53.71l8.4,18.507L34.516.934Z" transform="translate(2.477 62.511)" fill="#7ce495"/>
      <path id="Caminho_2603" data-name="Caminho 2603" d="M0,5.262,3.633,73.9,16.987,55.071l17.247,12.34L16.987,0Z" transform="translate(33.36 59.783)" fill="#7ce495"/>
      <g id="Grupo_398" data-name="Grupo 398" transform="translate(19.153 60.593)" opacity="0.5">
        <path id="Caminho_2604" data-name="Caminho 2604" d="M0,6.456a6.586,6.586,0,0,0,5.877,4.61c1.571.065,3.3-.42,4.625.434s1.882,2.844,3.438,3.054c1.824.261,2.9-2.171,4.618-2.75,2.352-.767,4.82,2.07,7.136,1.194,1.491-.565,2.171-2.483,3.749-2.9a5.2,5.2,0,0,1,2.084.072,4.089,4.089,0,0,0,2.36-.449L33.04,6.42,31.592,0H.586Z" transform="translate(0 0)"/>
      </g>
      <path id="Caminho_2605" data-name="Caminho 2605" d="M3.119,1.339q.478.188.955.347C2.721,1.151,1.332.572,0,0,.919.427,1.969.89,3.119,1.339Z" transform="translate(7.146 25.093)" fill="#00e588"/>
      <path id="Caminho_2606" data-name="Caminho 2606" d="M.051.058,0,0,.043.072Z" transform="translate(19.536 20.96)" fill="#00e588"/>
      <path id="Caminho_2607" data-name="Caminho 2607" d="M0,0,1.18.926a.723.723,0,0,1,.072-.08L.869.593Z" transform="translate(61.753 53.776)" fill="#00e588"/>
      <path id="Caminho_2608" data-name="Caminho 2608" d="M.051.051A.333.333,0,0,1,0,0,3.3,3.3,0,0,1,0,.355Z" transform="translate(35.958 3.293)" fill="#00e588"/>
      <g id="Grupo_399" data-name="Grupo 399" transform="translate(0 0.006)">
        <path id="Caminho_2609" data-name="Caminho 2609" d="M0,13.615a20.405,20.405,0,0,1,4.48.9,1.883,1.883,0,0,1,.137-.724Q6.586,8.519,8.54,3.272l.094-.087a3.38,3.38,0,0,1-1.3-1.3A4.089,4.089,0,0,0,3.814,0c-.724,2.982-1.585,7.064-2.222,9.6A11.464,11.464,0,0,1,0,13.615Z" transform="translate(37.283 0)" fill="#cff4d2"/>
        <path id="Caminho_2610" data-name="Caminho 2610" d="M16.25,4.647A20.693,20.693,0,0,1,13.919,0,1.694,1.694,0,0,1,13.2.42l-.311.109a4.338,4.338,0,0,1-.608.326,19.018,19.018,0,0,1-2.012.644l-2.475.688c-1.759.478-3.358.89-4.516,1.165a10.014,10.014,0,0,1-1.9.384A9.657,9.657,0,0,1,3.2,3.1l1.578-.463-3.619.8C.689,5.493-.766,7.694.515,9.279a2.173,2.173,0,0,0,.471.42C5.6,7.99,11.509,5.783,15.381,4.762A2.568,2.568,0,0,1,16.25,4.647Z" transform="translate(2.143 40.93)" fill="#cff4d2"/>
        <path id="Caminho_2611" data-name="Caminho 2611" d="M.01,12.945v1.093a20.677,20.677,0,0,1,5.066-.659V13.1L5.315,9.29V8.508c.051-2.736.159-5,.253-5.443-.767-.9-1.5-2.8-3.047-3A2.7,2.7,0,0,0,.031.583C.089,4.39-.034,9.2.01,12.945Z" transform="translate(30.253 0.141)" fill="#cff4d2"/>
        <path id="Caminho_2612" data-name="Caminho 2612" d="M14.439,9.778a20.567,20.567,0,0,1,.825-4.7c-.405-.123-.825-.261-1.252-.405a21.311,21.311,0,0,1-4.343-1.2A40.86,40.86,0,0,1,5.074,1.3,15,15,0,0,1,3.445.369L2.577,0C2.012.919,1.129,1.672.514,2.591A3.323,3.323,0,0,0,0,4.335C4.712,5.624,10.4,7.324,14.359,9.684Z" transform="translate(0.479 23.299)" fill="#cff4d2"/>
        <path id="Caminho_2613" data-name="Caminho 2613" d="M12.926,11.812A20.268,20.268,0,0,1,15.1,7.954l-.311-.2A36.7,36.7,0,0,1,8.273,2.229l-.051-.058C7.339,1.448,6.5.673,5.754,0a2.171,2.171,0,0,1-.5.847c-1.122,1.122-3.228.4-4.466,1.39A2.237,2.237,0,0,0,0,3.684a123.732,123.732,0,0,1,11.414,7.18C12.007,11.233,12.535,11.558,12.926,11.812Z" transform="translate(3.585 14.281)" fill="#cff4d2"/>
        <path id="Caminho_2614" data-name="Caminho 2614" d="M6.695,11.573c.507.724.955,1.346,1.288,1.838a20.619,20.619,0,0,1,3.843-3.517c-.434-.55-.97-1.267-1.563-2.063C9.735,7.223,9.134,6.5,8.5,5.711,7.578,4.545,6.782,3.467,6.232,2.663a6.219,6.219,0,0,1-.818-1.346,4.531,4.531,0,0,1,.536.572C5.443,1.165,4.965.55,4.545,0a3.857,3.857,0,0,1-1.39,1.643A9.99,9.99,0,0,1,0,2.367a77.753,77.753,0,0,1,5.79,7.9Z" transform="translate(11.785 7.391)" fill="#cff4d2"/>
        <path id="Caminho_2615" data-name="Caminho 2615" d="M5.537,13.552a20.16,20.16,0,0,1,3.749-1.759c-.051-.152-.094-.311-.145-.492-.282-.977-.622-2.338-.919-3.865s-.492-2.9-.6-3.923a12.4,12.4,0,0,1-.1-1.571l-.043-.282A3.669,3.669,0,0,1,4.784.785C3.59-.286,1.563-.148,0,.525,1.65,4.5,4.118,9.934,5.479,13.415,5.5,13.458,5.515,13.5,5.537,13.552Z" transform="translate(19.355 2.892)" fill="#cff4d2"/>
        <path id="Caminho_2616" data-name="Caminho 2616" d="M15.7,5.435A20.922,20.922,0,0,1,14.911.456H14.8c-1.448.08-3.141.058-4.922,0H8.18C6.458.456,4.9.318,3.78.21,3.266.159,2.854.109,2.55.065L1.449,0C1.2.376.957.724.726,1.144A3.867,3.867,0,0,0,.291,4.762l.065.094q7.187.174,14.359.42A2.562,2.562,0,0,1,15.7,5.435Z" transform="translate(0 34.358)" fill="#cff4d2"/>
        <path id="Caminho_2617" data-name="Caminho 2617" d="M14.034,3.908l.3-.2A20.846,20.846,0,0,1,10.719,0a1.737,1.737,0,0,1-.565.608,1.346,1.346,0,0,1-.405.557c-.926.724-2.229,1.527-3.684,2.482S3.293,5.414,2.323,6a8.683,8.683,0,0,1-1.607.883A9.056,9.056,0,0,1,2.164,5.776c.536-.362,1.187-.811,1.918-1.288C2.678,5.334,1.267,6.181,0,6.955c.239,1.071-.138,2.316.355,3.322a3.214,3.214,0,0,0,2.634,1.505l8.613-6.4A10.589,10.589,0,0,1,14.034,3.908Z" transform="translate(8.39 46.531)" fill="#cff4d2"/>
        <path id="Caminho_2618" data-name="Caminho 2618" d="M3.684,0A20.7,20.7,0,0,1,0,3.337,12.214,12.214,0,0,1,1.064,4.581a1.2,1.2,0,0,1,.116.087,7.717,7.717,0,0,1,1.448,2l1.491,2.54.043.087c.97,1.614,1.94,3.293,2.794,4.755a2.376,2.376,0,0,1,.427-.644c1.505-1.571,4.56-.043,6.152-1.513a2.45,2.45,0,0,0,.405-.507C11.008,8.193,7.1,3.72,4.61,1.107A6.9,6.9,0,0,1,3.684,0ZM4.835,3.431A25.677,25.677,0,0,1,6.63,6.014,27.238,27.238,0,0,1,8.417,8.606a8.946,8.946,0,0,1-2.1-2.374A9.266,9.266,0,0,1,4.835,3.431Z" transform="translate(47.321 47.581)" fill="#cff4d2"/>
        <path id="Caminho_2619" data-name="Caminho 2619" d="M.992,0A20.494,20.494,0,0,1,0,4.343l.564.275,2,1.042a13.212,13.212,0,0,1-1.94-1.2A61.2,61.2,0,0,1,6.738,7.527c1.448.789,2.823,1.534,3.858,2.121l.673.282a2.933,2.933,0,0,1,.145-1c.565-1.628,2.649-2.483,3.366-3.916C10.408,3.416,4.791,1.426.992,0Z" transform="translate(54.921 36.478)" fill="#cff4d2"/>
        <path id="Caminho_2620" data-name="Caminho 2620" d="M0,3.539c.4.311.9.724,1.447,1.115l.2.138c1.194.8,2.815,1.932,4.6,3.2s3.38,2.439,4.531,3.293l.434.333c.724-.521,1.592-.847,2.345-1.3C9.829,7.064,5.435,2.562,2.092,0A20.987,20.987,0,0,1,0,3.539Z" transform="translate(51.975 42.855)" fill="#cff4d2"/>
        <path id="Caminho_2621" data-name="Caminho 2621" d="M12.579,2.316a3.673,3.673,0,0,0-.224-.413A20.468,20.468,0,0,1,8.584,0l-.1.13c-.268.326-.572.673-.9,1.042C6.984,1.9,6.174,2.83,5.24,3.836S3.308,5.826,2.613,6.485a6,6,0,0,1-1.187.992,1.709,1.709,0,0,1,.232-.333C1.064,7.737.507,8.316,0,8.859c.8,1.657,0,4.075,1.361,5.414a2.346,2.346,0,0,0,.847.543C5.1,10.929,9.047,5.9,11.855,2.779A1.2,1.2,0,0,1,12.579,2.316Z" transform="translate(15.83 51.438)" fill="#cff4d2"/>
        <path id="Caminho_2622" data-name="Caminho 2622" d="M.731,2.924a1.715,1.715,0,0,1,.326.948A4.458,4.458,0,0,1,1.2,6.087C1.093,6.963.97,7.9.847,8.888.673,10.2.5,11.421.347,12.507.232,13.889.123,15.25,0,16.48a9.7,9.7,0,0,0,2.5,1.7c1.39.449,2.627-.224,3.858-1.122C6.08,12.42,5.834,6.637,6.022,2.511l.217.507c-.065-.239-.087-.376-.065-.384a7.518,7.518,0,0,1,.688,1.643c.376,1.035.854,2.483,1.332,4.089q.2.673.369,1.3c.507,1.715.948,3.445,1.281,5.066a3.814,3.814,0,0,1,1.628-.333c1.274.036,2.62.8,3.821.955A95.79,95.79,0,0,1,10.227,0,20.525,20.525,0,0,1,.731,2.924Zm2.627,7.867A7.288,7.288,0,0,1,3.2,8.765a7.736,7.736,0,0,1,.036-2.034A7.541,7.541,0,0,1,3.358,10.791Z" transform="translate(35.929 51.713)" fill="#cff4d2"/>
        <path id="Caminho_2623" data-name="Caminho 2623" d="M10.864,1.324a.378.378,0,0,1,.08-.072A20.317,20.317,0,0,1,4.523,0c.051.065.109.138.174.232A1.257,1.257,0,0,0,4.77.369c.42.116.55.724.5,1.18a5.431,5.431,0,0,1-.116.673A6.1,6.1,0,0,1,4.726,4.1,27.658,27.658,0,0,1,3.539,6.7,47.844,47.844,0,0,1,.992,11.2C.565,11.87.217,12.362,0,12.651a3.135,3.135,0,0,1,.767.188c2.019.789,3.112,3.72,5.262,3.467l.2-.036C7.484,12.26,8.743,6.7,10,2.975A4.229,4.229,0,0,1,10.864,1.324Z" transform="translate(23.821 53.4)" fill="#cff4d2"/>
        <path id="Caminho_2624" data-name="Caminho 2624" d="M4.458,13.223q.362-.326.724-.63a3.813,3.813,0,0,1,.955-.941c.572-.405,1.209-.8,1.889-1.216,1.353-.825,2.613-1.505,3.546-1.969.637-.311,1.107-.521,1.353-.608l1.288-.76h0c-1.274-2,.376-5.03-1.122-6.868A2.276,2.276,0,0,0,12.868,0C9.1,2.794,4.234,5.964,0,8.468a20.6,20.6,0,0,1,4.458,4.755Zm.9-8.092A22.176,22.176,0,0,1,8.048,3.467,9.756,9.756,0,0,1,5.566,5.45,10.055,10.055,0,0,1,2.736,6.9,21.948,21.948,0,0,1,5.363,5.131Z" transform="translate(48.096 9.395)" fill="#cff4d2"/>
        <path id="Caminho_2625" data-name="Caminho 2625" d="M0,.717A20.92,20.92,0,0,1,.268,4.039c0,.21,0,.413,0,.615h.34c.608,0,1.209.058,1.817.1h.427c1.245,0,2.96.116,4.856.253,1.773.138,3.38.3,4.589.441.3-1.368,1.99-2.048,2.49-3.373A2.8,2.8,0,0,0,14.642,0C10.219.246,4.241.608.557.724Z" transform="translate(55.782 30.051)" fill="#cff4d2"/>
        <path id="Caminho_2626" data-name="Caminho 2626" d="M7.882,1.628.543,10.856A2.589,2.589,0,0,1,0,11.363a20.265,20.265,0,0,1,4.552,2.454l.1-.13h0a2.172,2.172,0,0,1,.449-.724c.326-.376.724-.818,1.144-1.3,2.171-2.606,4.646-5.24,6.716-7.426a3.133,3.133,0,0,1-1.129-.724C10.922,2.6,10.726,1.064,9.662.362A2.5,2.5,0,0,0,8.526,0a.318.318,0,0,1,0,.08A2.171,2.171,0,0,1,7.882,1.628Z" transform="translate(42.877 3.533)" fill="#cff4d2"/>
        <path id="Caminho_2627" data-name="Caminho 2627" d="M1.889,9.46l.6-.268A9.4,9.4,0,0,1,3.9,8.555c.9-.369,2.171-.847,3.532-1.353S10.082,6.253,11,5.949a6.764,6.764,0,0,1,1.52-.413A2.85,2.85,0,0,1,12,5.819L13.867,5.2c0-1.505.42-3.1-.347-4.386A3.119,3.119,0,0,0,12.8,0C8.852,1.592,3.46,4.1,0,4.82A20.419,20.419,0,0,1,1.889,9.46Z" transform="translate(53.415 19.144)" fill="#cff4d2"/>
      </g>
      <path id="Caminho_2628" data-name="Caminho 2628" d="M1.614.123h0L0,0C.536.036,1.071.08,1.614.123Z" transform="translate(66.407 35.703)" fill="#00e588"/>
      <path id="Caminho_2629" data-name="Caminho 2629" d="M.087.413C.13.586.159.745.188.89L.3.854C.2.593.1.311,0,0A1.552,1.552,0,0,0,.087.413Z" transform="translate(28.685 13.722)" fill="#00e588"/>
      <path id="Caminho_2630" data-name="Caminho 2630" d="M0,0Z" transform="translate(59.756 8.671)" fill="#00e588"/>
      <path id="Caminho_2631" data-name="Caminho 2631" d="M.058.174A.759.759,0,0,1,.1,0L0,.13Z" transform="translate(47.43 17.225)"/>
      <path id="Caminho_2632" data-name="Caminho 2632" d="M.333,1.165a1.882,1.882,0,0,1,.13-.68A2.114,2.114,0,0,1,.724,0Q.34.3,0,.63C.087.8.217.984.333,1.165Z" transform="translate(52.568 21.995)" fill="#00e588"/>
      <path id="Caminho_2633" data-name="Caminho 2633" d="M.673.384v-.1L0,0Z" transform="translate(65.517 46.132)"/>
      <path id="Caminho_2634" data-name="Caminho 2634" d="M1.534,1.115C.963.688.456.311.087,0L0,.109C.246.268.8.622,1.534,1.115Z" transform="translate(51.918 46.4)"/>
      <path id="Caminho_2635" data-name="Caminho 2635" d="M2.591,4.574l.159.3.043-.116C1.94,3.308.97,1.614,0,0,1.028,1.773,1.925,3.394,2.591,4.574Z" transform="translate(51.454 56.88)"/>
      <path id="Caminho_2636" data-name="Caminho 2636" d="M0,.014a2.034,2.034,0,0,1,.724.8.146.146,0,0,0,.051.13A1.715,1.715,0,0,0,.449,0Z" transform="translate(36.241 54.644)" fill="#00e588"/>
      <path id="Caminho_2637" data-name="Caminho 2637" d="M0,0A3.286,3.286,0,0,1,.384,1.4a3.212,3.212,0,0,1,0,.456A5.467,5.467,0,0,0,.5,1.18C.55.717.42.116,0,0Z" transform="translate(28.591 53.776)" fill="#00e588"/>
      <path id="Caminho_2638" data-name="Caminho 2638" d="M1.006,0H.934C.8.2.521.579.123,1.064c-.036.043-.08.1-.123.145C.333.84.637.485.9.167Z" transform="translate(23.423 51.445)"/>
      <path id="Caminho_2639" data-name="Caminho 2639" d="M1.4,0A1.672,1.672,0,0,1,.6.174L0,.087C.427.232.847.369,1.252.492,1.288.326,1.346.2,1.4,0Z" transform="translate(14.456 27.894)"/>
      <path id="Caminho_2640" data-name="Caminho 2640" d="M1.846,1.882A7.012,7.012,0,0,1,.724.782L0,0C.593.8,1.129,1.513,1.563,2.063Z" transform="translate(22.019 15.228)"/>
      <path id="Caminho_2641" data-name="Caminho 2641" d="M0,.557H.065V0A2.65,2.65,0,0,1,0,.557Z" transform="translate(30.219 13.65)"/>
      <path id="Caminho_2642" data-name="Caminho 2642" d="M0,4.089H.275C.239,3.271.232,1.766.275,0L.036,3.807A.945.945,0,0,0,0,4.089Z" transform="translate(35.358 9.438)"/>
      <g id="Grupo_400" data-name="Grupo 400" transform="translate(0.379 0)">
        <path id="Caminho_2643" data-name="Caminho 2643" d="M.138,10.6A1.881,1.881,0,0,0,0,11.32c.376.123.724.253,1.115.4a2.591,2.591,0,0,0,.543-.507L9,1.983A2.171,2.171,0,0,0,9.648.456a.317.317,0,0,0,0-.08C8.323.268,6.8.926,5.479.514A9.849,9.849,0,0,1,4.545.188c-.376,1.136-1,2.9-1.73,4.835A58.953,58.953,0,0,1,.34,11.088a56.742,56.742,0,0,1,2.121-6.2c.724-1.961,1.411-3.7,1.875-4.806A1.118,1.118,0,0,1,4.176,0L4.082.087Q2.1,5.363.138,10.6ZM3.959,7.571A18.521,18.521,0,0,1,6.087,5.045,11.8,11.8,0,0,1,4.256,7.8,12.115,12.115,0,0,1,2,10.234,18.517,18.517,0,0,1,3.959,7.571Z" transform="translate(41.385 3.192)" fill="#7ce495"/>
        <path id="Caminho_2644" data-name="Caminho 2644" d="M3.387,5.3C4.61,3.973,5.732,2.786,6.557,1.94A9.168,9.168,0,0,1,7.954.622a9.926,9.926,0,0,1-1.2,1.5c-.774.89-1.867,2.106-3.083,3.431S1.325,8.07.5,8.909a1.448,1.448,0,0,0-.5.84l.413.318c4.234-2.5,9.1-5.674,12.868-8.468A3.105,3.105,0,0,0,12.1.876h0C10.885.456,9.387.47,8.186,0c-2.07,2.171-4.56,4.82-6.716,7.426C2.027,6.789,2.685,6.065,3.387,5.3Z" transform="translate(47.298 7.78)" fill="#7ce495"/>
        <path id="Caminho_2645" data-name="Caminho 2645" d="M8.152.709a8.2,8.2,0,0,1-1.447.9c-.89.521-2.128,1.23-3.474,2.048S.56,5.153.176,6.08a1.9,1.9,0,0,0-.174.9l.282.492c3.46-.724,8.852-3.228,12.8-4.82-1.2-.963-3-1.339-3.858-2.649L7.957.709C8.072.709,8.145.666,8.152.709ZM5.612,5.052a7.959,7.959,0,0,1-2.092.774A10.134,10.134,0,0,1,7.595,4.039a7.761,7.761,0,0,1-1.983.955Z" transform="translate(52.702 16.531)" fill="#7ce495"/>
        <path id="Caminho_2646" data-name="Caminho 2646" d="M9.228,1.035c-.9.362-2.171.84-3.539,1.353s-2.656.948-3.575,1.245A6.216,6.216,0,0,1,.6,4.046h0L0,4.314A20.854,20.854,0,0,1,.478,6.485h.543C4.7,6.391,10.683,6.029,15.1,5.761a6.322,6.322,0,0,0-.854-1.448,9.724,9.724,0,0,1-2.113-3.119A4.7,4.7,0,0,1,11.978,0L10.111.615Z" transform="translate(54.912 24.318)" fill="#7ce495"/>
        <path id="Caminho_2647" data-name="Caminho 2647" d="M7.534.745,2.692.376a11.707,11.707,0,0,1-2-.232A7.874,7.874,0,0,1,2.28.1C1.672.058,1.071.022.463,0H.123A15.974,15.974,0,0,1,0,1.773C3.8,3.221,9.409,5.189,13.788,6.789a2.171,2.171,0,0,0,.246-.948c.051-1.73-2.034-3.054-1.925-4.726-.543-.043-1.078-.087-1.614-.145Z" transform="translate(55.534 34.719)" fill="#7ce495"/>
        <path id="Caminho_2648" data-name="Caminho 2648" d="M3.38,1.3l-2-1.021L.818,0A19.9,19.9,0,0,1,0,2.012C3.344,4.574,7.737,9.076,11.457,12.333a3.17,3.17,0,0,0,1.151-1.078c.9-1.578-.326-3.5-.5-5.305C10.987,5.392,9.286,4.5,7.39,3.5,5.834,2.663,4.429,1.889,3.38,1.3Z" transform="translate(53.725 40.849)" fill="#7ce495"/>
        <path id="Caminho_2649" data-name="Caminho 2649" d="M7.021,4.589C5.24,3.322,3.633,2.15,2.49,1.3,1.672.68,1.086.232.832,0,.565.347.29.688,0,1.013A6.907,6.907,0,0,0,.9,2.121C3.387,4.733,7.3,9.206,10.227,12.4c.68-1.129.514-2.772,1.332-3.879a2.68,2.68,0,0,1,.369-.391L10.748,7.2C9.691,6.47,8.4,5.573,7.021,4.589Z" transform="translate(50.627 46.574)" fill="#7ce495"/>
        <path id="Caminho_2650" data-name="Caminho 2650" d="M4.893,6.058C4.372,5.16,3.879,4.3,3.445,3.5A8.418,8.418,0,0,0,2.164,1.534a1.375,1.375,0,0,0-1.4-.311c-.34.123-.434.347-.463.319s0-.253.4-.456a1.513,1.513,0,0,1,1.513.159A12.209,12.209,0,0,0,1.151,0C.774.261.391.521,0,.76A92.977,92.977,0,0,0,5.066,16.118a2.171,2.171,0,0,0,1.679-.384c1.288-.984.76-3.054,1.2-4.6l-.29-.463C6.9,9.5,5.935,7.867,4.893,6.058Z" transform="translate(45.814 50.924)" fill="#7ce495"/>
        <path id="Caminho_2651" data-name="Caminho 2651" d="M3.33,10.01a7.8,7.8,0,0,1,.311,1.759,9.193,9.193,0,0,1-.564-1.686l-1.2-4.118C1.419,4.429,1.007,3.033.652,1.853.486,1.267.355.8.283.507L.066,0c-.188,4.125.058,9.908.34,14.548a18.632,18.632,0,0,1,3.481-2.331C3.555,10.6,3.113,8.873,2.606,7.151,2.91,8.251,3.156,9.235,3.33,10.01Z" transform="translate(41.507 54.202)" fill="#7ce495"/>
        <path id="Caminho_2652" data-name="Caminho 2652" d="M6.014,10.972a11.919,11.919,0,0,1-.405,2.084,11.145,11.145,0,0,1,.145-2.121c.138-1.3.355-3.1.615-5.066L6.76,3.076A4.264,4.264,0,0,0,6.666.9,1.947,1.947,0,0,0,5.877,0H4.719a.378.378,0,0,0-.08.072A4.228,4.228,0,0,0,3.778,1.73C2.519,5.457,1.259,11.016,0,15.025,1.491,14.714,2.454,12.9,4,12.8a2.852,2.852,0,0,1,1.889.724c.123-1.23.232-2.591.347-3.973C6.166,10.039,6.087,10.538,6.014,10.972Z" transform="translate(29.653 54.702)" fill="#7ce495"/>
        <path id="Caminho_2653" data-name="Caminho 2653" d="M8.989,6.174c.441-.9.876-1.766,1.2-2.555a5.79,5.79,0,0,0,.478-2.171A3.568,3.568,0,0,0,10.372,0a1.2,1.2,0,0,0-.724.463C6.84,3.583,2.881,8.613,0,12.5c1.592.6,3.778-.42,5.653-.217.174-.318.485-.854.9-1.571C7.2,9.561,8.092,7.969,8.989,6.174Z" transform="translate(17.66 53.768)" fill="#7ce495"/>
        <path id="Caminho_2654" data-name="Caminho 2654" d="M6.087,8.215c.507-.6,1.809-1.954,3.308-3.568C11.023,2.9,12.384,1.411,12.854.977,12.384.666,11.928.34,11.479,0a22.15,22.15,0,0,1-1.8,1.52A10.4,10.4,0,0,1,7.419,3.04,9.568,9.568,0,0,1,9.445,1.223C10.053.753,10.61.347,11.023.072A10.592,10.592,0,0,0,8.577,1.52L0,7.947c1.491.261,3.177.326,4.111,1.447a2.685,2.685,0,0,1,.355.557C4.936,9.387,5.493,8.844,6.087,8.215Z" transform="translate(11.023 50.374)" fill="#7ce495"/>
        <path id="Caminho_2655" data-name="Caminho 2655" d="M11.1,4.287c1.447-.941,2.8-1.759,3.713-2.367a1.179,1.179,0,0,0,.42-.536.723.723,0,0,0,0-.507C15.134.6,14.938.545,14.953.516s.239,0,.413.3a.9.9,0,0,1,.065.622.51.51,0,0,1-.043.123,1.737,1.737,0,0,0,.564-.608C15.72.646,15.488.328,15.264,0A2.568,2.568,0,0,0,14.4.118C10.523,1.138,4.61,3.346,0,5.054c1.448,1.057,4.089.6,5.023,2.229a2.516,2.516,0,0,1,.224.63c1.267-.774,2.678-1.621,4.082-2.468C9.879,5.075,10.444,4.692,11.1,4.287Z" transform="translate(2.75 45.58)" fill="#7ce495"/>
        <path id="Caminho_2656" data-name="Caminho 2656" d="M9.46,3.554l2.482-.666c.767-.2,1.448-.347,2-.55A3.915,3.915,0,0,0,15.51,1.31a1.182,1.182,0,0,1-.268.456,2.641,2.641,0,0,1-.586.492l.311-.109a1.694,1.694,0,0,0,.724-.42c-.13-.376-.253-.724-.362-1.136a2.562,2.562,0,0,0-.97-.174Q7.18.166,0,0C.666,1.129,2.171,1.628,2.765,2.794a3.336,3.336,0,0,1,.166,2.374l3.619-.8C7.4,4.089,8.41,3.836,9.46,3.554Z" transform="translate(0 39.206)" fill="#7ce495"/>
        <path id="Caminho_2657" data-name="Caminho 2657" d="M1.537,6.622a9.762,9.762,0,0,1,1.824,0c1.129.043,2.678.1,4.393.138s3.271.043,4.393.051a10.134,10.134,0,0,1,1.831.072,7.861,7.861,0,0,1-1.824.2c-.724.043-1.679.065-2.714.072a48.4,48.4,0,0,0,4.922,0h.116V5.414l-.1-.065C10.418,2.989,4.729,1.288.017,0A1.715,1.715,0,0,0,1.125,1.853l-.1-.651c1.165.507,1.484,2.077,1.115,3.293A8.685,8.685,0,0,1,1.009,6.666l1.1.065a1.7,1.7,0,0,1-.572-.109ZM11.67,5.6a8.214,8.214,0,0,1,2.381.615A8.3,8.3,0,0,1,11.6,5.978a8.129,8.129,0,0,1-2.374-.615A8.228,8.228,0,0,1,11.67,5.6Z" transform="translate(0.077 27.655)" fill="#7ce495"/>
        <path id="Caminho_2658" data-name="Caminho 2658" d="M.688,5.6a11.578,11.578,0,0,1,1.925.832l1.5.724c1.332.572,2.721,1.151,4.075,1.686a22.339,22.339,0,0,0,3.85,1.021,1.448,1.448,0,0,0,.782-.13.588.588,0,0,0,.1-.087c.145-.427.3-.847.47-1.267-.666-.326-1.679-.876-2.808-1.527A20.726,20.726,0,0,1,7.165,4.683a22.958,22.958,0,0,1,3.619,1.853l1.172.724A123.7,123.7,0,0,0,.528,0C.3,1.361.818,3.1.4,4.509a4,4,0,0,1-.4.854l.868.369C.753,5.667.68,5.609.688,5.6Z" transform="translate(2.656 17.964)" fill="#7ce495"/>
        <path id="Caminho_2659" data-name="Caminho 2659" d="M1.426,5.363A8.747,8.747,0,0,1,2.736,6.55c.789.724,1.889,1.78,3.148,2.852s2.454,1.99,3.329,2.642l.3.224c.253-.347.507-.688.782-1.013l-.043-.072c-.384-.456-.861-1.071-1.368-1.773A12.518,12.518,0,0,1,7.158,6.557,6.872,6.872,0,0,1,8.258,7.9,77.757,77.757,0,0,0,2.468,0,2.67,2.67,0,0,0,.9.847c-.8.977-.507,2.511-.9,3.669.724.666,1.585,1.4,2.468,2.171A7.016,7.016,0,0,1,1.426,5.363Z" transform="translate(8.909 9.778)" fill="#7ce495"/>
        <path id="Caminho_2660" data-name="Caminho 2660" d="M4.256,9.452c1.809,2.287,3.322,4.111,3.286,4.227q.5-.34,1.021-.651A.33.33,0,0,0,8.5,12.89C7.144,9.416,4.676,3.973,3.025,0a7.639,7.639,0,0,0-.767.4C1.049,1.122.651,2.692,0,3.973c.42.55.9,1.194,1.4,1.889S3.033,7.911,4.256,9.452ZM6.123,8.4A13.845,13.845,0,0,1,7.3,10.741a13.519,13.519,0,0,1,1.049,2.4A11.262,11.262,0,0,1,6.123,8.4Z" transform="translate(15.952 3.445)" fill="#7ce495"/>
        <path id="Caminho_2661" data-name="Caminho 2661" d="M.036,4.031A8.525,8.525,0,0,1,.384,5.645c.174.992.413,2.374.724,3.887.261,1.324.514,2.511.724,3.46.1.311.2.593.3.854.384-.13.774-.246,1.18-.355a18.179,18.179,0,0,1-.369-2.4A11.244,11.244,0,0,1,2.7,8.649a6.572,6.572,0,0,1,.622,2.4c.065.478.094.926.109,1.31C3.43,8.62,3.51,3.807,3.5,0A24.348,24.348,0,0,0,1.491,3,2,2,0,0,1,0,3.829l.043.282C.022,4.068.029,4.031.036,4.031Z" transform="translate(26.482 0.731)" fill="#7ce495"/>
        <path id="Caminho_2662" data-name="Caminho 2662" d="M.181,8.663C.145,10.77.08,12.593,0,13.527a8.658,8.658,0,0,1,1.448.08,11.463,11.463,0,0,0,1.592-4C3.677,7.064,4.552,2.982,5.262,0A3.126,3.126,0,0,0,3.981.369C2.866.984,1.513,3.677.811,3.691a.919.919,0,0,1-.651-.347v.3C.181,4.531.181,6.441.181,8.663Z" transform="translate(35.45 0)" fill="#7ce495"/>
      </g>
      <path id="Caminho_2663" data-name="Caminho 2663" d="M1.5,3.264c.919-.3,2.171-.724,3.575-1.245S7.715,1.028,8.613.666l.9-.384c.347-.152.536-.253.521-.282a6.768,6.768,0,0,0-1.52.413c-.919.3-2.171.724-3.568,1.252s-2.634.984-3.532,1.353A9.41,9.41,0,0,0,0,3.655H0A6.219,6.219,0,0,0,1.5,3.264Z" transform="translate(55.905 24.688)" fill="#263238"/>
      <path id="Caminho_2664" data-name="Caminho 2664" d="M2.019.022H1.592A7.877,7.877,0,0,0,0,.065,11.713,11.713,0,0,0,2,.3L6.847.666l2.96.217,1.614.123V.731C10.212.586,8.606.427,6.832.289,4.979.137,3.293.051,2.019.022Z" transform="translate(56.6 34.813)" fill="#263238"/>
      <path id="Caminho_2665" data-name="Caminho 2665" d="M6.116,3.069A61.218,61.218,0,0,0,0,0,13.221,13.221,0,0,0,1.94,1.2c1.049.594,2.454,1.368,4,2.171,1.9,1.013,3.619,1.9,4.719,2.454V5.544L9.988,5.16C8.938,4.6,7.592,3.85,6.116,3.069Z" transform="translate(55.543 40.951)" fill="#263238"/>
      <path id="Caminho_2666" data-name="Caminho 2666" d="M54.434,47.594c-1.78-1.267-3.4-2.4-4.6-3.2l-.2-.138c-.724-.492-1.288-.847-1.563-1.006l.087-.109A20.993,20.993,0,0,0,50.294,39.6a19.932,19.932,0,0,0,.825-2.034,20.493,20.493,0,0,0,.992-4.343c.065-.586.108-1.172.123-1.773v-.615A20,20,0,0,0,49.57,20.714l-.282-.492a1.9,1.9,0,0,1,.174-.9c.384-.926,1.73-1.585,3.054-2.425s2.584-1.527,3.474-2.048a8.2,8.2,0,0,0,1.448-.9.54.54,0,0,0-.2.051,14.672,14.672,0,0,0-1.353.608c-.934.463-2.171,1.144-3.546,1.969-.68.413-1.317.811-1.889,1.216a3.816,3.816,0,0,0-.955.941,2.114,2.114,0,0,0-.261.485,1.879,1.879,0,0,0-.13.68c-.116-.181-.224-.362-.347-.536a20.6,20.6,0,0,0-4.466-4.777l-.412-.318a1.447,1.447,0,0,1,.5-.84c.825-.84,1.947-2.027,3.17-3.358s2.309-2.54,3.083-3.431a9.931,9.931,0,0,0,1.2-1.5,9.172,9.172,0,0,0-1.4,1.317c-.825.847-1.947,2.034-3.17,3.358-.724.767-1.361,1.491-1.94,2.171-.427.478-.818.919-1.143,1.3a2.171,2.171,0,0,0-.449.724h0a.765.765,0,0,0-.043.174l-.058-.043a20.262,20.262,0,0,0-4.552-2.454c-.369-.145-.724-.275-1.115-.4a20.4,20.4,0,0,0-4.48-.9c-.485-.043-.977-.065-1.448-.08.08-.934.145-2.758.181-4.864.043-2.222,0-4.133,0-5.016a3.31,3.31,0,0,0,0-.355L32.149,0c-.094.441-.2,2.707-.253,5.443v4.871h-.275a20.678,20.678,0,0,0-5.066.659H26.49a2.643,2.643,0,0,0,.058-.579c0-.159,0-.333,0-.536a10.065,10.065,0,0,0-.108-1.31,6.572,6.572,0,0,0-.622-2.4,11.251,11.251,0,0,0,.246,2.446,18.163,18.163,0,0,0,.369,2.4c-.405.109-.8.224-1.18.355l-.116.036a2.18,2.18,0,0,0-.1-.478c-.043-.174-.058-.275-.087-.413-.2-.948-.456-2.135-.724-3.46-.289-1.513-.528-2.9-.724-3.887a8.53,8.53,0,0,0-.347-1.614v.08a12.4,12.4,0,0,0,.1,1.571c.109,1.006.3,2.4.6,3.923s.637,2.9.919,3.865c.051.181.094.34.145.492a20.166,20.166,0,0,0-3.749,1.759q-.521.311-1.021.651c0-.116-1.448-1.94-3.286-4.227-1.209-1.52-2.251-2.859-2.852-3.619-.311-.384-.507-.594-.536-.572A6.219,6.219,0,0,0,14.294,6.8c.55.8,1.346,1.882,2.273,3.047.63.789,1.23,1.513,1.759,2.121l.724.782a7.01,7.01,0,0,0,1.122,1.1l-.253.181a20.622,20.622,0,0,0-3.843,3.518c-.333-.492-.782-1.136-1.288-1.838l-.934-1.288a6.869,6.869,0,0,0-1.1-1.346,12.522,12.522,0,0,0,1.723,2.852c.507.724.984,1.317,1.368,1.773l.051.058h0c-.275.326-.528.666-.782,1.013l-.3-.224c-.876-.651-2.063-1.571-3.329-2.642s-2.359-2.1-3.148-2.852a8.746,8.746,0,0,0-1.31-1.187A7.016,7.016,0,0,0,8.1,13.18l.051.058a36.7,36.7,0,0,0,6.514,5.522l.311.2A20.267,20.267,0,0,0,12.8,22.82c-.391-.253-.919-.579-1.534-.948L10.1,21.148A22.959,22.959,0,0,0,6.478,19.3a20.72,20.72,0,0,0,3.416,2.171c1.129.651,2.171,1.2,2.808,1.527-.174.42-.326.84-.47,1.267a.583.583,0,0,1-.1.087,1.447,1.447,0,0,1-.782.13A22.346,22.346,0,0,1,7.5,23.457q-.478-.166-.955-.347c-1.151-.449-2.171-.912-3.119-1.339l-1.5-.724A11.583,11.583,0,0,0,0,20.215a1.109,1.109,0,0,0,.181.138c.268.181.832.507,1.628.934a40.857,40.857,0,0,0,4.6,2.171,21.306,21.306,0,0,0,4.343,1.2l.6.087a1.673,1.673,0,0,0,.8-.174c-.051.166-.1.326-.145.492a20.571,20.571,0,0,0-.789,4.7V31.5A20.925,20.925,0,0,0,12,36.478c.109.384.232.76.362,1.136a20.7,20.7,0,0,0,2.33,4.647c.224.326.456.644.688.955A20.851,20.851,0,0,0,19,46.929l-.3.2c-.413.275-.97.68-1.578,1.151a9.566,9.566,0,0,0-2.026,1.817,10.4,10.4,0,0,0,2.258-1.52,22.122,22.122,0,0,0,1.8-1.52c.449.34.9.666,1.375.977-.47.434-1.831,1.925-3.46,3.669-1.5,1.614-2.8,2.967-3.308,3.568-.166.2-.253.311-.232.333a6,6,0,0,0,1.187-.992c.724-.659,1.629-1.585,2.627-2.649s1.744-1.94,2.338-2.663c.044-.043.087-.1.123-.145.4-.485.68-.861.811-1.064h.072a20.466,20.466,0,0,0,3.771,1.9,3.687,3.687,0,0,1,.224.413,3.568,3.568,0,0,1,.3,1.448,5.79,5.79,0,0,1-.478,2.171c-.326.789-.76,1.657-1.2,2.555-.9,1.8-1.788,3.394-2.439,4.538-.413.724-.724,1.252-.9,1.571h.13c.217-.3.565-.789.991-1.447a47.823,47.823,0,0,0,2.548-4.5c.449-.912.868-1.773,1.187-2.606a6.1,6.1,0,0,0,.427-1.875,3.191,3.191,0,0,0,0-.456,3.284,3.284,0,0,0-.384-1.4,1.251,1.251,0,0,1-.072-.138c-.065-.094-.123-.166-.174-.232a20.316,20.316,0,0,0,6.42,1.252h1.158a1.947,1.947,0,0,1,.731,1.057,4.264,4.264,0,0,1,.094,2.171l-.391,2.794c-.261,1.983-.478,3.778-.615,5.066a11.141,11.141,0,0,0-.145,2.121,11.91,11.91,0,0,0,.405-2.084c.072-.434.152-.934.232-1.448.152-1.057.326-2.28.5-3.619.123-.984.246-1.925.355-2.8a4.458,4.458,0,0,0-.145-2.215.145.145,0,0,0-.051-.13,2.034,2.034,0,0,0-.724-.8h.42a20.525,20.525,0,0,0,9.474-2.967c.391-.239.774-.5,1.151-.76a20.7,20.7,0,0,0,3.684-3.336c.29-.326.565-.666.832-1.013.253.232.84.68,1.657,1.3,1.144.854,2.75,2.027,4.531,3.293,1.382.984,2.671,1.882,3.727,2.613l.869.593.384.253.2-.145-.391-.326C57.814,50.034,56.214,48.868,54.434,47.594Zm-22.77,1.288A18.043,18.043,0,1,1,49.708,30.839,18.043,18.043,0,0,1,31.664,48.883Z" transform="translate(3.809 3.257)" fill="#00da84"/>
      <path id="Caminho_2667" data-name="Caminho 2667" d="M3.583,5.175A27.216,27.216,0,0,0,1.795,2.584,25.654,25.654,0,0,0,0,0,9.269,9.269,0,0,0,1.484,2.8a8.946,8.946,0,0,0,2.1,2.374Z" transform="translate(52.156 51.018)" fill="#263238"/>
      <path id="Caminho_2668" data-name="Caminho 2668" d="M4.989,5.016l-.043-.087L3.455,2.389a7.715,7.715,0,0,0-1.447-2A1.206,1.206,0,0,0,1.891.3,1.513,1.513,0,0,0,.4.116c-.369.2-.413.463-.4.456A.973.973,0,0,1,.466.254a1.375,1.375,0,0,1,1.4.311A8.413,8.413,0,0,1,3.143,2.533c.456.8.948,1.657,1.448,2.555C5.633,6.9,6.6,8.526,7.32,9.7l.29.463a1,1,0,0,1,.1-.3l-.159-.3C6.914,8.41,6.017,6.789,4.989,5.016Z" transform="translate(46.465 51.865)" fill="#263238"/>
      <path id="Caminho_2669" data-name="Caminho 2669" d="M1.657,5.841l1.2,4.118a9.2,9.2,0,0,0,.564,1.686,7.8,7.8,0,0,0-.311-1.759c-.174-.774-.42-1.759-.724-2.852q-.174-.63-.369-1.3C1.542,4.125,1.064,2.678.688,1.643A7.522,7.522,0,0,0,0,0,1.609,1.609,0,0,0,.065.384c.065.239.2.724.369,1.346C.789,2.91,1.2,4.306,1.657,5.841Z" transform="translate(42.103 54.326)" fill="#263238"/>
      <path id="Caminho_2670" data-name="Caminho 2670" d="M.086,0A7.738,7.738,0,0,0,.05,2.034,7.286,7.286,0,0,0,.21,4.06,7.541,7.541,0,0,0,.086,0Z" transform="translate(39.078 58.451)" fill="#263238"/>
      <path id="Caminho_2671" data-name="Caminho 2671" d="M9.4.309c-.174-.326-.42-.318-.412-.3a.624.624,0,0,1,.275.362.723.723,0,0,1,0,.507,1.18,1.18,0,0,1-.42.536c-.912.608-2.273,1.448-3.713,2.367-.622.405-1.216.789-1.766,1.158-.724.478-1.382.926-1.918,1.288A9.056,9.056,0,0,0,0,7.33a8.685,8.685,0,0,0,1.607-.883C2.577,5.86,3.9,5,5.349,4.094S8.106,2.321,9.032,1.612a1.346,1.346,0,0,0,.405-.557A.5.5,0,0,0,9.481.932.9.9,0,0,0,9.4.309Z" transform="translate(9.092 46.091)" fill="#263238"/>
      <path id="Caminho_2672" data-name="Caminho 2672" d="M12.08.456C12.3.2,12.362.007,12.347,0a3.915,3.915,0,0,1-1.563,1.028c-.543.2-1.238.355-2,.55L6.3,2.244c-1.049.282-2.041.557-2.9.811l-1.578.463A9.652,9.652,0,0,0,0,4.154a10.018,10.018,0,0,0,1.9-.384C3.054,3.5,4.654,3.047,6.413,2.606l2.475-.688A19,19,0,0,0,10.9,1.274a4.341,4.341,0,0,0,.608-.326A2.644,2.644,0,0,0,12.08.456Z" transform="translate(3.541 40.516)" fill="#263238"/>
      <path id="Caminho_2673" data-name="Caminho 2673" d="M12.441.3A10.133,10.133,0,0,0,10.61.231c-1.122,0-2.678,0-4.393-.051S2.953.086,1.824.043A9.765,9.765,0,0,0,0,.043a1.694,1.694,0,0,0,.579.13c.3.043.724.094,1.23.145,1.122.109,2.678.21,4.4.246H7.9c1.035,0,1.976,0,2.714-.072A7.862,7.862,0,0,0,12.441.3Z" transform="translate(1.971 34.242)" fill="#263238"/>
      <path id="Caminho_2674" data-name="Caminho 2674" d="M2.374.615A8.3,8.3,0,0,0,4.82.854,15.835,15.835,0,0,0,0,0,8.128,8.128,0,0,0,2.374.615Z" transform="translate(9.657 33.018)" fill="#263238"/>
      <path id="Caminho_2675" data-name="Caminho 2675" d="M2.222,4.733a13.528,13.528,0,0,0-1.049-2.4A13.849,13.849,0,0,0,0,0,11.261,11.261,0,0,0,2.222,4.733Z" transform="translate(22.453 11.826)" fill="#263238"/>
      <path id="Caminho_2676" data-name="Caminho 2676" d="M0,11A58.949,58.949,0,0,0,2.475,4.936C3.2,2.982,3.829,1.238,4.205.1L4,0C3.532,1.107,2.852,2.844,2.121,4.806A56.755,56.755,0,0,0,0,11Z" transform="translate(42.082 3.271)" fill="#263238"/>
      <path id="Caminho_2677" data-name="Caminho 2677" d="M2.251,2.758A11.8,11.8,0,0,0,4.082,0,18.521,18.521,0,0,0,1.954,2.526,18.515,18.515,0,0,0,0,5.189,12.114,12.114,0,0,0,2.251,2.758Z" transform="translate(43.768 8.236)" fill="#263238"/>
      <path id="Caminho_2678" data-name="Caminho 2678" d="M2.83,1.983A9.756,9.756,0,0,0,5.312,0,22.171,22.171,0,0,0,2.627,1.665,21.94,21.94,0,0,0,0,3.416,10.053,10.053,0,0,0,2.83,1.983Z" transform="translate(50.832 12.869)" fill="#263238"/>
      <path id="Caminho_2679" data-name="Caminho 2679" d="M1.94.666A5.913,5.913,0,0,0,0,1.788a7.961,7.961,0,0,0,2.092-.774A7.76,7.76,0,0,0,4.075,0,5.856,5.856,0,0,0,1.94.666Z" transform="translate(56.6 20.512)" fill="#263238"/>
      <ellipse id="Elipse_95" data-name="Elipse 95" cx="18.043" cy="18.043" rx="18.043" ry="18.043" transform="translate(17.43 16.053)" fill="#cff4d2"/>
      <path id="Caminho_2680" data-name="Caminho 2680" d="M.009,0A1.872,1.872,0,0,1,.1.434c.043.333.1.724.174,1.259C.414,2.844.609,4.415.855,6.34c.492,3.916,1.2,9.322,2.063,15.286s1.737,11.349,2.4,15.242c.326,1.911.586,3.474.782,4.61.087.514.152.926.2,1.259a2.7,2.7,0,0,1,.051.441,1.72,1.72,0,0,1-.123-.427c-.072-.326-.159-.724-.275-1.245-.232-1.078-.536-2.649-.9-4.6-.724-3.879-1.636-9.264-2.5-15.2S1.015,10.328.588,6.4C.378,4.437.219,2.844.124,1.744.081,1.223.045.8.023.47A1.855,1.855,0,0,1,.009,0Z" transform="translate(43.962 71.674)" fill="#263238"/>
      <path id="Caminho_2681" data-name="Caminho 2681" d="M.011,0c.1,0,.963,14.721,1.925,32.895S3.6,65.8,3.492,65.8,2.523,51.083,1.56,32.909-.1,0,.011,0Z" transform="translate(33.501 67.903)" fill="#263238"/>
      <path id="Caminho_2682" data-name="Caminho 2682" d="M9.011,0A1.539,1.539,0,0,1,8.96.441c-.058.326-.138.724-.232,1.238C8.5,2.8,8.2,4.343,7.824,6.217c-.811,3.872-1.911,9.134-3.134,14.946s-2.4,11.059-3.242,14.917C1.028,37.947.68,39.481.427,40.6c-.123.492-.217.9-.3,1.216a1.893,1.893,0,0,1-.13.427A1.819,1.819,0,0,1,.058,41.8c.058-.318.13-.724.224-1.238.224-1.115.536-2.656.9-4.538C2,32.157,3.1,26.895,4.321,21.076s2.4-11.059,3.242-14.917c.427-1.867.774-3.4,1.028-4.516.116-.492.217-.9.3-1.216A3.247,3.247,0,0,1,9.011,0Z" transform="translate(18.74 71.088)" fill="#263238"/>
      <path id="Caminho_2683" data-name="Caminho 2683" d="M11.111.47l2.54,5.139a.876.876,0,0,0,.651.478l5.674.818a.869.869,0,0,1,.478,1.448l-4.1,4a.861.861,0,0,0-.246.767l.963,5.653a.861.861,0,0,1-1.252.912l-5.066-2.671a.89.89,0,0,0-.811,0L4.872,19.678a.861.861,0,0,1-1.252-.912l.97-5.653a.868.868,0,0,0-.253-.767l-4.1-4A.869.869,0,0,1,.718,6.9l5.667-.818a.876.876,0,0,0,.651-.478L9.577.47a.861.861,0,0,1,1.534,0Z" transform="translate(25.759 23.494)" fill="#00da84"/>
      <path id="Caminho_2684" data-name="Caminho 2684" d="M2.2,0l.3.984a1.382,1.382,0,0,0,.919.912l.984.311-.992.333a1.4,1.4,0,0,0-.869.861L2.2,4.408,1.817,3.358a1.4,1.4,0,0,0-.869-.84L0,2.207l.934-.318a1.361,1.361,0,0,0,.847-.811Z" transform="translate(40.757 22.364)" fill="#00da84"/>
    </g>
    <g id="Grupo_224" data-name="Grupo 224" transform="matrix(0.951, -0.309, 0.309, 0.951, 93.873, 491.868)">
      <path id="Caminho_1412" data-name="Caminho 1412" d="M58.957,19.06A30.614,30.614,0,1,1,19.145,2.247,30.614,30.614,0,0,1,58.957,19.06Z" transform="matrix(0.921, 0.391, -0.391, 0.921, 23.931, 0)" fill="#7de495"/>
      <path id="Caminho_1413" data-name="Caminho 1413" d="M44.94,14.536A23.33,23.33,0,1,1,14.576,1.721,23.33,23.33,0,0,1,44.94,14.536Z" transform="matrix(0.921, 0.391, -0.391, 0.921, 27.812, 9.536)" fill="#00da84"/>
      <path id="Caminho_1414" data-name="Caminho 1414" d="M45.159,14.657a3.414,3.414,0,0,1-.178-.331l-.493-1-.355-.727c-.145-.266-.323-.541-.509-.848a16.749,16.749,0,0,0-1.357-2.035,22.208,22.208,0,0,0-4.716-4.74A23.25,23.25,0,0,0,29.613,1.13,22.943,22.943,0,0,0,18.978.807,23.669,23.669,0,0,0,5.847,8.648c-.355.428-.67.888-1.018,1.341A12.818,12.818,0,0,0,3.9,11.394a25.3,25.3,0,0,0-1.615,3.044,24.687,24.687,0,0,0-1.1,3.327,22.07,22.07,0,0,0-.678,7.123A22.789,22.789,0,0,0,5.968,38.382a22.409,22.409,0,0,0,5.451,4.643,25.212,25.212,0,0,0,3.1,1.615,27.076,27.076,0,0,0,3.23,1.082,21.569,21.569,0,0,0,6.59.711A23.159,23.159,0,0,0,46.394,26.891a22.039,22.039,0,0,0,.1-6.687,16.53,16.53,0,0,0-.444-2.423c-.081-.347-.137-.67-.218-.953s-.186-.541-.258-.808c-.145-.444-.258-.808-.339-1.058a1.776,1.776,0,0,1-.1-.363,1.849,1.849,0,0,1,.145.347c.1.258.226.6.388,1.042l.283.767c.089.291.162.614.25.961a16.1,16.1,0,0,1,.485,2.423,21.876,21.876,0,0,1,0,6.751,23.635,23.635,0,0,1-22.256,20,26.053,26.053,0,0,1-3.359-.089,25.693,25.693,0,0,1-3.367-.622,26.836,26.836,0,0,1-3.335-1.1,26.2,26.2,0,0,1-3.166-1.615A23.332,23.332,0,0,1,.049,24.953a22.789,22.789,0,0,1,.694-7.268,21.8,21.8,0,0,1,2.762-6.46,10.812,10.812,0,0,1,.953-1.437c.347-.452.67-.921,1.034-1.357A24.376,24.376,0,0,1,7.834,6.008a23.456,23.456,0,0,1,29.9-1.2A21.8,21.8,0,0,1,42.445,9.65a15.141,15.141,0,0,1,1.332,2.075c.178.315.355.59.493.864s.234.517.331.743c.186.428.339.808.444,1.018A2.244,2.244,0,0,1,45.159,14.657Z" transform="matrix(0.921, 0.391, -0.391, 0.921, 27.658, 9.34)" fill="#263238"/>
      <g id="Grupo_222" data-name="Grupo 222" transform="matrix(0.921, 0.391, -0.391, 0.921, 27.768, 9.567)" opacity="0.3">
        <path id="Caminho_93" data-name="Caminho 93" d="M44.9,14.781c-.129.057-.606-.856-1.615-2.366a24.727,24.727,0,0,0-5.152-5.653A23.928,23.928,0,0,0,33.7,3.976a23.063,23.063,0,0,0-5.653-1.857,20.5,20.5,0,0,0-3.23-.38,22.24,22.24,0,0,0-3.351.089,23.114,23.114,0,0,0-3.408.622,25.173,25.173,0,0,0-3.359,1.179,23.889,23.889,0,0,0-3.141,1.7A22.3,22.3,0,0,0,8.8,7.432,21.717,21.717,0,0,0,6.481,9.855,21.127,21.127,0,0,0,4.607,12.48a23.209,23.209,0,0,0-2.423,5.443,24.145,24.145,0,0,0-.929,5.152,25.034,25.034,0,0,0,.694,7.6c.436,1.769.808,2.738.662,2.794s-.662-.808-1.324-2.592A22,22,0,0,1,0,23.026a23.919,23.919,0,0,1,.808-5.5,23.629,23.629,0,0,1,2.423-5.9A22.338,22.338,0,0,1,5.189,8.773a23.419,23.419,0,0,1,5.427-4.926,25.108,25.108,0,0,1,3.376-1.841A25.842,25.842,0,0,1,17.625.746a23.282,23.282,0,0,1,7.268-.7,22.275,22.275,0,0,1,3.424.468,23.418,23.418,0,0,1,6,2.156A23.822,23.822,0,0,1,38.9,5.8a21.561,21.561,0,0,1,4.942,6.242A7.028,7.028,0,0,1,44.9,14.781Z" transform="translate(0 0)"/>
      </g>
      <g id="Grupo_223" data-name="Grupo 223" transform="matrix(0.921, 0.391, -0.391, 0.921, 36.042, 21.163)" opacity="0.3">
        <path id="Caminho_94" data-name="Caminho 94" d="M18.866,27.715l1.615,3.747-3.343,1.413-1.575-3.658c-3.392,1.2-7,1.5-9.448.808l.113-4.845a14.665,14.665,0,0,0,7.494-.363l-2.358-5.58C7.27,19.9,2.6,20.407.583,15.626c-1.494-3.545-.2-7.672,4.845-10.5L3.862,1.413,7.205,0,8.748,3.65A16.417,16.417,0,0,1,16.4,2.843l.065,4.845a14.9,14.9,0,0,0-5.847.42l2.423,5.653c4.038-.7,8.673-1.179,10.668,3.529C25.117,20.786,23.849,24.864,18.866,27.715ZM9.289,14.35l-2-4.748c-1.615,1.147-1.9,2.423-1.429,3.521S7.617,14.5,9.289,14.35ZM18.438,20c-.493-1.171-1.728-1.4-3.384-1.292l1.954,4.619c1.534-1.1,1.882-2.277,1.429-3.351Z" transform="translate(0 0)"/>
      </g>
    </g>
    <g id="Grupo_402" data-name="Grupo 402" transform="matrix(0.966, 0.259, -0.259, 0.966, 277.803, 468.474)">
      <path id="Caminho_1412-2" data-name="Caminho 1412" d="M58.957,19.06A30.614,30.614,0,1,1,19.145,2.247,30.614,30.614,0,0,1,58.957,19.06Z" transform="matrix(0.921, 0.391, -0.391, 0.921, 23.931, 0)" fill="#7de495"/>
      <path id="Caminho_1413-2" data-name="Caminho 1413" d="M44.94,14.536A23.33,23.33,0,1,1,14.576,1.721,23.33,23.33,0,0,1,44.94,14.536Z" transform="matrix(0.921, 0.391, -0.391, 0.921, 27.812, 9.536)" fill="#00da84"/>
      <path id="Caminho_1414-2" data-name="Caminho 1414" d="M45.159,14.657a3.414,3.414,0,0,1-.178-.331l-.493-1-.355-.727c-.145-.266-.323-.541-.509-.848a16.748,16.748,0,0,0-1.357-2.035,22.208,22.208,0,0,0-4.716-4.74A23.25,23.25,0,0,0,29.613,1.13,22.943,22.943,0,0,0,18.978.807,23.669,23.669,0,0,0,5.847,8.648c-.355.428-.67.888-1.018,1.341A12.818,12.818,0,0,0,3.9,11.394a25.3,25.3,0,0,0-1.615,3.044,24.687,24.687,0,0,0-1.1,3.327,22.07,22.07,0,0,0-.678,7.123A22.789,22.789,0,0,0,5.968,38.382a22.409,22.409,0,0,0,5.451,4.643,25.212,25.212,0,0,0,3.1,1.615,27.076,27.076,0,0,0,3.23,1.082,21.569,21.569,0,0,0,6.59.711A23.159,23.159,0,0,0,46.394,26.891a22.039,22.039,0,0,0,.1-6.687,16.53,16.53,0,0,0-.444-2.423c-.081-.347-.137-.67-.218-.953s-.186-.541-.258-.808c-.145-.444-.258-.808-.339-1.058a1.776,1.776,0,0,1-.1-.363,1.849,1.849,0,0,1,.145.347c.1.258.226.6.388,1.042l.283.767c.089.291.162.614.25.961a16.1,16.1,0,0,1,.485,2.423,21.876,21.876,0,0,1,0,6.751,23.635,23.635,0,0,1-22.256,20,26.053,26.053,0,0,1-3.359-.089,25.693,25.693,0,0,1-3.367-.622,26.836,26.836,0,0,1-3.335-1.1,26.2,26.2,0,0,1-3.166-1.615A23.332,23.332,0,0,1,.049,24.953a22.789,22.789,0,0,1,.694-7.268,21.8,21.8,0,0,1,2.762-6.46,10.812,10.812,0,0,1,.953-1.437c.347-.452.67-.921,1.034-1.357A24.376,24.376,0,0,1,7.834,6.008a23.456,23.456,0,0,1,29.9-1.2A21.8,21.8,0,0,1,42.445,9.65a15.141,15.141,0,0,1,1.332,2.075c.178.315.355.59.493.864s.234.517.331.743c.186.428.339.808.444,1.018A2.245,2.245,0,0,1,45.159,14.657Z" transform="matrix(0.921, 0.391, -0.391, 0.921, 27.658, 9.34)" fill="#263238"/>
      <g id="Grupo_222-2" data-name="Grupo 222" transform="matrix(0.921, 0.391, -0.391, 0.921, 27.768, 9.567)" opacity="0.3">
        <path id="Caminho_93-2" data-name="Caminho 93" d="M44.9,14.781c-.129.057-.606-.856-1.615-2.366a24.727,24.727,0,0,0-5.152-5.653A23.929,23.929,0,0,0,33.7,3.976a23.063,23.063,0,0,0-5.653-1.857,20.5,20.5,0,0,0-3.23-.38,22.24,22.24,0,0,0-3.351.089,23.114,23.114,0,0,0-3.408.622,25.173,25.173,0,0,0-3.359,1.179,23.889,23.889,0,0,0-3.141,1.7A22.3,22.3,0,0,0,8.8,7.432,21.717,21.717,0,0,0,6.481,9.855,21.127,21.127,0,0,0,4.607,12.48a23.209,23.209,0,0,0-2.423,5.443,24.145,24.145,0,0,0-.929,5.152,25.034,25.034,0,0,0,.694,7.6c.436,1.769.808,2.738.662,2.794s-.662-.808-1.324-2.592A22,22,0,0,1,0,23.026a23.919,23.919,0,0,1,.808-5.5,23.629,23.629,0,0,1,2.423-5.9A22.338,22.338,0,0,1,5.189,8.773a23.419,23.419,0,0,1,5.427-4.926,25.108,25.108,0,0,1,3.376-1.841A25.842,25.842,0,0,1,17.625.746a23.282,23.282,0,0,1,7.268-.7,22.275,22.275,0,0,1,3.424.468,23.418,23.418,0,0,1,6,2.156A23.822,23.822,0,0,1,38.9,5.8a21.561,21.561,0,0,1,4.942,6.242A7.028,7.028,0,0,1,44.9,14.781Z" transform="translate(0 0)"/>
      </g>
      <g id="Grupo_223-2" data-name="Grupo 223" transform="matrix(0.921, 0.391, -0.391, 0.921, 36.042, 21.163)" opacity="0.3">
        <path id="Caminho_94-2" data-name="Caminho 94" d="M18.866,27.715l1.615,3.747-3.343,1.413-1.575-3.658c-3.392,1.2-7,1.5-9.448.808l.113-4.845a14.665,14.665,0,0,0,7.494-.363l-2.358-5.58C7.27,19.9,2.6,20.407.583,15.626c-1.494-3.545-.2-7.672,4.845-10.5L3.862,1.413,7.205,0,8.748,3.65A16.417,16.417,0,0,1,16.4,2.843l.065,4.845a14.9,14.9,0,0,0-5.847.42l2.423,5.653c4.038-.7,8.673-1.179,10.668,3.529C25.117,20.786,23.849,24.864,18.866,27.715ZM9.289,14.35l-2-4.748c-1.615,1.147-1.9,2.423-1.429,3.521S7.617,14.5,9.289,14.35ZM18.438,20c-.493-1.171-1.728-1.4-3.384-1.292l1.954,4.619c1.534-1.1,1.882-2.277,1.429-3.351Z" transform="translate(0 0)"/>
      </g>
    </g>
    <g id="Grupo_405" data-name="Grupo 405" transform="matrix(0.643, 0.766, -0.766, 0.643, 361.621, 515.35)">
      <path id="Caminho_1412-3" data-name="Caminho 1412" d="M38.559,12.466a20.022,20.022,0,1,1-26.038-11A20.022,20.022,0,0,1,38.559,12.466Z" transform="matrix(0.921, 0.391, -0.391, 0.921, 15.651, 0)" fill="#7de495"/>
      <path id="Caminho_1413-3" data-name="Caminho 1413" d="M29.392,9.507A15.258,15.258,0,1,1,9.533,1.125,15.258,15.258,0,0,1,29.392,9.507Z" transform="matrix(0.921, 0.391, -0.391, 0.921, 18.19, 6.237)" fill="#00da84"/>
      <path id="Caminho_1414-3" data-name="Caminho 1414" d="M29.535,9.586a2.233,2.233,0,0,1-.116-.217L29.1,8.714l-.232-.475c-.1-.174-.211-.354-.333-.555a10.954,10.954,0,0,0-.887-1.331,14.524,14.524,0,0,0-3.084-3.1A15.206,15.206,0,0,0,19.368.739,15.005,15.005,0,0,0,12.412.528,15.48,15.48,0,0,0,3.824,5.656c-.232.28-.438.581-.665.877a8.383,8.383,0,0,0-.607.919A16.547,16.547,0,0,0,1.5,9.443a16.146,16.146,0,0,0-.718,2.176,14.434,14.434,0,0,0-.444,4.658A14.9,14.9,0,0,0,3.9,25.1,14.656,14.656,0,0,0,7.468,28.14,16.489,16.489,0,0,0,9.5,29.2a17.709,17.709,0,0,0,2.113.708,14.107,14.107,0,0,0,4.31.465A15.147,15.147,0,0,0,30.343,17.587a14.414,14.414,0,0,0,.063-4.373,10.811,10.811,0,0,0-.29-1.584c-.053-.227-.09-.438-.143-.623s-.121-.354-.169-.528c-.1-.29-.169-.528-.222-.692a1.161,1.161,0,0,1-.069-.238,1.21,1.21,0,0,1,.1.227c.063.169.148.391.254.681l.185.5c.058.19.106.4.164.629a10.527,10.527,0,0,1,.317,1.584,14.307,14.307,0,0,1,0,4.415A15.458,15.458,0,0,1,15.972,30.67a17.039,17.039,0,0,1-2.2-.058,16.8,16.8,0,0,1-2.2-.407,17.552,17.552,0,0,1-2.181-.718,17.132,17.132,0,0,1-2.07-1.056A15.259,15.259,0,0,1,.032,16.32a14.9,14.9,0,0,1,.454-4.753A14.26,14.26,0,0,1,2.293,7.341a7.071,7.071,0,0,1,.623-.94c.227-.3.438-.6.676-.887A15.942,15.942,0,0,1,5.123,3.929a15.341,15.341,0,0,1,19.558-.787A14.261,14.261,0,0,1,27.76,6.311a9.9,9.9,0,0,1,.871,1.357c.116.206.232.386.322.565s.153.338.217.486c.121.28.222.528.29.665A1.468,1.468,0,0,1,29.535,9.586Z" transform="matrix(0.921, 0.391, -0.391, 0.921, 18.089, 6.109)" fill="#263238"/>
      <g id="Grupo_222-3" data-name="Grupo 222" transform="matrix(0.921, 0.391, -0.391, 0.921, 18.161, 6.257)" opacity="0.3">
        <path id="Caminho_93-3" data-name="Caminho 93" d="M29.363,9.667c-.085.037-.4-.56-1.056-1.547a16.172,16.172,0,0,0-3.37-3.7,15.65,15.65,0,0,0-2.9-1.822,15.084,15.084,0,0,0-3.7-1.215,13.41,13.41,0,0,0-2.113-.248,14.545,14.545,0,0,0-2.192.058,15.117,15.117,0,0,0-2.229.407,16.464,16.464,0,0,0-2.2.771A15.624,15.624,0,0,0,7.555,3.488a14.582,14.582,0,0,0-1.8,1.373A14.2,14.2,0,0,0,4.239,6.446,13.817,13.817,0,0,0,3.013,8.162a15.179,15.179,0,0,0-1.584,3.56,15.792,15.792,0,0,0-.607,3.37,16.373,16.373,0,0,0,.454,4.97,8.223,8.223,0,0,1,.433,1.827c-.1.037-.433-.528-.866-1.7A14.387,14.387,0,0,1,0,15.06a15.644,15.644,0,0,1,.528-3.6A15.454,15.454,0,0,1,2.115,7.6,14.61,14.61,0,0,1,3.394,5.738,15.317,15.317,0,0,1,6.943,2.516a16.421,16.421,0,0,1,2.208-1.2A16.9,16.9,0,0,1,11.527.488,15.227,15.227,0,0,1,16.281.028,14.569,14.569,0,0,1,18.52.335a15.316,15.316,0,0,1,3.924,1.41,15.58,15.58,0,0,1,2.995,2.049,14.1,14.1,0,0,1,3.232,4.083A4.6,4.6,0,0,1,29.363,9.667Z" transform="translate(0 0)"/>
      </g>
      <g id="Grupo_223-3" data-name="Grupo 223" transform="matrix(0.921, 0.391, -0.391, 0.921, 23.573, 13.841)" opacity="0.3">
        <path id="Caminho_94-3" data-name="Caminho 94" d="M12.339,18.126,13.4,20.577l-2.187.924-1.03-2.393A10.972,10.972,0,0,1,4,19.637l.074-3.169a9.591,9.591,0,0,0,4.9-.238l-1.542-3.65c-2.678.433-5.73.766-7.051-2.361C-.6,7.9.249,5.2,3.55,3.354L2.526.924,4.712,0,5.721,2.387a10.737,10.737,0,0,1,5-.528l.042,3.169A9.745,9.745,0,0,0,6.941,5.3L8.526,9c2.641-.459,5.672-.771,6.977,2.308C16.427,13.595,15.6,16.262,12.339,18.126ZM6.075,9.385,4.765,6.28c-1.056.75-1.241,1.584-.935,2.3S4.982,9.486,6.075,9.385Zm5.984,3.7c-.322-.766-1.13-.914-2.213-.845l1.278,3.021c1-.718,1.231-1.489.935-2.192Z" transform="translate(0 0)"/>
      </g>
    </g>
    <g id="Grupo_406" data-name="Grupo 406" transform="translate(53.715 552.2) rotate(-45)">
      <path id="Caminho_1412-4" data-name="Caminho 1412" d="M38.559,12.466a20.022,20.022,0,1,1-26.038-11A20.022,20.022,0,0,1,38.559,12.466Z" transform="matrix(0.921, 0.391, -0.391, 0.921, 15.651, 0)" fill="#7de495"/>
      <path id="Caminho_1413-4" data-name="Caminho 1413" d="M29.392,9.507A15.258,15.258,0,1,1,9.533,1.125,15.258,15.258,0,0,1,29.392,9.507Z" transform="matrix(0.921, 0.391, -0.391, 0.921, 18.19, 6.237)" fill="#00da84"/>
      <path id="Caminho_1414-4" data-name="Caminho 1414" d="M29.535,9.586a2.234,2.234,0,0,1-.116-.217L29.1,8.714l-.232-.475c-.1-.174-.211-.354-.333-.555a10.954,10.954,0,0,0-.887-1.331,14.524,14.524,0,0,0-3.084-3.1A15.206,15.206,0,0,0,19.368.739,15.005,15.005,0,0,0,12.412.528,15.48,15.48,0,0,0,3.824,5.656c-.232.28-.438.581-.665.877a8.383,8.383,0,0,0-.607.919A16.547,16.547,0,0,0,1.5,9.443a16.146,16.146,0,0,0-.718,2.176,14.434,14.434,0,0,0-.444,4.658A14.9,14.9,0,0,0,3.9,25.1,14.656,14.656,0,0,0,7.468,28.14,16.489,16.489,0,0,0,9.5,29.2a17.709,17.709,0,0,0,2.113.708,14.107,14.107,0,0,0,4.31.465A15.147,15.147,0,0,0,30.343,17.587a14.414,14.414,0,0,0,.063-4.373,10.811,10.811,0,0,0-.29-1.584c-.053-.227-.09-.438-.143-.623s-.121-.354-.169-.528c-.1-.29-.169-.528-.222-.692a1.161,1.161,0,0,1-.069-.238,1.21,1.21,0,0,1,.1.227c.063.169.148.391.254.681l.185.5c.058.19.106.4.164.629a10.527,10.527,0,0,1,.317,1.584,14.308,14.308,0,0,1,0,4.415A15.458,15.458,0,0,1,15.972,30.67a17.04,17.04,0,0,1-2.2-.058,16.805,16.805,0,0,1-2.2-.407,17.552,17.552,0,0,1-2.181-.718,17.132,17.132,0,0,1-2.07-1.056A15.259,15.259,0,0,1,.032,16.32a14.9,14.9,0,0,1,.454-4.753A14.26,14.26,0,0,1,2.293,7.341a7.071,7.071,0,0,1,.623-.94c.227-.3.438-.6.676-.887A15.942,15.942,0,0,1,5.123,3.929a15.341,15.341,0,0,1,19.558-.787A14.261,14.261,0,0,1,27.76,6.311a9.9,9.9,0,0,1,.871,1.357c.116.206.232.386.322.565s.153.338.217.486c.121.28.222.528.29.665A1.468,1.468,0,0,1,29.535,9.586Z" transform="matrix(0.921, 0.391, -0.391, 0.921, 18.089, 6.109)" fill="#263238"/>
      <g id="Grupo_222-4" data-name="Grupo 222" transform="matrix(0.921, 0.391, -0.391, 0.921, 18.161, 6.257)" opacity="0.3">
        <path id="Caminho_93-4" data-name="Caminho 93" d="M29.363,9.667c-.085.037-.4-.56-1.056-1.547a16.172,16.172,0,0,0-3.37-3.7,15.65,15.65,0,0,0-2.9-1.822,15.084,15.084,0,0,0-3.7-1.215,13.41,13.41,0,0,0-2.113-.248,14.545,14.545,0,0,0-2.192.058,15.117,15.117,0,0,0-2.229.407,16.464,16.464,0,0,0-2.2.771A15.624,15.624,0,0,0,7.555,3.488a14.582,14.582,0,0,0-1.8,1.373A14.2,14.2,0,0,0,4.239,6.446,13.817,13.817,0,0,0,3.013,8.162a15.179,15.179,0,0,0-1.584,3.56,15.792,15.792,0,0,0-.607,3.37,16.373,16.373,0,0,0,.454,4.97,8.223,8.223,0,0,1,.433,1.827c-.1.037-.433-.528-.866-1.7A14.387,14.387,0,0,1,0,15.06a15.644,15.644,0,0,1,.528-3.6A15.454,15.454,0,0,1,2.115,7.6,14.609,14.609,0,0,1,3.394,5.738,15.317,15.317,0,0,1,6.943,2.516a16.421,16.421,0,0,1,2.208-1.2A16.9,16.9,0,0,1,11.527.488,15.227,15.227,0,0,1,16.281.028,14.569,14.569,0,0,1,18.52.335a15.316,15.316,0,0,1,3.924,1.41,15.58,15.58,0,0,1,2.995,2.049,14.1,14.1,0,0,1,3.232,4.083A4.6,4.6,0,0,1,29.363,9.667Z" transform="translate(0 0)"/>
      </g>
      <g id="Grupo_223-4" data-name="Grupo 223" transform="matrix(0.921, 0.391, -0.391, 0.921, 23.573, 13.841)" opacity="0.3">
        <path id="Caminho_94-4" data-name="Caminho 94" d="M12.339,18.126,13.4,20.577l-2.187.924-1.03-2.393A10.972,10.972,0,0,1,4,19.637l.074-3.169a9.591,9.591,0,0,0,4.9-.238l-1.542-3.65c-2.678.433-5.73.766-7.051-2.361C-.6,7.9.249,5.2,3.55,3.354L2.526.924,4.712,0,5.721,2.387a10.737,10.737,0,0,1,5-.528l.042,3.169A9.745,9.745,0,0,0,6.941,5.3L8.526,9c2.641-.459,5.672-.771,6.977,2.308C16.427,13.595,15.6,16.262,12.339,18.126ZM6.075,9.385,4.765,6.28c-1.056.75-1.241,1.584-.935,2.3S4.982,9.486,6.075,9.385Zm5.984,3.7c-.322-.766-1.13-.914-2.213-.845l1.278,3.021c1-.718,1.231-1.489.935-2.192Z" transform="translate(0 0)"/>
      </g>
    </g>
    <path id="Caminho_1759" data-name="Caminho 1759" d="M8.988,0l1.241,3.977a5.641,5.641,0,0,0,3.7,3.761l4,1.241-4.015,1.373A5.641,5.641,0,0,0,10.4,13.84l-1.41,4.08L7.371,13.6a5.641,5.641,0,0,0-3.526-3.4L0,8.9,3.761,7.625A5.641,5.641,0,0,0,7.2,4.325Z" transform="translate(104.245 539.893) rotate(180)" fill="#359d9e"/>
    <path id="Caminho_2688" data-name="Caminho 2688" d="M8.243,0,9.382,3.647a5.174,5.174,0,0,0,3.4,3.449l3.665,1.138L12.762,9.494a5.174,5.174,0,0,0-3.225,3.2L8.243,16.435,6.76,12.477A5.174,5.174,0,0,0,3.527,9.356L0,8.166,3.449,6.993A5.174,5.174,0,0,0,6.605,3.967Z" transform="translate(208.378 521.973) rotate(180)" fill="#359d9e"/>
    <path id="Caminho_2685" data-name="Caminho 2685" d="M6.267,0l.865,2.773A3.933,3.933,0,0,0,9.715,5.4l2.786.865-2.8.957A3.933,3.933,0,0,0,7.25,9.65l-.983,2.845L5.14,9.486A3.933,3.933,0,0,0,2.681,7.113L0,6.208l2.622-.892a3.933,3.933,0,0,0,2.4-2.3Z" transform="translate(287.671 504.181) rotate(180)" fill="#359d9e"/>
    <path id="Caminho_2689" data-name="Caminho 2689" d="M10.487,0l1.448,4.64a6.582,6.582,0,0,0,4.322,4.388l4.662,1.448-4.684,1.6a6.582,6.582,0,0,0-4.1,4.07l-1.645,4.761L8.6,15.873A6.582,6.582,0,0,0,4.487,11.9L0,10.388,4.388,8.9A6.582,6.582,0,0,0,8.4,5.046Z" transform="translate(336.816 515.35) rotate(180)" fill="#359d9e"/>
    <path id="Caminho_2686" data-name="Caminho 2686" d="M5.065,0l.7,2.241A3.179,3.179,0,0,0,7.852,4.361l2.252.7-2.262.774A3.179,3.179,0,0,0,5.86,7.8l-.795,2.3L4.154,7.667A3.179,3.179,0,0,0,2.167,5.749L0,5.018,2.119,4.3a3.179,3.179,0,0,0,1.939-1.86Z" transform="translate(341.869 557.393) rotate(180)" fill="#359d9e"/>
    <path id="Caminho_2687" data-name="Caminho 2687" d="M6.829,0l.943,3.021a4.286,4.286,0,0,0,2.814,2.857l3.036.943-3.05,1.043A4.286,4.286,0,0,0,7.9,10.515l-1.071,3.1L5.6,10.336A4.286,4.286,0,0,0,2.921,7.75L0,6.764l2.857-.971A4.286,4.286,0,0,0,5.472,3.286Z" transform="translate(169.781 498.493) rotate(180)" fill="#359d9e"/>
  </g>
</svg>
