<svg width="178" height="182" viewBox="0 0 178 182" fill="none" xmlns="http://www.w3.org/2000/svg">
<path d="M177.976 69.9458C177.943 60.0651 177.57 50.1813 175.908 40.4065C174.772 33.7176 172.951 27.2592 169.404 21.4361C163.725 12.0941 155.351 6.59168 145.092 3.81089C136.153 1.3882 126.997 0.718706 117.811 0.472701C108.237 0.21424 98.656 0.1613 89.0755 0.0429688C79.498 0.17687 69.9175 0.220465 60.3431 0.469584C51.4836 0.703133 42.624 1.35396 33.9783 3.58357C18.4497 7.56325 8.2643 17.2135 3.88646 33.0326C1.40579 41.9977 0.657315 51.2058 0.431244 60.4356C-0.0972734 82.1713 -0.256135 103.91 0.629819 125.643C0.91088 132.549 1.65325 139.413 3.21742 146.161C7.18893 163.303 17.4843 174.059 34.3297 178.235C42.8837 180.362 51.5997 181.106 60.3492 181.24C75.6243 181.47 90.9391 181.52 106.232 181.501C117.072 181.501 127.923 181.218 138.64 179.353C145.056 178.235 151.23 176.416 156.842 172.956C166.502 166.996 172.013 158.037 174.714 147.076C176.889 138.257 177.628 129.245 177.747 120.202C177.967 103.455 178.044 86.7032 177.976 69.9458Z" fill="#FF6637"/>
<path d="M96.0756 140.676H82.4227C81.4622 140.676 80.5112 140.483 79.6239 140.109C78.7365 139.734 77.9303 139.185 77.2511 138.493C76.572 137.8 76.0333 136.978 75.6657 136.074C75.2982 135.17 75.109 134.2 75.109 133.221V130.141C75.109 129.15 74.7228 128.2 74.0352 127.499C73.3477 126.798 72.4153 126.405 71.443 126.405H40.1138C38.2584 126.405 36.4789 125.653 35.1669 124.316C33.8549 122.979 33.1178 121.165 33.1178 119.274C33.1178 117.382 33.8549 115.569 35.1669 114.231C36.4789 112.894 38.2584 112.143 40.1138 112.143H67.7983C68.7587 112.143 69.7095 111.95 70.5967 111.575C71.4839 111.2 72.2899 110.651 72.9688 109.959C73.6477 109.267 74.1862 108.445 74.5534 107.54C74.9206 106.636 75.1094 105.667 75.109 104.688V76.8175C75.109 74.8411 74.3388 72.9458 72.9678 71.5483C71.5967 70.1508 69.7373 69.3657 67.7983 69.3657H39.9672C38.1117 69.3657 36.3323 68.6144 35.0203 67.2771C33.7083 65.9397 32.9712 64.1259 32.9712 62.2347C32.9712 60.3434 33.7083 58.5296 35.0203 57.1923C36.3323 55.8549 38.1117 55.1037 39.9672 55.1037H71.4552C72.4275 55.1037 73.36 54.71 74.0475 54.0092C74.735 53.3084 75.1212 52.3579 75.1212 51.3669V48.3307C75.122 46.3541 75.8929 44.4587 77.2644 43.0613C78.6359 41.6639 80.4957 40.879 82.4349 40.879H96.0878C107.846 40.8616 119.215 45.1744 128.101 53.0235C129.889 54.61 131.564 56.325 133.111 58.1554C139.244 65.3882 143.209 74.2645 144.534 83.7281C145.86 93.1917 144.491 102.844 140.589 111.537C136.687 120.231 130.418 127.598 122.527 132.764C114.635 137.93 105.454 140.676 96.0756 140.676Z" fill="white"/>
</svg>
