<svg xmlns="http://www.w3.org/2000/svg" width="203.708" height="66.81" viewBox="0 0 203.708 66.81">
  <g id="Layer_1-2" transform="translate(0 0)">
    <g id="Grupo_1162" data-name="Grupo 1162" transform="translate(0 0)">
      <path id="Caminho_8493" data-name="Caminho 8493" d="M63.266,46.95a18.955,18.955,0,0,0-9.687,2.578,19.938,19.938,0,0,0-7.018,6.665,17.2,17.2,0,0,0-6.885-6.842,20.54,20.54,0,0,0-10-2.4,19.016,19.016,0,0,0-8.441,1.822A16.252,16.252,0,0,0,15.2,53.709V47.49H0V97.072H15.2V70.147q0-4.8,2.532-7.418A9.254,9.254,0,0,1,24.7,60.107a9.254,9.254,0,0,1,6.975,2.622q2.533,2.623,2.532,7.418V92.522H49.316V70.147q0-4.8,2.532-7.418a9.255,9.255,0,0,1,6.975-2.622A9.254,9.254,0,0,1,65.8,62.729q2.533,2.623,2.532,7.418V97.072H83.435V68.105q0-9.953-5.466-15.549t-14.706-5.6Z" transform="translate(0 -31.311)" fill="#fff"/>
      <path id="Caminho_8494" data-name="Caminho 8494" d="M362.4,0V48.07a36.3,36.3,0,0,1-20.486,6.549c-6.5,0-12.371-2.079-15.443-6.862,1.266.09,2.528.18,3.794.18,12.281,0,23.93-5.326,23.93-16.072,0-8.761-7.675-16.075-19.956-16.075-14.267,0-24.563,9.933-24.563,24.833a27.183,27.183,0,0,0,1.446,9.007,37.212,37.212,0,0,1-18.151,4.99c-6.5,0-12.371-2.079-15.443-6.862,1.266.09,2.528.18,3.794.18,12.281,0,23.93-5.326,23.93-16.072,0-8.761-7.675-16.075-19.956-16.075-14.267,0-24.563,9.933-24.563,24.833,0,17.7,14.447,26.188,30.522,26.188a47.466,47.466,0,0,0,26.118-7.751c5.723,5.2,14.024,7.751,22.821,7.751a48.364,48.364,0,0,0,22.2-5.413v4.354h15.2V0h-15.2ZM284.75,27.891c3.611,0,6.592,2.079,6.592,4.967,0,4.244-6.139,6.232-12.641,6.232-1.173,0-2.258-.09-3.431-.18.18-7.855,5.056-11.016,9.48-11.016Zm48.943,0c3.611,0,6.592,2.079,6.592,4.967,0,4.244-6.139,6.232-12.641,6.232-1.172,0-2.258-.09-3.431-.18.18-7.855,5.056-11.016,9.48-11.016Z" transform="translate(-173.881)" fill="#fff"/>
    </g>
  </g>
</svg>
