<svg xmlns="http://www.w3.org/2000/svg" xmlns:xlink="http://www.w3.org/1999/xlink" width="125.069" height="41.019" viewBox="0 0 125.069 41.019">
  <defs>
    <linearGradient id="linear-gradient" x1="0.5" x2="0.5" y2="1" gradientUnits="objectBoundingBox">
      <stop offset="0" stop-color="#7de495"/>
      <stop offset="1" stop-color="#00da84"/>
    </linearGradient>
    <linearGradient id="linear-gradient-2" x1="0.5" y1="0" x2="0.5" y2="1" xlink:href="#linear-gradient"/>
  </defs>
  <g id="Isotipo-meelnutri" transform="translate(113)">
    <g id="Grupo_1163" data-name="Grupo 1163" transform="translate(-113)">
      <path id="Caminho_8495" data-name="Caminho 8495" d="M38.843,46.95A11.637,11.637,0,0,0,32.9,48.533a12.241,12.241,0,0,0-4.309,4.092,10.563,10.563,0,0,0-4.227-4.2,12.611,12.611,0,0,0-6.137-1.472,11.675,11.675,0,0,0-5.182,1.119A9.978,9.978,0,0,0,9.33,51.1V47.281H0V77.723H9.33V61.192a6.285,6.285,0,0,1,1.554-4.554,5.682,5.682,0,0,1,4.282-1.609,5.682,5.682,0,0,1,4.282,1.609A6.288,6.288,0,0,1,21,61.192V74.929h9.275V61.192a6.285,6.285,0,0,1,1.554-4.554,5.682,5.682,0,0,1,4.282-1.609A5.682,5.682,0,0,1,40.4,56.638a6.288,6.288,0,0,1,1.554,4.554V77.723h9.275V59.939q0-6.111-3.356-9.547a12.038,12.038,0,0,0-9.029-3.438Z" transform="translate(0 -37.348)" fill="url(#linear-gradient)"/>
      <path id="Caminho_8496" data-name="Caminho 8496" d="M323.149,0V29.513a22.289,22.289,0,0,1-12.578,4.021c-3.992,0-7.6-1.276-9.481-4.213.777.055,1.552.11,2.329.11,7.54,0,14.692-3.27,14.692-9.868,0-5.379-4.712-9.87-12.252-9.87-8.759,0-15.081,6.1-15.081,15.246a16.687,16.687,0,0,0,.888,5.53,22.847,22.847,0,0,1-11.144,3.064c-3.992,0-7.6-1.276-9.481-4.213.777.055,1.552.11,2.329.11,7.54,0,14.692-3.27,14.692-9.868,0-5.379-4.712-9.87-12.252-9.87-8.759,0-15.081,6.1-15.081,15.246,0,10.868,8.87,16.079,18.739,16.079a29.143,29.143,0,0,0,16.036-4.759c3.513,3.194,8.61,4.759,14.011,4.759A29.694,29.694,0,0,0,323.147,37.7v2.673h9.33V0h-9.33ZM275.477,17.124c2.217,0,4.047,1.276,4.047,3.049,0,2.605-3.769,3.826-7.761,3.826-.72,0-1.387-.055-2.106-.11.111-4.822,3.1-6.763,5.82-6.763Zm30.049,0c2.217,0,4.047,1.276,4.047,3.049,0,2.605-3.769,3.826-7.761,3.826-.72,0-1.387-.055-2.106-.11.11-4.822,3.1-6.763,5.82-6.763Z" transform="translate(-207.408)" fill="url(#linear-gradient-2)"/>
    </g>
  </g>
</svg>
