<svg xmlns="http://www.w3.org/2000/svg" width="123.16" height="70.754" viewBox="0 0 123.16 70.754">
  <g id="Alteres" transform="translate(0.025 0)">
    <path id="Caminho_2518" data-name="Caminho 2518" d="M3.94.094,57.365,0a3.927,3.927,0,0,1,3.916,3.956l-.01,5.689a3.96,3.96,0,0,1-3.93,3.97l-53.426.094A3.927,3.927,0,0,1,0,9.752L.01,4.063A3.96,3.96,0,0,1,3.94.094Z" transform="matrix(0.986, -0.165, 0.165, 0.986, 40.044, 32.166)" fill="#359d9e"/>
    <path id="Caminho_2432" data-name="Caminho 2432" d="M180.236,94.405c2.389,14.295-4.061,27.3-14.334,29.048L150.565,126c-5.268-3.96-6.211-16.9-7.609-25.269-1.29-7.787-5.841-20.6-2.7-26.006,0,0,12.363-2.246,17.057-3.042C167.635,69.933,177.859,80.111,180.236,94.405Z" transform="translate(-57.599 -71.488)" fill="#359d9e"/>
    <path id="Caminho_2433" data-name="Caminho 2433" d="M180.236,94.405c2.389,14.295-4.061,27.3-14.334,29.048L150.565,126c-5.268-3.96-6.211-16.9-7.609-25.269-1.29-7.787-5.841-20.6-2.7-26.006,0,0,12.363-2.246,17.057-3.042C167.635,69.933,177.859,80.111,180.236,94.405Z" transform="translate(-57.6 -71.488)" fill="#277374"/>
    <path id="Caminho_2434" data-name="Caminho 2434" d="M161.915,97.238c2.389,14.295-2.15,26.972-10.082,28.312S135.54,116.4,133.163,102.1,135.3,75.132,143.245,73.78,159.538,82.932,161.915,97.238Z" transform="translate(-58.891 -71.037)" fill="#359d9e"/>
    <path id="Caminho_2435" data-name="Caminho 2435" d="M121.692,105.865c2.389,14.295-4.061,27.3-14.334,29.048l-15.373,2.548c-5.268-3.96-6.211-16.9-7.609-25.269-1.29-7.8-5.841-20.6-2.7-26.006,0,0,12.375-2.258,17.057-3.042C109.031,81.393,119.3,91.571,121.692,105.865Z" transform="translate(-68.992 -69.112)" fill="#359d9e"/>
    <path id="Caminho_2436" data-name="Caminho 2436" d="M121.692,105.865c2.389,14.295-4.061,27.3-14.334,29.048l-15.373,2.548c-5.268-3.96-6.211-16.9-7.609-25.269-1.29-7.8-5.841-20.6-2.7-26.006,0,0,12.375-2.258,17.057-3.042C109.031,81.393,119.3,91.571,121.692,105.865Z" transform="translate(-68.992 -69.112)" fill="#277374"/>
    <path id="Caminho_2519" data-name="Caminho 2519" d="M14.623,0c8.051-.014,14.557,11.722,14.532,26.214S22.582,52.465,14.532,52.479-.025,40.757,0,26.265,6.572.014,14.623,0Z" transform="matrix(0.986, -0.165, 0.165, 0.986, -0.025, 18.997)" fill="#359d9e"/>
    <path id="Caminho_2437" data-name="Caminho 2437" d="M101.01,108.568a.912.912,0,0,1-.1-.29,5.4,5.4,0,0,0-.191-.845c-.155-.761-.43-1.859-.824-3.26-.215-.7-.466-1.461-.741-2.306a20.507,20.507,0,0,0-1.087-2.656,27.937,27.937,0,0,0-3.583-6.037,18.012,18.012,0,0,0-2.807-2.825A10.334,10.334,0,0,0,87.931,88.3a7.012,7.012,0,0,0-4.444.109,8.735,8.735,0,0,0-3.751,2.97,21.038,21.038,0,0,0-3.584,9.876,40.218,40.218,0,0,0,3.715,22.432,20.826,20.826,0,0,0,6.653,8.137,8.481,8.481,0,0,0,4.515,1.557,7,7,0,0,0,4.229-1.364,10.307,10.307,0,0,0,2.879-3.163,18.716,18.716,0,0,0,1.732-3.622,28.724,28.724,0,0,0,1.362-6.858c.131-1.026.1-1.992.155-2.873s0-1.69,0-2.415c-.084-1.461-.167-2.584-.275-3.344l-.1-.869a.951.951,0,0,1,0-.3.986.986,0,0,1,.072.29,6.085,6.085,0,0,0,.143.857c.155.761.275,1.9.406,3.356a21.665,21.665,0,0,0,.1,2.415,13.608,13.608,0,0,1-.119,2.91,27.959,27.959,0,0,1-1.338,6.954,18.81,18.81,0,0,1-1.744,3.815,10.982,10.982,0,0,1-3,3.344,7.637,7.637,0,0,1-4.563,1.485,9.252,9.252,0,0,1-4.778-1.63,21.281,21.281,0,0,1-6.88-8.355A40.376,40.376,0,0,1,75.532,101.2a21.435,21.435,0,0,1,3.81-10.166,9.3,9.3,0,0,1,3.978-3.163,7.615,7.615,0,0,1,4.778-.1A10.861,10.861,0,0,1,92,89.951a19.031,19.031,0,0,1,2.891,2.994,27.757,27.757,0,0,1,3.512,6.133c.442.942.717,1.871,1.039,2.7a22.316,22.316,0,0,1,.693,2.33c.358,1.425.6,2.535.7,3.3l.143.869A1.145,1.145,0,0,1,101.01,108.568Z" transform="translate(-70.038 -68.18)" fill="#1a4c4d"/>
    <path id="Caminho_2438" data-name="Caminho 2438" d="M87.386,109.884l-.86.205.382,1.557-1.194.29-.37-1.557-2.819.7-.275-1.207,1.35-5.288,1.266-.314-1.194,5.01,1.4-.35-.346-1.364,1.195-.278.323,1.388.86-.205Z" transform="translate(-68.67 -64.691)" fill="#1a4c4d"/>
    <path id="Caminho_2439" data-name="Caminho 2439" d="M88.874,108.819l-.37.93.346,1.437-1.194.29L85.78,103.64l1.194-.29,1.063,4.443,1.194-2.7,1.4-.338-1.1,2.813,2.6,2.825-1.409.35Z" transform="translate(-67.984 -64.882)" fill="#1a4c4d"/>
  </g>
</svg>
