<svg xmlns="http://www.w3.org/2000/svg" width="86" height="159.892" viewBox="0 0 86 159.892">
  <g id="Woman" transform="translate(-237 -443.203)">
    <circle id="Elipse_99" data-name="Elipse 99" cx="43" cy="43" r="43" transform="translate(237 459)" fill="#00da84" opacity="0.25"/>
    <path id="Caminho_2525" data-name="Caminho 2525" d="M40.792,3.8S30.526-.055,26.035,9.53s1.692,16.237.38,23.1-13.841,39.886-.559,43.538,28.659-7.73,29.424-16.337,1.7-19.409,1.7-19.409a25.033,25.033,0,0,1,.609-11.484c2.77-8.864,2.189-27.48-6.568-24.855.29-5.4-8.635-5.373-10.227-.279Z" transform="translate(236.304 443.201)" fill="#474763"/>
    <ellipse id="Elipse_76" data-name="Elipse 76" cx="29.983" cy="3.223" rx="29.983" ry="3.223" transform="translate(245.047 596.65)" fill="#462769" opacity="0.31"/>
    <path id="Caminho_2526" data-name="Caminho 2526" d="M35.78,217.545H31.814L24.38,155.67H40.271Z" transform="translate(234.284 374.48)" fill="#c796a3"/>
    <path id="Caminho_2527" data-name="Caminho 2527" d="M31.691,265.116l-1.048,2.969-5.328,2.77a2.116,2.116,0,0,0-1.145,1.882H36.6l-.941-7.622Z" transform="translate(234.377 325.264)" fill="#c796a3"/>
    <path id="Caminho_2528" data-name="Caminho 2528" d="M65.923,216.978l-3.932.508L58.98,155.84H74.843Z" transform="translate(219.009 374.405)" fill="#c796a3"/>
    <path id="Caminho_2529" data-name="Caminho 2529" d="M62.686,265.3l-.866.436-1.977,3.033a5.757,5.757,0,0,0-.933,3.145h8.925l-.056-1.273a5.648,5.648,0,0,0-.424-1.916l-1.4-3.424Z" transform="translate(219.04 326.083)" fill="#c796a3"/>
    <path id="Caminho_2530" data-name="Caminho 2530" d="M20.83,137.593H39.966l.855-24.583H30.079Z" transform="translate(235.851 392.557)" fill="#215273"/>
    <path id="Caminho_2531" data-name="Caminho 2531" d="M56.6,137.593H76.266L66.43,113.01H57.3Z" transform="translate(220.06 392.557)" fill="#215273"/>
    <path id="Caminho_2532" data-name="Caminho 2532" d="M57.478,113.03H39.66v14.41L60.913,129.9Z" transform="translate(227.538 392.548)" fill="#215273"/>
    <path id="Caminho_2533" data-name="Caminho 2533" d="M30.971,86.959,22.85,59.21a4.214,4.214,0,0,1,3.3-4.116l9.188-.894H47.426l9.825.894c1.944.419,2.363.575,2.363,2.564l-7.747,29.4" transform="translate(234.959 419.275)" fill="#c796a3"/>
    <path id="Caminho_2534" data-name="Caminho 2534" d="M48.3,34.16H58.99V45.945a5.349,5.349,0,0,1-5.345,5.345h0A5.349,5.349,0,0,1,48.3,45.945V34.16h0Z" transform="translate(223.724 428.122)" fill="#c796a3"/>
    <path id="Caminho_2535" data-name="Caminho 2535" d="M48.3,45.571c1.91-.323,8.25-1.416,10.69-6.613V34.47l-6.468.422A17.267,17.267,0,0,0,48.3,40.875v4.7Z" transform="translate(223.724 427.985)" fill="#b06175"/>
    <path id="Caminho_2536" data-name="Caminho 2536" d="M39.972,24.854c-1.424,7.615,7.446,9.9,7.446,9.9s7.864-3.87,7.864-9.339-3.178-7.98-7.875-7.98-6.44,2.122-7.434,7.424Z" transform="translate(227.612 435.507)" fill="#c796a3"/>
    <path id="Caminho_2544" data-name="Caminho 2544" d="M68.472,28.489a2.247,2.247,0,1,1-2.893-1.313,2.246,2.246,0,0,1,2.893,1.313Z" transform="translate(216.739 431.268)" fill="#c796a3"/>
    <path id="Caminho_2558" data-name="Caminho 2558" d="M0,4.773S5.221,8.246,7.848,2.161,0,4.773,0,4.773Z" transform="matrix(0.966, 0.259, -0.259, 0.966, 272.265, 463.687)" fill="#c796a3"/>
    <path id="Caminho_2548" data-name="Caminho 2548" d="M20.832,60.01S15.7,79.347,18.14,82.96l5.3,1.4s8.926-17,5.854-21.454l-8.462-2.9Z" transform="translate(237.329 416.71)" fill="#c796a3"/>
    <path id="Caminho_2549" data-name="Caminho 2549" d="M16.224,94.24l-2.134,28.7,6.362-4.468,2.882-21.75Z" transform="translate(238.826 401.599)" fill="#c796a3"/>
    <path id="Caminho_2550" data-name="Caminho 2550" d="M14.014,141.425s-.9,10.2,1.413,9.959,3.508-8.395,4.463-8.769a2.036,2.036,0,0,0,1.156-2.647,18.736,18.736,0,0,0-.7-2.357Z" transform="translate(238.936 382.453)" fill="#c796a3"/>
    <path id="Caminho_2551" data-name="Caminho 2551" d="M81.273,58s5.133,19.337,2.692,22.951l-5.3,1.4s-8.925-17-5.854-21.454Z" transform="translate(213.188 417.597)" fill="#c796a3"/>
    <path id="Caminho_2552" data-name="Caminho 2552" d="M88.426,92.23l2.134,28.692-6.367-4.468L81.31,94.71Z" transform="translate(209.152 402.486)" fill="#c796a3"/>
    <path id="Caminho_2553" data-name="Caminho 2553" d="M92.165,139.415s.9,10.2-1.413,9.959-3.508-8.395-4.463-8.769a2.036,2.036,0,0,1-1.156-2.648,18.734,18.734,0,0,1,.7-2.357Z" transform="translate(207.507 383.34)" fill="#c796a3"/>
    <path id="Caminho_2554" data-name="Caminho 2554" d="M33.715,54.83s-.653,3.541,8.769,3.541,11.042-3.519,11.042-3.519l5.719.519S51.907,65.52,56.76,69.341V82.076H29.331L30.475,69s1.567-.806,1.567-5.548-4.673-8.085-4.673-8.085l6.351-.542Z" transform="translate(232.964 418.997)" fill="#00da84"/>
    <path id="Caminho_2555" data-name="Caminho 2555" d="M33.75,79.79a10.06,10.06,0,0,0,10.713,0s-3.7,4.272-8.125,2.249S33.75,79.79,33.75,79.79Z" transform="translate(232.062 407.319)" fill="#462769" opacity="0.553"/>
    <path id="Caminho_2556" data-name="Caminho 2556" d="M66.533,79.79a10.06,10.06,0,0,1-10.713,0s3.7,4.272,8.125,2.249S66.533,79.79,66.533,79.79Z" transform="translate(220.661 407.319)" fill="#462769" opacity="0.553"/>
    <path id="Caminho_2557" data-name="Caminho 2557" d="M41.6,21.1a11.076,11.076,0,0,0,5.7-2.022,9.878,9.878,0,0,1,.123,1.676,7.191,7.191,0,0,0,4.407-1.72A2.242,2.242,0,0,1,51.4,21.01s2.145,1.318,3.39.112-1.625-3.407-1.625-3.407-6.133-1.558-9.316-.5A3.053,3.053,0,0,0,41.6,21.1Z" transform="translate(226.74 435.764)" fill="#474763"/>
  </g>
</svg>
