<svg width="22" height="19" viewBox="0 0 22 19" fill="none" xmlns="http://www.w3.org/2000/svg">
<path d="M15.5558 0.249948C14.5721 0.26596 13.6099 0.540864 12.7662 1.04698C11.9225 1.5531 11.227 2.27257 10.7498 3.13295C10.2727 2.27143 9.57672 1.55098 8.73223 1.04428C7.88773 0.537587 6.92455 0.262561 5.93983 0.246948C4.36945 0.315311 2.89 1.00261 1.8249 2.1586C0.759793 3.31458 0.195663 4.84524 0.255827 6.41595C0.255827 10.3929 4.44183 14.7359 7.95583 17.6799C8.73982 18.3394 9.73139 18.7009 10.7558 18.7009C11.7803 18.7009 12.7718 18.3394 13.5558 17.6799C17.0658 14.7349 21.2558 10.3919 21.2558 6.41595C21.3151 4.84309 20.7484 3.31087 19.68 2.15508C18.6115 0.999294 17.1285 0.314205 15.5558 0.249948ZM12.4248 16.3419C11.956 16.7368 11.3628 16.9534 10.7498 16.9534C10.1369 16.9534 9.54363 16.7368 9.07483 16.3419C4.58183 12.5719 2.00383 8.95495 2.00383 6.41595C1.94448 5.30936 2.32488 4.22417 3.06213 3.39681C3.79938 2.56946 4.83374 2.06701 5.93983 1.99895C7.04591 2.06701 8.08027 2.56946 8.81752 3.39681C9.55478 4.22417 9.93517 5.30936 9.87583 6.41595C9.8835 6.64276 9.97899 6.85772 10.1422 7.01546C10.3053 7.1732 10.5234 7.26137 10.7503 7.26137C10.9773 7.26137 11.1953 7.1732 11.3585 7.01546C11.5217 6.85772 11.6172 6.64276 11.6248 6.41595C11.5654 5.31018 11.9452 4.2257 12.6813 3.39849C13.4175 2.57127 14.4506 2.06828 15.5558 1.99895C16.6626 2.066 17.698 2.56801 18.4361 3.39548C19.1742 4.22294 19.5551 5.30871 19.4958 6.41595C19.4958 8.95495 16.9188 12.5719 12.4248 16.3389V16.3419Z" fill="#474763" stroke="#474763" stroke-width="0.5"/>
</svg>
