<svg xmlns="http://www.w3.org/2000/svg" width="20" height="20" viewBox="0 0 20 20">
  <path id="Icon-Medidas-Verde" d="M16.25,10.833H9.167V3.75A3.755,3.755,0,0,0,5.417,0H3.75A3.755,3.755,0,0,0,0,3.75V15.417A4.589,4.589,0,0,0,4.583,20H16.25A3.755,3.755,0,0,0,20,16.25V14.583A3.755,3.755,0,0,0,16.25,10.833ZM17.5,16.25a1.252,1.252,0,0,1-1.25,1.25H4.583A2.086,2.086,0,0,1,2.5,15.417V3.75A1.252,1.252,0,0,1,3.75,2.5H5.417a1.252,1.252,0,0,1,1.25,1.25v.417H5.417a1.25,1.25,0,0,0,0,2.5h1.25V8.333H5.417a1.25,1.25,0,1,0,0,2.5h1.25v1.25a1.25,1.25,0,0,0,1.25,1.25h1.25v1.25a1.25,1.25,0,1,0,2.5,0v-1.25h1.667v1.25a1.25,1.25,0,0,0,2.5,0v-1.25h.417a1.252,1.252,0,0,1,1.25,1.25Z" fill="#474763"/>
</svg>
