<svg xmlns="http://www.w3.org/2000/svg" width="24.675" height="24.687" viewBox="0 0 24.675 24.687">
  <path id="Icon-escala-preto" d="M19.02,2.057H16.938A6.083,6.083,0,0,0,11.118.119a5.924,5.924,0,0,0-3.3,1.938H5.141C2.159,2.057,0,4.435,0,7.711V19.02a5.662,5.662,0,0,0,5.655,5.655H19.02a5.662,5.662,0,0,0,5.655-5.655V7.711A5.662,5.662,0,0,0,19.02,2.057ZM21.59,19.02a2.57,2.57,0,0,1-2.57,2.57H5.655a2.57,2.57,0,0,1-2.57-2.57V7.711c0-.429.1-2.57,2.056-2.57H6.307a6.672,6.672,0,0,0-.125,1.248A2.862,2.862,0,0,0,8.958,9.245L11.565,4.8a1.544,1.544,0,1,1,2.57,1.711L12.662,9.253h2.994a2.776,2.776,0,0,0,2.863-3.084c0,.016-.038-.682-.095-1.028h.6a2.57,2.57,0,0,1,2.57,2.57Z" transform="translate(0 0.011)" fill="#474763"/>
</svg>
