<svg xmlns="http://www.w3.org/2000/svg" width="17.55" height="17.555" viewBox="0 0 17.55 17.555">
  <g id="Icon-Meelcoin" transform="translate(-214.732 -75.964)">
    <path id="Borda" d="M16.9,5.463A8.775,8.775,0,1,1,5.487.644,8.775,8.775,0,0,1,16.9,5.463Z" transform="translate(214.732 75.964)" fill="#afe33a"/>
    <path id="Base-amarela" d="M12.881,4.167A6.687,6.687,0,1,1,4.178.493,6.687,6.687,0,0,1,12.881,4.167Z" transform="translate(216.826 78.048)" fill="#f4f419"/>
    <path id="Sombra" d="M12.868,4.237c-.037.016-.174-.245-.463-.678a7.087,7.087,0,0,0-1.477-1.62,6.858,6.858,0,0,0-1.271-.8A6.611,6.611,0,0,0,8.038.607,5.877,5.877,0,0,0,7.112.5a6.375,6.375,0,0,0-.961.025A6.625,6.625,0,0,0,5.174.7a7.215,7.215,0,0,0-.963.338,6.847,6.847,0,0,0-.9.488,6.391,6.391,0,0,0-.789.6,6.225,6.225,0,0,0-.664.694,6.055,6.055,0,0,0-.537.752,6.652,6.652,0,0,0-.694,1.56A6.921,6.921,0,0,0,.36,6.614a7.175,7.175,0,0,0,.2,2.178,3.6,3.6,0,0,1,.19.8c-.042.016-.19-.231-.38-.743A6.305,6.305,0,0,1,0,6.6,6.856,6.856,0,0,1,.233,5.024,6.773,6.773,0,0,1,.927,3.332a6.4,6.4,0,0,1,.56-.817A6.713,6.713,0,0,1,3.043,1.1,7.2,7.2,0,0,1,4.01.575,7.407,7.407,0,0,1,5.052.214a6.673,6.673,0,0,1,2.083-.2,6.385,6.385,0,0,1,.981.134,6.712,6.712,0,0,1,1.72.618,6.828,6.828,0,0,1,1.312.9,6.18,6.18,0,0,1,1.417,1.789A2.014,2.014,0,0,1,12.868,4.237Z" transform="matrix(0.921, 0.391, -0.391, 0.921, 219.959, 75.975)" fill="#b88a5c"/>
    <path id="Cifrao" d="M5.408,7.944l.463,1.074-.958.405L4.461,8.374a4.808,4.808,0,0,1-2.708.231l.032-1.389a4.2,4.2,0,0,0,2.148-.1l-.676-1.6C2.084,5.7.746,5.849.167,4.479-.261,3.463.109,2.28,1.556,1.47L1.107.405,2.065,0l.442,1.046A4.706,4.706,0,0,1,4.7.815L4.718,2.2a4.271,4.271,0,0,0-1.676.12l.694,1.62c1.157-.2,2.486-.338,3.058,1.012C7.2,5.958,6.836,7.127,5.408,7.944ZM2.662,4.113,2.088,2.752c-.463.329-.544.694-.41,1.009S2.183,4.157,2.662,4.113Zm2.623,1.62c-.141-.336-.5-.4-.97-.37l.56,1.324c.44-.315.539-.653.41-.961Z" transform="matrix(0.921, 0.391, -0.391, 0.921, 222.331, 79.299)" fill="#a47240"/>
  </g>
</svg>
