<svg id="Icone_Torradeira_Escuro" data-name="Icone Torradeira Escuro" xmlns="http://www.w3.org/2000/svg" width="17.2" height="20.386" viewBox="0 0 17.2 20.386">
  <path id="Caminho_190" data-name="Caminho 190" d="M0,17.161V8.242a.941.941,0,0,0,.037-.133A2.123,2.123,0,0,1,1.869,6.291c.266-.034.536-.037.814-.056,0-.461,0-.911-.005-1.361a.3.3,0,0,0-.112-.188A2.524,2.524,0,0,1,1.9,3.831,3.05,3.05,0,0,1,1.71,2.51,2.328,2.328,0,0,1,3.194.252,5.757,5.757,0,0,1,4.021,0h9.2a1.059,1.059,0,0,0,.128.04,2.648,2.648,0,0,1,1.8,1.131,2.721,2.721,0,0,1,.379,1.635,2.338,2.338,0,0,1-.872,1.879c-.048.039-.111.1-.112.149-.009.468-.005.937-.005,1.4.313.02.6.021.892.06a2.061,2.061,0,0,1,1.733,1.879q.01,4.467-.007,8.935a1.211,1.211,0,0,1-.223.618,1.046,1.046,0,0,1-.963.4q-7.373-.007-14.745,0c-.073,0-.146,0-.219-.005a1,1,0,0,1-.9-.62A2.421,2.421,0,0,1,0,17.16Zm15.07-1.174V8.38H2.143v7.606ZM12.438,6.248V6.016c0-.571,0-1.142,0-1.712a1.731,1.731,0,0,1,.049-.433,1.059,1.059,0,0,1,.615-.686.564.564,0,0,0,.3-.28c.144-.555-.055-.793-.622-.8H4.52a1.211,1.211,0,0,0-.3.009c-.124.032-.321.074-.342.152a1.824,1.824,0,0,0-.047.678c.01.087.156.186.26.232a1.06,1.06,0,0,1,.685,1.061c0,.6,0,1.194,0,1.792v.217h7.66Z" fill="#474763"/>
  <path id="Caminho_191" data-name="Caminho 191" d="M4.705,461.683a1.3,1.3,0,0,0-.131-.07,1.054,1.054,0,0,1-.657-1.128,1,1,0,0,1,.96-.871c.661-.022,1.324-.024,1.985,0a.985.985,0,0,1,.966.948,1.04,1.04,0,0,1-.709,1.074c-.036.013-.07.031-.1.047Z" transform="translate(-3.75 -441.297)" fill="#474763"/>
  <path id="Caminho_192" data-name="Caminho 192" d="M333.821,461.744a1.124,1.124,0,0,1-.809-.817,1.016,1.016,0,0,1,.9-1.248c.681-.026,1.364-.023,2.045,0a.974.974,0,0,1,.936.843.794.794,0,0,0,.037.11v.159c-.019.068-.038.137-.057.206a1.119,1.119,0,0,1-.779.75h-2.27Z" transform="translate(-319.726 -441.358)" fill="#474763"/>
  <path id="Caminho_193" data-name="Caminho 193" d="M227.441,76.212a4.218,4.218,0,0,1-.047.493,1.016,1.016,0,0,1-1.069.817,1,1,0,0,1-.973-.905,3.481,3.481,0,0,1,.032-.968,1,1,0,0,1,1.15-.751,1.043,1.043,0,0,1,.889.975c.008.112,0,.225,0,.338Z" transform="translate(-216.361 -71.909)" fill="#474763"/>
  <path id="Caminho_194" data-name="Caminho 194" d="M152.68,75.979a4.348,4.348,0,0,1,.216-.767,1.008,1.008,0,0,1,1.1-.5,1,1,0,0,1,.81.866,4.01,4.01,0,0,1,0,.849,1,1,0,0,1-1.067.9,1.07,1.07,0,0,1-1-1c-.008-.112,0-.225,0-.338l-.057-.015Z" transform="translate(-146.601 -71.719)" fill="#474763"/>
</svg>
