<svg id="Icone_Jantar_Escuro" data-name="Icone Jantar Escuro" xmlns="http://www.w3.org/2000/svg" width="20.306" height="20.386" viewBox="0 0 20.306 20.386">
  <path id="Caminho_186" data-name="Caminho 186" d="M-.01,185.35a4.943,4.943,0,0,1,.219-.59,3.254,3.254,0,0,1,1.576-1.4.452.452,0,0,0,.264-.309,8.419,8.419,0,0,1,5.011-5.576,9.089,9.089,0,0,1,.978-.321.264.264,0,0,0,.209-.2A2.014,2.014,0,0,1,9.76,175.5a1.976,1.976,0,0,1,2.29,1.342.419.419,0,0,0,.338.343,8.265,8.265,0,0,1,5.876,5.822.7.7,0,0,0,.307.407,4.528,4.528,0,0,1,1.495,1.458,5.262,5.262,0,0,1,.231.515v.557c-.012.014-.032.027-.035.043a1.928,1.928,0,0,1-.725,1.107,5.01,5.01,0,0,1-1.71.863,20.306,20.306,0,0,1-5.022.814c-.4.023-.792.053-1.188.08H8.63a1.751,1.751,0,0,0-.191-.036c-1.12-.095-2.242-.164-3.358-.288a11.6,11.6,0,0,1-3.237-.8A2.787,2.787,0,0,1-.01,185.948v-.6Zm4.031-1.56a32.1,32.1,0,0,0,12.281,0,6.317,6.317,0,0,0-12.281,0Zm13.166,2.336a.375.375,0,0,0-.472-.223c-.249.064-.507.091-.762.134a33.319,33.319,0,0,1-4.089.421,32.993,32.993,0,0,1-5.225-.154c-.94-.108-1.877-.24-2.813-.377-.208-.03-.364-.03-.442.247a36.28,36.28,0,0,0,13.8-.047Z" transform="translate(0.01 -168.468)" fill="#474763"/>
  <path id="Caminho_187" data-name="Caminho 187" d="M213.1,0a1.157,1.157,0,0,1,.746.658,1,1,0,0,1-.195,1.074,1.02,1.02,0,0,0-.264,1.06,1.519,1.519,0,0,0,.333.506,2.136,2.136,0,0,1-.212,3.051,1.038,1.038,0,0,1-1.455-1.456c.04-.052.079-.1.1-.131a10.289,10.289,0,0,1-.621-.986A3.04,3.04,0,0,1,212.1.355a2.876,2.876,0,0,1,.56-.354h.438Z" transform="translate(-202.829)" fill="#474763"/>
  <path id="Caminho_188" data-name="Caminho 188" d="M315.428,57.146a.949.949,0,0,1,.248-.673.154.154,0,0,0,0-.249,3.025,3.025,0,0,1-.829-2.384,2.925,2.925,0,0,1,.906-1.934,1.026,1.026,0,0,1,1.436,0,1.008,1.008,0,0,1,.07,1.416,1.111,1.111,0,0,0,.051,1.608,2.11,2.11,0,0,1-.125,2.966,1.041,1.041,0,0,1-1.755-.751Z" transform="translate(-302.299 -49.558)" fill="#474763"/>
  <path id="Caminho_189" data-name="Caminho 189" d="M116.647,52.755a.936.936,0,0,1-.264.595,1.031,1.031,0,0,0-.257,1.081,1.279,1.279,0,0,0,.284.444,2.131,2.131,0,0,1-.063,3,1.036,1.036,0,0,1-1.437.036A1.02,1.02,0,0,1,114.8,56.5c.106-.132.078-.2-.02-.313a3.082,3.082,0,0,1,.034-4.2,1.055,1.055,0,0,1,1.175-.3,1.088,1.088,0,0,1,.657,1.068Z" transform="translate(-109.432 -49.56)" fill="#474763"/>
</svg>
