<svg xmlns="http://www.w3.org/2000/svg" width="86" height="158.605" viewBox="0 0 86 158.605">
  <g id="Moco" transform="translate(-237 -444.491)">
    <circle id="Elipse_100" data-name="Elipse 100" cx="43" cy="43" r="43" transform="translate(237 459)" fill="#00da84" opacity="0.25"/>
    <g id="OBJECTS" transform="translate(241.269 444.491)">
      <ellipse id="Elipse_49" data-name="Elipse 49" cx="30.162" cy="3.242" rx="30.162" ry="3.242" transform="translate(5.704 152.12)" fill="#462769" opacity="0.31"/>
      <path id="Caminho_1876" data-name="Caminho 1876" d="M76.5,11.438c.534.2,1.09.629,1.056,1.2a1.559,1.559,0,0,1,1.691.809A2.372,2.372,0,0,1,79.3,15.4a5.368,5.368,0,0,1-1.124,1.663,3.2,3.2,0,0,1,.478.292,2.1,2.1,0,0,1,.056,2.877,5.572,5.572,0,0,1-2.753,1.545,1.847,1.847,0,0,1,.657,2.585,3.9,3.9,0,0,1-2.478,1.6A9.475,9.475,0,0,1,64.5,22.681a3.056,3.056,0,0,1-.618-1.141c-.27-1.129.551-2.219,1.438-2.967a2.044,2.044,0,0,1-.955-2.141c.219-1.86,1.86-3.253,3.59-3.956a4.088,4.088,0,0,1,1.9-.376,1.928,1.928,0,0,1,1.585,1c-.135-.287.416-.916.59-1.073a2.848,2.848,0,0,1,1.292-.528,4.653,4.653,0,0,1,3.169-.051Z" transform="translate(-27.962 -4.892)" fill="#474763"/>
      <path id="Caminho_1877" data-name="Caminho 1877" d="M62.251,13.067a.39.39,0,0,1,.084-.051c.489-.169,4.49-1.59,3.079-3a2.975,2.975,0,0,0-2.079-1.079.271.271,0,0,1-.258-.354c.494-1.467,1.871-6.2-.652-7.046a4.025,4.025,0,0,0-4.321.809.269.269,0,0,1-.365.022C56.963,1.75,54.092-.391,51.957.036c-1.832.365-2.315,1.27-2.444,1.725a.263.263,0,0,1-.32.191c-.775-.191-2.989-.556-4.209,1.073a2.62,2.62,0,0,0-.292,3.1.27.27,0,0,1-.219.41C43.1,6.6,39.4,6.981,39,9.01c-.365,1.815,1.916,2.838,3.186,3.259a.266.266,0,0,1,.034.494,1.87,1.87,0,0,0-1.225,2.225c.5,1.995,1.95,3.287,9.451,2.641A21.508,21.508,0,0,0,62.256,13.05Z" transform="translate(-17.068 0.019)" fill="#474763"/>
      <path id="Caminho_1878" data-name="Caminho 1878" d="M19.422,58.81S8.167,77.527,9.628,82.055l5.136,3.079S29.283,70.025,27.417,64.418l-8-5.608Z" transform="translate(-4.16 -25.754)" fill="#ffc0d1"/>
      <path id="Caminho_1879" data-name="Caminho 1879" d="M49.659,222.265H45.675l-4-52.975h12.5Z" transform="translate(-18.26 -74.156)" fill="#ffc0d1"/>
      <path id="Caminho_1880" data-name="Caminho 1880" d="M42.871,263.61l-1.079,1.3-5.36,2.787a2.129,2.129,0,0,0-1.152,1.894h12.5l-.916-5.984H42.877Z" transform="translate(-15.456 -115.479)" fill="#ffc0d1"/>
      <path id="Caminho_1881" data-name="Caminho 1881" d="M77.019,221.517l-3.956.517L69.99,169.07H83.279Z" transform="translate(-30.662 -74.06)" fill="#ffc0d1"/>
      <path id="Caminho_1882" data-name="Caminho 1882" d="M73.8,262.41l-.871.438L70.938,265.9A5.792,5.792,0,0,0,70,269.063h8.979l-.056-1.281a5.682,5.682,0,0,0-.427-1.927l-1.41-3.444H73.8Z" transform="translate(-30.667 -114.953)" fill="#ffc0d1"/>
      <path id="Caminho_1883" data-name="Caminho 1883" d="M39.5,143.523H54.26l.86-33.393H38.96Z" transform="translate(-17.068 -48.238)" fill="#00da84"/>
      <path id="Caminho_1884" data-name="Caminho 1884" d="M67.69,143.523H84.7l-.7-33.393H68.4Z" transform="translate(-29.655 -48.238)" fill="#00da84"/>
      <path id="Caminho_1885" data-name="Caminho 1885" d="M72.14,110.15H50.76v14.5l21.38,2.472Z" transform="translate(-22.238 -48.247)" fill="#00da84"/>
      <path id="Caminho_1886" data-name="Caminho 1886" d="M58.671,86.177H37.813c-1.635,0-6.647-.686-6.647-2.326L22.94,59.162c0-1.989,2.326-4.888,4.265-5.327L42.19,50.16H54.355l14.407,3.7A4.244,4.244,0,0,1,72.117,58l-7,26.145c0,1.635-4.8,2.023-6.434,2.023Z" transform="translate(-10.049 -21.965)" fill="#ffc0d1"/>
      <path id="Caminho_1887" data-name="Caminho 1887" d="M59.39,30.14H70.145V42a5.381,5.381,0,0,1-5.377,5.377h0A5.381,5.381,0,0,1,59.39,42V30.14h0Z" transform="translate(-26.018 -13.194)" fill="#ffc0d1"/>
      <path id="Caminho_1888" data-name="Caminho 1888" d="M59.39,42.43c1.922-.348,8.3-1.528,10.755-7.136V30.45l-6.507.455a18.594,18.594,0,0,0-4.248,6.456Z" transform="translate(-26.018 -13.33)" fill="#fb8ba7"/>
      <path id="Caminho_1889" data-name="Caminho 1889" d="M51.121,18.974c-1.433,7.158.68,11.058,7.85,11.058,4.725,0,7.552-5.4,7.552-10.541S63.7,10.18,58.97,10.18,52.121,13.984,51.121,18.974Z" transform="translate(-22.21 -4.449)" fill="#ffc0d1"/>
      <path id="Caminho_1897" data-name="Caminho 1897" d="M79.588,24.478a2.26,2.26,0,1,1-2.911-1.32A2.26,2.26,0,0,1,79.588,24.478Z" transform="translate(-32.95 -10.071)" fill="#ffc0d1"/>
      <path id="Caminho_1900" data-name="Caminho 1900" d="M12.774,87.13s12.991,15.008,13.62,16.593.753,3.124.376,6.018-.539,7.726-1.18,7.8-.365-4.619-2.427-7.344S9.026,101.076,8.728,95.7s4.051-8.569,4.051-8.569Z" transform="translate(-3.816 -38.161)" fill="#ffc0d1"/>
      <path id="Caminho_1901" data-name="Caminho 1901" d="M101.279,58.826s12.89,17.834,11.811,22.493l-4.9,3.506S92.323,70.873,93.722,65.1l7.557-6.282Z" transform="translate(-41.021 -25.759)" fill="#ffc0d1"/>
      <path id="Caminho_1902" data-name="Caminho 1902" d="M111.533,84.59s-13.289,15.16-14.07,16.671-1.056,3.034-.966,5.956-.23,7.743.4,7.878.82-4.557,3.141-7.069,13.845-9.181,14.677-14.5-3.18-8.928-3.18-8.928Z" transform="translate(-42.268 -37.049)" fill="#ffc0d1"/>
      <path id="Caminho_1904" data-name="Caminho 1904" d="M55.454,7.1s-3.989,2.989-2.495,4.49,4.49.5,4.49.5-1.495.995.995.995a5.989,5.989,0,0,0,3.989-1.495,3.227,3.227,0,0,0,1.495,2.495c1.495.995,3.989,0,3.989,0s-1.995,1.495-1.995,1.995,2.9,1.191,3.444-.4a3.594,3.594,0,0,0-.242-2.059A9.4,9.4,0,0,0,62.432,7.6c-4.984-.995-6.979-.5-6.979-.5Z" transform="translate(-23.054 -3.048)" fill="#474763"/>
      <path id="Caminho_1905" data-name="Caminho 1905" d="M37.255,53.97s3.989,15.1,13.963,15.1,14.289-15.1,14.289-15.1l4.534.921S66.2,73.8,71.328,77.418L68.069,87.846H35.721L31.58,75.535s5.675-1.983,5.675-6.467-2.691-14.435-2.691-14.435l2.691-.657Z" transform="translate(-13.834 -23.634)" fill="#215273"/>
    </g>
  </g>
</svg>
