<svg xmlns="http://www.w3.org/2000/svg" width="116.057" height="110.744" viewBox="0 0 116.057 110.744">
  <g id="freepik--Salad--inject-88" transform="translate(-252.84 -18.81)">
    <path id="Caminho_1154" data-name="Caminho 1154" d="M302.016,55.1a5.384,5.384,0,0,0-1.409-5.268,8.123,8.123,0,0,0-5.152-2.2,8.683,8.683,0,0,0-4.863.946,5.963,5.963,0,0,0-1.524,9.648,8.491,8.491,0,0,0,5.615,2.509,7.024,7.024,0,0,0,4.978-1.447,5.924,5.924,0,0,0,2.354-4.149" transform="translate(31.985 26.754)" fill="#359d9e"/>
    <path id="Caminho_1155" data-name="Caminho 1155" d="M304.2,61.05c7.063,1.795,14.723-5.654,16.807-10.71a1.775,1.775,0,0,0,0-1.64,1.794,1.794,0,0,0-1.679-.521A16.769,16.769,0,0,0,304.14,61.05" transform="translate(47.691 27.266)" fill="#215273"/>
    <path id="Caminho_1156" data-name="Caminho 1156" d="M315.561,56.7a5.345,5.345,0,0,0-1.409-5.249A7.931,7.931,0,0,0,309,49.25a8.819,8.819,0,0,0-4.863.926,6.368,6.368,0,0,0-3.107,3.859,6.271,6.271,0,0,0,1.582,5.789,8.375,8.375,0,0,0,5.615,2.509,6.966,6.966,0,0,0,4.959-1.428,5.9,5.9,0,0,0,2.373-4.168" transform="translate(44.644 28.26)" fill="#359d9e"/>
    <path id="Caminho_1157" data-name="Caminho 1157" d="M296.392,61.652c.193-3.724-2.065-8.471-4.033-11.578a18.486,18.486,0,0,0-8.394-7.159,1.177,1.177,0,0,0-.753-.116,1.042,1.042,0,0,0-.521.618,13.2,13.2,0,0,0,13.7,18.293" transform="translate(26.764 22.284)" fill="#215273"/>
    <path id="Caminho_1158" data-name="Caminho 1158" d="M282.6,54.448a33.229,33.229,0,0,1-3.415-5.519,11.732,11.732,0,0,1-1.177-6.31,1.081,1.081,0,0,1,.405-.83,1.061,1.061,0,0,1,.907,0,19.8,19.8,0,0,1,14.164,18.332l.135,1.081a15.321,15.321,0,0,1-11.424.888,23.426,23.426,0,0,1-8.51-4.052,12.524,12.524,0,0,1-4.786-7.912A17,17,0,0,1,282.6,54.448Z" transform="translate(14.93 21.268)" fill="#215273"/>
    <path id="Caminho_1159" data-name="Caminho 1159" d="M301.617,49.308a25.8,25.8,0,0,1,13.122-5.538A18.081,18.081,0,0,1,297.372,62.8l-.232-.54a13.256,13.256,0,0,1,4.477-12.948Z" transform="translate(40.913 23.204)" fill="#215273"/>
    <path id="Caminho_1160" data-name="Caminho 1160" d="M354.851,56.217S346.863,84.853,330.4,95.138c-21.477,13.508-54.146-3.859-56.963-10.69S265.47,49.54,265.47,49.54Z" transform="translate(11.741 28.568)" fill="#cff4d2"/>
    <path id="Caminho_1161" data-name="Caminho 1161" d="M355.028,56.3h-.405l-1.274-.116-4.978-.405L329.73,54.371,265.666,49.45h-.386v.386c1.6,8.626,3.377,17.733,5.635,27.015.5,1.93.984,3.859,1.6,5.789.135.482.309.965.482,1.428s.174.482.27.714a4.9,4.9,0,0,0,.386.695,12.7,12.7,0,0,0,1.93,2.3,42.937,42.937,0,0,0,9.841,6.329,67.538,67.538,0,0,0,10.517,4.072,59.145,59.145,0,0,0,10.594,2.1,39.77,39.77,0,0,0,19.682-2.509A35.158,35.158,0,0,0,339.726,87.04a70.935,70.935,0,0,0,7.719-12.06,99.78,99.78,0,0,0,4.438-9.861c1.1-2.759,1.814-4.959,2.3-6.445.232-.753.405-1.312.5-1.7a2.163,2.163,0,0,0,.135-.6,1.493,1.493,0,0,1-.193.579,15.274,15.274,0,0,0-.56,1.679c-.521,1.486-1.274,3.647-2.393,6.387s-2.566,6.078-4.535,9.8a72.069,72.069,0,0,1-7.719,11.925,34.869,34.869,0,0,1-13.411,10.555,39.654,39.654,0,0,1-19.432,2.412,63.524,63.524,0,0,1-20.9-6.156,42.452,42.452,0,0,1-9.648-6.252,11.174,11.174,0,0,1-1.93-2.161l-.328-.6-.27-.695c-.154-.463-.347-.926-.482-1.409-.6-1.93-1.081-3.859-1.582-5.789-2.258-9.282-4.014-18.409-5.635-27.015l-.328.367,63.852,4.612,18.718,1.312,5.056.347h1.312Z" transform="translate(11.565 28.484)" fill="#263238"/>
    <path id="Caminho_1162" data-name="Caminho 1162" d="M300.63,83.759a8.3,8.3,0,0,0,1-.907c.617-.617,1.467-1.524,2.509-2.682a86.841,86.841,0,0,0,7.313-9.648,84.2,84.2,0,0,0,5.789-10.652c.637-1.409,1.119-2.566,1.428-3.377a6.258,6.258,0,0,0,.405-1.293,5.187,5.187,0,0,0-.637,1.2c-.367.772-.907,1.93-1.6,3.3a110.518,110.518,0,0,1-5.847,10.42,108.564,108.564,0,0,1-7.14,9.648c-.965,1.2-1.775,2.142-2.354,2.8a4.863,4.863,0,0,0-.868,1.2Z" transform="translate(44.428 33.83)" fill="#fafafa"/>
    <path id="Caminho_1163" data-name="Caminho 1163" d="M267.91,52a3.859,3.859,0,0,0,.811.154l2.393.309c2.065.251,5.056.579,8.741.946,7.41.772,17.637,1.679,28.945,2.412s21.612,1.2,29.041,1.428c3.724.116,6.734.174,8.8.193h2.489a3.975,3.975,0,0,0,.83,0,4.13,4.13,0,0,0-.83-.1l-2.393-.116-8.8-.405c-7.429-.328-17.695-.849-28.945-1.6S287.419,53.64,280.048,53l-8.78-.772-2.393-.193Z" transform="translate(14.01 30.855)" fill="#fafafa"/>
    <path id="Caminho_1164" data-name="Caminho 1164" d="M259.5,30.234l-1.351-9.552,17-1.872.656,11.424Z" transform="translate(4.936 0)" fill="#215273"/>
    <path id="Caminho_1165" data-name="Caminho 1165" d="M295.21,59.076h0l3.531,55.786c.154,2.451-1.659,5.094-5.152,7.236a34.058,34.058,0,0,1-15.283,4.342h-.1c-13.2.81-21.4-3.859-21.728-8.8l-3.473-55.825h0V61.7c-.309-5.461,3.338-11.4,7.024-17.27a23.909,23.909,0,0,0,2.624-12.543c0-.386,0-.714,0-1.042h-.367a2.972,2.972,0,0,1-3.319-2.509l-.174-2.412a2.972,2.972,0,0,1,2.991-2.914l19.818-1.254a3.222,3.222,0,0,1,3.01,1.467,2.509,2.509,0,0,1,.309,1.042l.135,2.373a2.952,2.952,0,0,1-2.972,2.894h-.367a3.89,3.89,0,0,0,.1,1.023,23.812,23.812,0,0,0,4.264,12.118c4.38,5.364,8.761,10.806,9.127,16.267C295.21,59,295.191,59.038,295.21,59.076Z" transform="translate(0.14 2.726)" fill="#fafafa"/>
    <path id="Caminho_1166" data-name="Caminho 1166" d="M295.35,59.284V58.7a14.028,14.028,0,0,0-.309-1.66,21.517,21.517,0,0,0-2.682-5.789,82.459,82.459,0,0,0-6.252-8.3,17.774,17.774,0,0,1-2.972-5.789,32.3,32.3,0,0,1-1.351-7.236V29.76h.174a3.7,3.7,0,0,0,2.065-.617,2.566,2.566,0,0,0,1.1-1.833,14.571,14.571,0,0,0-.135-2.393,2.335,2.335,0,0,0-.984-1.93,3.358,3.358,0,0,0-2.277-.6l-2.605.174-5.384.347-11.4.733a3.358,3.358,0,0,0-2.509,1.081,2.469,2.469,0,0,0-.56,1.254,13.7,13.7,0,0,0,0,1.486c0,.482,0,1.042,0,1.505a2.393,2.393,0,0,0,.675,1.216,3.358,3.358,0,0,0,2.74.791h.232v.251a32.208,32.208,0,0,1-.328,6.792,18.2,18.2,0,0,1-2.219,6.677c-1.254,1.93-2.528,4.052-3.686,6.175a30.877,30.877,0,0,0-2.875,6.715,14.645,14.645,0,0,0-.463,3.454c0,1.216.116,2.509.193,3.763.154,2.547.328,5.114.482,7.719q.5,7.719,1,15.785c.579,9.4,1.158,18.563,1.717,27.42a15.53,15.53,0,0,0,.367,3.223,6.388,6.388,0,0,0,1.679,2.644,14.936,14.936,0,0,0,5.442,3.126,27.112,27.112,0,0,0,6.1,1.409,38.944,38.944,0,0,0,6.156.309,41.93,41.93,0,0,0,11.578-1.795,26.068,26.068,0,0,0,5.191-2.258,13.952,13.952,0,0,0,4.284-3.454,6.944,6.944,0,0,0,1.119-2.354,8.759,8.759,0,0,0,0-2.566c-.116-1.756-.212-3.454-.328-5.133-.212-3.358-.405-6.6-.6-9.648-.733-12.311-1.332-22.268-1.756-29.157s-.579-10.69-.579-10.69a3.855,3.855,0,0,1,0,.695,11.42,11.42,0,0,0,.154,2.065c.135,1.814.309,4.477.54,7.912.463,6.908,1.119,16.846,1.93,29.157.193,3.068.405,6.291.618,9.648q.174,2.509.347,5.152v1.312a5.422,5.422,0,0,1-.135,1.37,6.927,6.927,0,0,1-1.2,2.489,13.991,13.991,0,0,1-4.11,3.608,25.761,25.761,0,0,1-5.268,2.3,41.623,41.623,0,0,1-11.79,1.93,39.638,39.638,0,0,1-6.213-.289,29.543,29.543,0,0,1-6.213-1.428,15.572,15.572,0,0,1-5.615-3.319,6.967,6.967,0,0,1-1.814-3.049,16.676,16.676,0,0,1-.367-3.338c-.56-8.857-1.139-18.023-1.737-27.42q-.521-8.027-1-15.785c-.154-2.586-.328-5.152-.482-7.719,0-1.274-.174-2.509-.193-3.859a15.3,15.3,0,0,1,.579-3.859,31.724,31.724,0,0,1,2.933-6.831c1.158-2.142,2.47-4.168,3.686-6.175a18.428,18.428,0,0,0,2.2-6.5,32.8,32.8,0,0,0,.309-6.715l.251.212a3.859,3.859,0,0,1-3.087-.926,2.625,2.625,0,0,1-.791-1.447A6.939,6.939,0,0,0,258.8,27a10.278,10.278,0,0,1,0-1.563,2.817,2.817,0,0,1,.656-1.486,3.667,3.667,0,0,1,2.8-1.216l11.424-.714,5.384-.328,2.586-.154a3.647,3.647,0,0,1,2.528.675,2.759,2.759,0,0,1,1.139,2.277c0,.83.116,1.6.116,2.431a2.817,2.817,0,0,1-1.254,2.084,3.859,3.859,0,0,1-2.238.675l.154-.174a24.159,24.159,0,0,0,4.187,12.929,81.41,81.41,0,0,1,6.214,8.375,21.5,21.5,0,0,1,2.624,5.963,15.9,15.9,0,0,1,.27,1.679,3.262,3.262,0,0,1-.039.83Z" transform="translate(0 2.519)" fill="#263238"/>
    <path id="Caminho_1167" data-name="Caminho 1167" d="M275.806,25.772a79.233,79.233,0,0,1-8.819.81,71.2,71.2,0,0,1-8.838.289,79.23,79.23,0,0,1,8.819-.81,76.006,76.006,0,0,1,8.838-.289Z" transform="translate(4.936 6.449)" fill="#263238"/>
    <path id="Caminho_1168" data-name="Caminho 1168" d="M292.811,45.712a6.271,6.271,0,0,0-6.02.637,22.868,22.868,0,0,1-5.635,2.875,11.25,11.25,0,0,1-7.217-1.37,43.361,43.361,0,0,0-6.792-3.165,12.832,12.832,0,0,0-12.987,3.859l3.03,47.894s3.145,8.008,21.574,5.557,16.479-10.536,16.479-10.536Z" transform="translate(1.227 23.635)" fill="#00da84"/>
  </g>
</svg>
