<svg xmlns="http://www.w3.org/2000/svg" width="122.265" height="117.684" viewBox="0 0 122.265 117.684">
  <g id="Balança" transform="translate(2517 -715.763)">
    <path id="Caminho_2697" data-name="Caminho 2697" d="M360.39,270.91c-3.73,18.93-10.11,51.94-13.56,69.87a13.79,13.79,0,0,0,9.81,15.89l72.06,20.25a13.79,13.79,0,0,0,16.84-9L468.15,299a13.78,13.78,0,0,0-9.62-17.65L377.41,260.2a13.79,13.79,0,0,0-17.02,10.71Z" transform="translate(-2863.578 456.011)" fill="#215273"/>
    <path id="Caminho_2698" data-name="Caminho 2698" d="M394.37,276.81c.26.34,7.58,14.55,7.58,14.55s10.07-3.43,20.36,5.26l15.06-9s-6.19-9.4-22.32-12.68C402,272.25,394.37,276.81,394.37,276.81Z" transform="translate(-2863.578 456.011)" fill="#fff"/>
    <path id="Caminho_2699" data-name="Caminho 2699" d="M422.25,297.26,422,297c-9.94-8.41-19.75-5.2-19.85-5.16l-.43.14-.2-.4c-2.88-5.59-7.27-14.06-7.55-14.5l-.29-.45.45-.29c.32-.19,7.92-4.64,21-2,16.16,3.28,22.4,12.51,22.65,12.91l.3.45ZM407,290.19A24,24,0,0,1,422.36,296l14.24-8.55c-1.46-1.88-7.94-9.23-21.66-12-11-2.23-18.06.73-19.85,1.61,1.18,2.19,5.45,10.45,7.13,13.72a19.169,19.169,0,0,1,4.78-.59Z" transform="translate(-2863.578 456.011)" fill="#263238"/>
    <path id="Caminho_2700" data-name="Caminho 2700" d="M401.87,274.49a9.3,9.3,0,0,1,.76,2.5c.35,1.41.39,2.62.22,2.63a9.349,9.349,0,0,1-.75-2.5C401.75,275.72,401.7,274.5,401.87,274.49Z" transform="translate(-2863.578 456.011)" fill="#263238"/>
    <path id="Caminho_2701" data-name="Caminho 2701" d="M404.44,277c-.14.05-.47-.54-.61-1.35s0-1.49.12-1.49.28.63.42,1.39S404.59,277,404.44,277Z" transform="translate(-2863.578 456.011)" fill="#263238"/>
    <path id="Caminho_2702" data-name="Caminho 2702" d="M406.35,276.89c-.15,0-.38-.64-.52-1.48s-.12-1.55,0-1.58.38.64.52,1.49S406.5,276.87,406.35,276.89Z" transform="translate(-2863.578 456.011)" fill="#263238"/>
    <path id="Caminho_2703" data-name="Caminho 2703" d="M408,276.92c-.15,0-.32-.67-.39-1.52s0-1.55.14-1.57.33.67.4,1.53S408.16,276.91,408,276.92Z" transform="translate(-2863.578 456.011)" fill="#263238"/>
    <path id="Caminho_2704" data-name="Caminho 2704" d="M409.87,276.83c-.15,0-.27-.64-.26-1.43s.14-1.42.29-1.41.26.63.26,1.42S410,276.83,409.87,276.83Z" transform="translate(-2863.578 456.011)" fill="#263238"/>
    <path id="Caminho_2705" data-name="Caminho 2705" d="M411.76,277.18c-.15,0-.18-.7-.14-1.54s.13-1.51.28-1.52.3.69.26,1.55S411.91,277.2,411.76,277.18Z" transform="translate(-2863.578 456.011)" fill="#263238"/>
    <path id="Caminho_2706" data-name="Caminho 2706" d="M413.63,277.53c-.15,0-.2-.67-.11-1.43s.28-1.37.43-1.36.2.64.11,1.42S413.78,277.55,413.63,277.53Z" transform="translate(-2863.578 456.011)" fill="#263238"/>
    <path id="Caminho_2707" data-name="Caminho 2707" d="M416.06,280.64a13.07,13.07,0,0,1,1.49-5.14,6.8,6.8,0,0,1-.49,2.65,7,7,0,0,1-1,2.49Z" transform="translate(-2863.578 456.011)" fill="#263238"/>
    <path id="Caminho_2708" data-name="Caminho 2708" d="M415.25,277.67c-.15,0-.17-.62-.11-1.33s.16-1.29.31-1.3.29.6.23,1.34S415.39,277.69,415.25,277.67Z" transform="translate(-2863.578 456.011)" fill="#263238"/>
    <path id="Caminho_2709" data-name="Caminho 2709" d="M428.39,286.26c-.12-.09.44-1.07,1.36-2.11s1.82-1.72,1.92-1.61-.61,1-1.51,2S428.51,286.35,428.39,286.26Z" transform="translate(-2863.578 456.011)" fill="#263238"/>
    <path id="Caminho_2710" data-name="Caminho 2710" d="M398.08,278.5c-.14.06-.56-.54-.95-1.35s-.59-1.52-.46-1.59.56.54.95,1.35S398.21,278.43,398.08,278.5Z" transform="translate(-2863.578 456.011)" fill="#263238"/>
    <path id="Caminho_2711" data-name="Caminho 2711" d="M400.35,277.78c-.13.06-.54-.47-.81-1.23s-.32-1.43-.17-1.47.41.55.68,1.28S400.49,277.71,400.35,277.78Z" transform="translate(-2863.578 456.011)" fill="#263238"/>
    <path id="Caminho_2712" data-name="Caminho 2712" d="M427.71,283.73c-.09-.11.45-.73,1.13-1.47s1.27-1.32,1.39-1.24-.28.85-1,1.61S427.8,283.86,427.71,283.73Z" transform="translate(-2863.578 456.011)" fill="#263238"/>
    <path id="Caminho_2713" data-name="Caminho 2713" d="M426.18,282.59c-.12-.1.26-.69.83-1.33s1.13-1.07,1.25-1-.27.7-.84,1.34S426.29,282.7,426.18,282.59Z" transform="translate(-2863.578 456.011)" fill="#263238"/>
    <path id="Caminho_2714" data-name="Caminho 2714" d="M424.76,281.71c-.12-.09.21-.71.73-1.39s1.05-1.15,1.17-1.06-.21.71-.74,1.39S424.88,281.8,424.76,281.71Z" transform="translate(-2863.578 456.011)" fill="#263238"/>
    <path id="Caminho_2715" data-name="Caminho 2715" d="M423.26,280.62c-.13-.08.11-.68.53-1.34s.86-1.14,1-1.06-.11.69-.53,1.35S423.38,280.7,423.26,280.62Z" transform="translate(-2863.578 456.011)" fill="#263238"/>
    <path id="Caminho_2716" data-name="Caminho 2716" d="M421.47,279.89c-.13-.06.06-.75.49-1.49s.94-1.24,1.07-1.15-.17.71-.6,1.43S421.61,280,421.47,279.89Z" transform="translate(-2863.578 456.011)" fill="#263238"/>
    <path id="Caminho_2717" data-name="Caminho 2717" d="M419.73,279.16c-.14-.05,0-.67.37-1.38s.74-1.21.87-1.13,0,.69-.38,1.38S419.86,279.22,419.73,279.16Z" transform="translate(-2863.578 456.011)" fill="#263238"/>
    <path id="Caminho_2718" data-name="Caminho 2718" d="M418.54,278.51c-.14,0-.16-.65.06-1.36s.56-1.22.7-1.17,0,.64-.18,1.33S418.69,278.53,418.54,278.51Z" transform="translate(-2863.578 456.011)" fill="#263238"/>
    <path id="Caminho_2719" data-name="Caminho 2719" d="M431.23,285.76c-.08-.13.41-.55,1-1s1.16-.81,1.27-.7-.29.65-.94,1.14S431.3,285.89,431.23,285.76Z" transform="translate(-2863.578 456.011)" fill="#263238"/>
    <path id="Caminho_2720" data-name="Caminho 2720" d="M433,287.36c-.08-.13.4-.55,1-1s1.16-.81,1.27-.7-.29.65-.94,1.13S433.09,287.49,433,287.36Z" transform="translate(-2863.578 456.011)" fill="#263238"/>
    <path id="Caminho_2721" data-name="Caminho 2721" d="M415,284.72c-.23.2-4.83,6.21-4.83,6.21l6.34,1.93Z" transform="translate(-2863.578 456.011)" fill="#00e588"/>
    <path id="Caminho_2402" data-name="Caminho 2402" d="M384.53,266.24l23.1,42.33,44.86-24.73,7.37,1.94a9.14,9.14,0,0,1,6.29,11.89l-23.08,65.1a14.07,14.07,0,0,1-17.26,9.29c-18.32-5.2-51.12-14.43-67.45-18.47-5.69-1.41-9.59-8.9-8.44-14.65l12.84-64.44a12.41,12.41,0,0,1,16-10.07Z" transform="translate(-2863.578 456.011)"/>
  </g>
</svg>
