<svg xmlns="http://www.w3.org/2000/svg" width="20.482" height="22" viewBox="0 0 20.482 22">
  <path id="Icon-Progresso-OFF" d="M20.832,3.912l-2.72-2.436A5.945,5.945,0,0,0,14.128,0h-6.5C4.526,0,2,2.261,2,5.042V16.958C2,19.739,4.526,22,7.633,22H16.85c3.105,0,5.633-2.261,5.633-5.042V7.477a4.758,4.758,0,0,0-1.65-3.565ZM16.85,19.25H7.633a2.441,2.441,0,0,1-2.56-2.292V5.042A2.441,2.441,0,0,1,7.633,2.75h5.633V6.417A1.949,1.949,0,0,0,15.313,8.25h4.1v8.708A2.44,2.44,0,0,1,16.85,19.25Zm-.512-5.958v2.75c-.035,1.808-3.039,1.807-3.072,0v-2.75C13.3,11.484,16.3,11.485,16.337,13.292Zm-5.121-2.75v5.5c-.034,1.808-3.039,1.807-3.072,0v-5.5C8.178,8.734,11.183,8.735,11.217,10.542Z" transform="translate(-2)" fill="#a3a3b1"/>
</svg>
