<svg xmlns="http://www.w3.org/2000/svg" width="20.482" height="22" viewBox="0 0 20.482 22">
  <path id="Icon-Progresso-ON" d="M15.362,22H5.121A4.88,4.88,0,0,1,0,17.417V4.584A4.88,4.88,0,0,1,5.121,0H9.744c.145,0,.291.009.433.018l.064,0v6.4a2.928,2.928,0,0,0,3.073,2.75h7.144l.006.073c.009.121.019.247.019.371v7.806A4.879,4.879,0,0,1,15.362,22ZM13.11,12.564a1.505,1.505,0,0,0-1.5,1.5v2.376a1.5,1.5,0,1,0,3.007,0V14.068A1.506,1.506,0,0,0,13.11,12.564ZM7.1,8.526a1.506,1.506,0,0,0-1.5,1.5v6.414a1.5,1.5,0,1,0,3.008,0V10.03A1.506,1.506,0,0,0,7.1,8.526ZM20.011,7.333h-6.7a.976.976,0,0,1-1.024-.916V.422a7.249,7.249,0,0,1,2.524,1.457l3.568,3.2a6.317,6.317,0,0,1,1.629,2.257Z" fill="#474763"/>
</svg>
