<svg xmlns="http://www.w3.org/2000/svg" width="240" height="200.257" viewBox="0 0 240 200.257">
  <g id="Sucesso-Meelnutri" transform="translate(0 0)">
    <path id="Caminho_8959" data-name="Caminho 8959" d="M379.589,555.377c-9.465-7.463-22.53-11.413-33.911-6.292-17.814,8.108-36.821,17.836-55.664,10.111-25.562-10.406-51.254-28.045-79.464-20.353a48.229,48.229,0,0,0-32.422,29.785c-6.193,16.436-5.46,33.856-.492,49.941a102.843,102.843,0,0,0,6.292,15.56c15.1,28.7,34.939,59.921,68.959,68.314a83.22,83.22,0,0,0,41.4-.689c29.052-7.692,55.566-23.428,76.783-44.284a96.739,96.739,0,0,0,9.071-11.26c10.986-15.91,17.278-35.1,16.162-53.979a69.954,69.954,0,0,0-2.276-14.039,67.323,67.323,0,0,0-5.307-13.569A33.754,33.754,0,0,0,379.589,555.377Z" transform="translate(-165.872 -509.254)" fill="#f5f5f5"/>
    <path id="Caminho_8960" data-name="Caminho 8960" d="M1223.727,494.47c-8.4-.569-19.532,1.433-22.695,9.958-2.134,5.953,5.57,9.772,10.822,10.811,8.59,1.784,20.178,3.064,25.474-5.5,2.254-3.633.558-8.349-2.517-10.964A18.787,18.787,0,0,0,1223.727,494.47Z" transform="translate(-1080.469 -471.338)" fill="#e5ecfc"/>
    <path id="Caminho_8961" data-name="Caminho 8961" d="M1898.658,1728.69c5.6-4.979,7.4-11.752,4.06-15.133s-10.526-2.123-16.151,2.812-7.507,11.72-4.158,15.144S1893.067,1733.657,1898.658,1728.69Z" transform="translate(-1686.135 -1555.416)" fill="#ebebeb"/>
    <path id="Caminho_8962" data-name="Caminho 8962" d="M1245.75,1129.449c2.024,9.411,6.259,14.619,10.319,15.647a8.1,8.1,0,0,0,3.075.175,8.824,8.824,0,0,0,1.619-.361c5.723-2.2,23.264-13.613,30.737-39.4,7.321-23.964,2.517-37.587-6.062-50.893a17.909,17.909,0,0,0-5.471-4.279,13.4,13.4,0,0,0-15.112,1.937c-.033.033-.077.066-.109.1C1245.192,1070.261,1241.855,1111.317,1245.75,1129.449Z" transform="translate(-1119.343 -965.126)" fill="#359d9e"/>
    <path id="Caminho_8963" data-name="Caminho 8963" d="M1531.755,1810.968c-3.425,3.031-4.607,6-4.092,7.911a3.874,3.874,0,0,0,.646,1.313,4.441,4.441,0,0,0,.525.591c2.243,1.86,11.052,6.478,23.482,3.589,11.118-2.418,15.746-7.233,19.215-13.459a8.379,8.379,0,0,0,.952-2.637,8.953,8.953,0,0,0-.142-3.5,3.939,3.939,0,0,0-.219-.722,6.055,6.055,0,0,0-3.983-3.118C1556.157,1796.983,1538.365,1805.146,1531.755,1810.968Z" transform="translate(-1371.58 -1633.996)" fill="#2a8481"/>
    <path id="Caminho_8964" data-name="Caminho 8964" d="M1513.5,1295.459c-1.718,8.875.022,14.926,3.151,17.311a7.668,7.668,0,0,0,2.593,1.28,9.548,9.548,0,0,0,1.532.284c5.756.208,25.1-3.184,41.045-22.705,13.755-16.348,15.724-29.008,14.094-42.161a19.192,19.192,0,0,0-4.552-10.2c-.788-.9-1.576-1.806-2.3-2.79-2.7-1.992-6.412-2.112-10.778-.58C1534.8,1244.14,1516.8,1278.368,1513.5,1295.459Z" transform="translate(-1358.466 -1130.787)" fill="#359d9e"/>
    <path id="Caminho_8965" data-name="Caminho 8965" d="M1569.94,1274.807c-3.808,15.878-22.312,32.817-34.622,36.592-6.861,2.123-11.161,2.933-14.871,2.955a10.012,10.012,0,0,1-2.057-.307,6.567,6.567,0,0,1-4.64-4.913c-1.663-5.482.481-18.12,10.33-34.381,10.6-17.5,26.262-33.757,38.594-36.143,3.469-.667,6.172.033,7.988,2.079,4.038,4.246,5.406,10.921,3.009,20.955A67.529,67.529,0,0,1,1569.94,1274.807Z" transform="translate(-1358.838 -1133.912)" fill="#70b7b5"/>
    <path id="Caminho_8966" data-name="Caminho 8966" d="M374.4,1798.778c2.178,2.933,7.408,4.694,5.69,7.725a17.038,17.038,0,0,1-6.937,6.8,23.037,23.037,0,0,1-6.948,2.331c-7.441,1.335-16.02-.164-22.793-2.736a37.04,37.04,0,0,1-8.765-5.8c-2.123-2.221-3.852-4.519-3.272-7.955a10.051,10.051,0,0,1,3.939-6.018,14.418,14.418,0,0,1,6.948-2.582c8.021-1.149,15.473,2.867,22.771,4.169A47.73,47.73,0,0,1,374.4,1798.778Z" transform="translate(-306.199 -1625.482)" fill="#2a8481"/>
    <path id="Caminho_8967" data-name="Caminho 8967" d="M386,1328.134c.066,4.53,1.2,11.982-3.95,12.551-12.223.766-23.176-4.333-31.842-12.4a59.138,59.138,0,0,1-6.04-6.554c-7.966-11.993-18.285-27.465-11.971-41.22,4.585-10.318,20.626-11.457,29.227-4.016,12.606,10.888,14.9,26.94,22.716,40.246A59.355,59.355,0,0,1,386,1328.134Z" transform="translate(-305.284 -1163.604)" fill="#359d9e"/>
    <path id="Caminho_8968" data-name="Caminho 8968" d="M1561.865,1607.2a1.171,1.171,0,0,1-.93-1.882l26.656-34.961a1.171,1.171,0,1,1,1.86,1.422l-26.656,34.961A1.173,1.173,0,0,1,1561.865,1607.2Z" transform="translate(-1401.099 -1429.163)" fill="#359d9e"/>
    <path id="Caminho_8969" data-name="Caminho 8969" d="M1639.48,1631.3a1.159,1.159,0,0,1-1.16-1.072c-.481-5.843-1.3-15.385-1.466-16.206a1.166,1.166,0,0,1,.854-1.4,1.186,1.186,0,0,1,1.422.854c.208.832,1.215,12.89,1.521,16.567a1.166,1.166,0,0,1-1.072,1.258Zm-2.626-17.267Z" transform="translate(-1468.898 -1467.19)" fill="#359d9e"/>
    <path id="Caminho_8970" data-name="Caminho 8970" d="M1626.637,1799.605a1.169,1.169,0,0,1-1.16-1.083,1.181,1.181,0,0,1,1.072-1.258l11.708-.9a1.169,1.169,0,1,1,.186,2.331l-11.708.9A.383.383,0,0,1,1626.637,1799.605Z" transform="translate(-1458.792 -1630.851)" fill="#359d9e"/>
    <path id="Caminho_8971" data-name="Caminho 8971" d="M551.7,1517.119a1.286,1.286,0,0,1-1.072-.569l-24.741-36.569a1.293,1.293,0,0,1,2.145-1.445l24.741,36.57a1.288,1.288,0,0,1-.35,1.795A1.245,1.245,0,0,1,551.7,1517.119Z" transform="translate(-479.325 -1347.292)" fill="#359d9e"/>
    <path id="Caminho_8972" data-name="Caminho 8972" d="M752.082,421.2h-85.2A10.386,10.386,0,0,0,656.5,431.584V596.038a10.386,10.386,0,0,0,10.384,10.384h22.18a1.577,1.577,0,0,1-.1-.558,1.665,1.665,0,0,1,1.641-1.663l36.5-.088a1.632,1.632,0,0,1,1.51,2.3h23.46a10.386,10.386,0,0,0,10.384-10.384V431.584A10.379,10.379,0,0,0,752.082,421.2Z" transform="translate(-595.846 -406.165)" fill="#215273"/>
    <path id="Caminho_8973" data-name="Caminho 8973" d="M791.942,619.4h-84.4a5.842,5.842,0,0,1-5.843-5.843V449.243a5.842,5.842,0,0,1,5.843-5.843h84.4a5.842,5.842,0,0,1,5.843,5.843V613.555A5.842,5.842,0,0,1,791.942,619.4Z" transform="translate(-636.1 -425.936)" fill="#fff"/>
    <path id="Caminho_8974" data-name="Caminho 8974" d="M326.579,1094.647a1.532,1.532,0,1,1-1.532,1.532,1.536,1.536,0,0,1,1.532-1.532m0-1.247a2.779,2.779,0,1,0,2.779,2.779,2.783,2.783,0,0,0-2.779-2.779Z" transform="translate(-299.552 -1004.81)" fill="#ebebeb"/>
    <path id="Caminho_8975" data-name="Caminho 8975" d="M869.279,285.047a1.532,1.532,0,1,1-1.532,1.532,1.537,1.537,0,0,1,1.532-1.532m0-1.247a2.779,2.779,0,1,0,2.779,2.779,2.783,2.783,0,0,0-2.779-2.779Z" transform="translate(-782.867 -283.8)" fill="#ebebeb"/>
    <path id="Caminho_8976" data-name="Caminho 8976" d="M1858.279,799.447a1.532,1.532,0,1,1-1.532,1.532,1.536,1.536,0,0,1,1.532-1.532m0-1.247a2.779,2.779,0,1,0,2.779,2.779,2.783,2.783,0,0,0-2.779-2.779Z" transform="translate(-1663.646 -741.912)" fill="#ebebeb"/>
    <path id="Caminho_8977" data-name="Caminho 8977" d="M102.2,768.476s4.508-10.176,15.177-10.176,10.341,8.5,10.341,8.5,2-4.333,10.012-4.333,9.837,6.007,9.837,6.007Z" transform="translate(-102.2 -706.378)" fill="#ebebeb"/>
    <path id="Caminho_8978" data-name="Caminho 8978" d="M1877.845,999.988s-2.955-6.85,7.714-6.85S1902,995.644,1902,995.644s.689-4.344,8.7-4.344,12.518,8.688,12.518,8.688Z" transform="translate(-1683.212 -913.882)" fill="#ebebeb"/>
    <path id="Caminho_8979" data-name="Caminho 8979" d="M742.5,629.627l16.6-15.56,25.977,24.358L847.438,577.3l16.589,15.549-78.95,76.685Z" transform="translate(-672.436 -545.184)" fill="#00da84"/>
    <rect id="Retângulo_562" data-name="Retângulo 562" width="29.599" height="1.247" transform="translate(98.843 24.456)" fill="#ebebeb"/>
    <rect id="Retângulo_563" data-name="Retângulo 563" width="1.247" height="5.001" transform="translate(163.732 5.996)" fill="#ebebeb"/>
    <rect id="Retângulo_564" data-name="Retângulo 564" width="10.45" height="1.247" transform="matrix(0.641, -0.767, 0.767, 0.641, 166.138, 11.702)" fill="#ebebeb"/>
    <rect id="Retângulo_565" data-name="Retângulo 565" width="4.968" height="1.247" transform="translate(167.912 13.798)" fill="#ebebeb"/>
    <rect id="Retângulo_566" data-name="Retângulo 566" width="56.255" height="4.377" transform="translate(85.811 143.018)" fill="#ebebeb"/>
    <rect id="Retângulo_567" data-name="Retângulo 567" width="43.026" height="4.377" transform="translate(85.898 154.19)" fill="#ebebeb"/>
  </g>
</svg>
