<svg id="Icone_Maçã_Escuro" data-name="Icone Maçã Escuro" xmlns="http://www.w3.org/2000/svg" width="18.062" height="18.855" viewBox="0 0 18.062 18.855">
  <path id="Caminho_195" data-name="Caminho 195" d="M12.67,0h.552A.631.631,0,0,0,13.3.037a.92.92,0,0,1,.7,1.008,6.668,6.668,0,0,1-.152.94c-.1.395-.237.78-.359,1.173.207.039.424.076.638.123a4.575,4.575,0,0,1,3.505,3.1,7.791,7.791,0,0,1,.338,3.75,10.714,10.714,0,0,1-1.48,4.151,11.509,11.509,0,0,1-2.606,2.95,7.373,7.373,0,0,1-2.506,1.427c-.266.082-.541.133-.813.2H9.8l-.752-.212a.148.148,0,0,0-.072,0l-.944.213H7.7l-.341-.049a5.63,5.63,0,0,1-2.312-.935A11.243,11.243,0,0,1,1.237,13.71,10.463,10.463,0,0,1,.108,10.279Q.053,9.89,0,9.5V8.36c.011-.053.025-.105.034-.159.089-.492.138-1,.273-1.475A4.754,4.754,0,0,1,2.322,3.9a5.4,5.4,0,0,1,2.553-.779A4.625,4.625,0,0,1,7.928,3.9c.038.026.08.046.141.082v-.2c0-.644,0-1.289,0-1.933A.953.953,0,0,1,8.8.864a.929.929,0,0,1,.858.217A4.885,4.885,0,0,1,11.677.166C12,.1,12.338.055,12.67,0ZM1.911,8.937A8.468,8.468,0,0,0,2.416,11.7a8.969,8.969,0,0,0,2.532,3.731,7.106,7.106,0,0,0,1.791,1.242,1.952,1.952,0,0,0,1.929.039.8.8,0,0,1,.857.058,1.038,1.038,0,0,0,.734.177,3.762,3.762,0,0,0,.952-.242,8.568,8.568,0,0,0,3.2-2.73,8.448,8.448,0,0,0,1.7-4.6,5.308,5.308,0,0,0-.391-2.5,2.635,2.635,0,0,0-1.779-1.6,4.412,4.412,0,0,0-1.308-.162A2.629,2.629,0,0,0,10.549,6.15a7.073,7.073,0,0,0-.642,1.106,1,1,0,0,1-.924.583A.92.92,0,0,1,8.13,7.22a4.515,4.515,0,0,0-.2-.435A3.088,3.088,0,0,0,6.413,5.3a3.447,3.447,0,0,0-2.072-.123A2.664,2.664,0,0,0,2.4,6.652,4.952,4.952,0,0,0,1.91,8.938Zm9.9-6.8a2.139,2.139,0,0,0-1.7,1.691A2.487,2.487,0,0,0,11.81,2.133Z" fill="#474763"/>
</svg>
