<svg xmlns="http://www.w3.org/2000/svg" width="17.167" height="20.5" viewBox="0 0 17.167 20.5">
  <g id="lock" transform="translate(-1.75 0.25)">
    <path id="Caminho_8987" data-name="Caminho 8987" d="M16.167,7.02V5.833a5.833,5.833,0,1,0-11.667,0V7.02A4.167,4.167,0,0,0,2,10.833v5A4.172,4.172,0,0,0,6.167,20H14.5a4.172,4.172,0,0,0,4.167-4.167v-5A4.167,4.167,0,0,0,16.167,7.02Zm-10-1.187a4.167,4.167,0,1,1,8.333,0v.833H6.167ZM17,15.833a2.5,2.5,0,0,1-2.5,2.5H6.167a2.5,2.5,0,0,1-2.5-2.5v-5a2.5,2.5,0,0,1,2.5-2.5H14.5a2.5,2.5,0,0,1,2.5,2.5Z" fill="#474763" stroke="#474763" stroke-width="0.5"/>
    <path id="Caminho_8988" data-name="Caminho 8988" d="M11.833,14a.833.833,0,0,0-.833.833V16.5a.833.833,0,0,0,1.667,0V14.833A.833.833,0,0,0,11.833,14Z" transform="translate(-1.5 -2.333)" fill="#474763" stroke="#474763" stroke-width="1"/>
  </g>
</svg>
