<svg id="Icone_Talheres_Escuro" data-name="Icone Talheres Escuro" xmlns="http://www.w3.org/2000/svg" width="19.75" height="20.386" viewBox="0 0 19.75 20.386">
  <path id="Caminho_184" data-name="Caminho 184" d="M272.353,1.712V2.15c-.046.3-.1.6-.137.9-.13.964-.248,1.93-.387,2.892a5.57,5.57,0,0,1-.26,1.256A2.582,2.582,0,0,1,269.8,8.67a11.5,11.5,0,0,1-1.359.257c-.088.016-.175,0-.193.139-.1.807-.218,1.613-.321,2.42a.229.229,0,0,0,.09.175c.239.164.507.292.727.477a2.028,2.028,0,0,1,.8,1.679c-.024.54-.128,1.077-.2,1.615-.125.938-.262,1.874-.376,2.813a2.173,2.173,0,0,1-1.408,1.863,8.762,8.762,0,0,1-.943.278h-.756a.424.424,0,0,0-.091-.033,3.478,3.478,0,0,1-1.49-.5,2.235,2.235,0,0,1-1.2-2.111c.02-.329.08-.657.124-.984.143-1.062.3-2.123.424-3.187a2.324,2.324,0,0,1,.811-1.623,2.623,2.623,0,0,1,1.212-.557c.139-.025.214-.074.22-.238.008-.223.059-.445.089-.668.083-.608.165-1.215.248-1.827-.108-.037-.2-.068-.295-.1a4.477,4.477,0,0,1-1.551-.9,2.407,2.407,0,0,1-.893-1.794,11.315,11.315,0,0,1,.139-1.341c.123-.964.254-1.928.381-2.892.03-.23.059-.459.088-.689A1.077,1.077,0,0,1,264.907,0h.4c.009.01.016.025.026.027a1.03,1.03,0,0,1,.781,1.218c-.068.316-.088.642-.13.964-.129.977-.26,1.955-.387,2.932a2.4,2.4,0,0,0-.055.684,1.176,1.176,0,0,0,.946.7c.02-.162.039-.326.061-.49q.316-2.331.632-4.662a1.031,1.031,0,0,1,1.125-.959,1.011,1.011,0,0,1,.91,1.21c-.071.524-.138,1.05-.209,1.574q-.189,1.4-.379,2.793c-.037.271-.07.543-.107.833a2.075,2.075,0,0,0,1.016-.351.378.378,0,0,0,.141-.225c.116-.832.219-1.666.329-2.5.091-.689.17-1.38.282-2.065a1.025,1.025,0,0,1,1.6-.658,1.37,1.37,0,0,1,.46.69Zm-6.106,16.652c.1-.028.295-.071.479-.136a.232.232,0,0,0,.129-.152c.063-.385.112-.772.166-1.158.139-.989.275-1.978.421-2.966a.275.275,0,0,0-.118-.306,1.492,1.492,0,0,0-1.467-.184.343.343,0,0,0-.177.228c-.071.43-.119.864-.177,1.3-.125.924-.247,1.848-.381,2.771a.285.285,0,0,0,.121.306,1.719,1.719,0,0,0,1.005.3Z" transform="translate(-252.604)" fill="#474763"/>
  <path id="Caminho_185" data-name="Caminho 185" d="M3.982,0h.478a1.137,1.137,0,0,1,.792.9c.1.586.211,1.171.316,1.756q.783,4.351,1.563,8.7a.332.332,0,0,0,.184.253A2.1,2.1,0,0,1,8.4,13.12q.364,2.05.745,4.1a2.343,2.343,0,0,1-.049,1.29A2.749,2.749,0,0,1,7.472,20.1a9.265,9.265,0,0,1-1.022.291h-.8a7.948,7.948,0,0,1-.873-.25,2.121,2.121,0,0,1-1.4-1.641q-.368-2.019-.747-4.036a2.254,2.254,0,0,1,.011-1.292,11.026,11.026,0,0,1,.531-1.007,6.374,6.374,0,0,1-1.4-1.686A12.858,12.858,0,0,1,.123,5.5C.069,5.1.04,4.7,0,4.3V4.1c.014-.111.031-.221.039-.332A3.807,3.807,0,0,1,.691,1.8,4.077,4.077,0,0,1,2.824.326C3.2.2,3.6.108,3.982,0Zm-.6,2.274A1.7,1.7,0,0,0,2.128,3.624a4.43,4.43,0,0,0-.019,1.048A11.71,11.71,0,0,0,3.226,8.864,5.239,5.239,0,0,0,4.332,10.43c.17.158.368.287.553.428l.053-.043Q4.163,6.548,3.386,2.274Zm2.593,16.09a1.512,1.512,0,0,0,1.054-.355.375.375,0,0,0,.1-.27c-.039-.314-.1-.625-.159-.937-.19-1.053-.382-2.105-.567-3.159a.314.314,0,0,0-.254-.281,1.492,1.492,0,0,0-1.411.3.363.363,0,0,0-.107.289c.232,1.334.476,2.666.72,4,.054.293.1.34.4.394a1.861,1.861,0,0,0,.228.019Z" fill="#474763"/>
</svg>
