<svg xmlns="http://www.w3.org/2000/svg" width="20.027" height="22" viewBox="0 0 20.027 22">
  <path id="Icon-Diario-ON" d="M4.311,14.723a3.061,3.061,0,0,1,.586-.056h.968V.092c-2.254.435-4.2,2.314-4.2,4.492V15.606a6.27,6.27,0,0,1,2.65-.884ZM21.688,16.5H4.9a2.754,2.754,0,1,0,0,5.5H16.514c2.673,0,5.174-2.052,5.174-4.583Zm0-11.917V14.667H7.8V0h4.841V9.486a.637.637,0,0,0,1.132.362l1.289-1.6,1.289,1.6a.637.637,0,0,0,1.132-.362V.093C19.691.517,21.688,2.366,21.688,4.583Z" transform="translate(-1.661)" fill="#474763"/>
</svg>
