<svg xmlns="http://www.w3.org/2000/svg" width="20.477" height="22" viewBox="0 0 20.477 22">
  <path id="Icon-Diario-OFF" d="M16.358,0H6.119A5.08,5.08,0,0,0,1,5.042V18.153A4.181,4.181,0,0,0,5.188,22H16.358a5.086,5.086,0,0,0,5.119-5.042V5.042A5.086,5.086,0,0,0,16.358,0ZM3.792,5.042A2.309,2.309,0,0,1,6.119,2.75h.465v11h-1.4a4.194,4.194,0,0,0-1.4.253ZM18.684,16.958a2.313,2.313,0,0,1-2.327,2.292H5.188a1.375,1.375,0,1,1,0-2.75h13.5Zm0-3.208H9.377v-11h2.792V9.486a.608.608,0,0,0,1.088.362L14.5,8.25l1.239,1.6a.608.608,0,0,0,1.088-.362V2.8a2.3,2.3,0,0,1,1.862,2.245Z" transform="translate(-1)" fill="#a3a3b1"/>
</svg>
