<svg xmlns="http://www.w3.org/2000/svg" width="22" height="22" viewBox="0 0 22 22">
  <path id="Icon-Score-ON" d="M5.959,22a1.375,1.375,0,1,1,0-2.75h.917A1.26,1.26,0,0,0,8.25,17.875V15.568C2.181,15.4,0,12.055,0,9.167A3.665,3.665,0,0,1,2.2,5.815C2.132,5.622,2.06,5.428,2,5.237a4.016,4.016,0,0,1,.642-3.575A4.1,4.1,0,0,1,5.959,0H16.042a4.1,4.1,0,0,1,3.313,1.662A4.02,4.02,0,0,1,20,5.237c-.057.191-.13.385-.2.578A3.666,3.666,0,0,1,22,9.167c0,2.888-2.18,6.234-8.25,6.4v2.307a1.264,1.264,0,0,0,1.392,1.375h.9a1.375,1.375,0,0,1,0,2.75Zm9.428-9.339c2.8-.505,3.863-2.039,3.863-3.494a.916.916,0,0,0-.545-.834A16.264,16.264,0,0,1,15.387,12.661ZM2.75,9.167c0,1.455,1.058,2.989,3.864,3.494A16.267,16.267,0,0,1,3.294,8.333.916.916,0,0,0,2.75,9.167Z" transform="translate(0 0)" fill="#474763"/>
</svg>
