<svg xmlns="http://www.w3.org/2000/svg" width="22" height="22" viewBox="0 0 22 22">
  <path id="Icon-Score-OFF" d="M22,9.167a3.667,3.667,0,0,0-2.194-3.352c.066-.192.138-.386.2-.577a4.02,4.02,0,0,0-.646-3.575A4.1,4.1,0,0,0,16.042,0H5.958A4.1,4.1,0,0,0,2.645,1.662,4.018,4.018,0,0,0,2,5.237c.057.192.129.385.2.577A3.667,3.667,0,0,0,0,9.167c0,2.887,2.181,6.233,8.25,6.4v2.307A1.259,1.259,0,0,1,6.875,19.25H5.958a1.375,1.375,0,0,0,0,2.75H16.042a1.375,1.375,0,0,0,0-2.75h-.9a1.263,1.263,0,0,1-1.391-1.375V15.568C19.819,15.4,22,12.054,22,9.167Zm-2.75,0c0,1.455-1.058,2.988-3.863,3.493a16.253,16.253,0,0,0,3.318-4.328.917.917,0,0,1,.544.834ZM4.847,3.308A1.375,1.375,0,0,1,5.958,2.75H16.042a1.375,1.375,0,0,1,1.111.558,1.283,1.283,0,0,1,.212,1.149,14.3,14.3,0,0,1-3.976,6.309A5.947,5.947,0,0,0,11,15.51h0a5.953,5.953,0,0,0-2.389-4.746A14.288,14.288,0,0,1,4.636,4.456a1.283,1.283,0,0,1,.212-1.148ZM2.75,9.167a.917.917,0,0,1,.544-.834A16.241,16.241,0,0,0,6.614,12.66C3.808,12.156,2.75,10.621,2.75,9.167Z" transform="translate(0 0)" fill="#a3a3b1"/>
</svg>
